<?xml version="1.0" encoding="UTF-8" standalone="no"?>
<!DOCTYPE svg PUBLIC "-//W3C//DTD SVG 1.1//EN"
 "http://www.w3.org/Graphics/SVG/1.1/DTD/svg11.dtd">
<!-- Generated by graphviz version 2.43.0 (0)
 -->
<!-- Title: vidre Pages: 1 -->
<svg width="174pt" height="153pt"
 viewBox="0.00 0.00 173.88 153.00" xmlns="http://www.w3.org/2000/svg" xmlns:xlink="http://www.w3.org/1999/xlink">
<g id="graph0" class="graph" transform="scale(1 1) rotate(0) translate(4 149)">
<title>vidre</title>
<g id="clust1" class="cluster">
<title>clusterdir_ae160884092a39fe283e78d39419f3b1</title>
<g id="a_clust1"><a xlink:href="dir_ae160884092a39fe283e78d39419f3b1.html" target="_top">
<polygon fill="#f5fafa" stroke="#404040" stroke-width="2" points="8,-47 8,-137 128,-137 128,-47 8,-47"/>
</a>
</g>
</g>
<!-- dir_ae160884092a39fe283e78d39419f3b1 -->
<g id="node1" class="node">
<title>dir_ae160884092a39fe283e78d39419f3b1</title>
<text text-anchor="middle" x="41" y="-117" font-family="Helvetica,sans-Serif" font-size="10.00">vidre</text>
</g>
<!-- dir_298c33d080814028895ca009d45f9249 -->
<g id="node3" class="node">
<title>dir_298c33d080814028895ca009d45f9249</title>
<g id="a_node3"><a xlink:href="dir_298c33d080814028895ca009d45f9249.html" target="_top" xlink:title="module">
<polygon fill="#cde6e4" stroke="#404040" points="69.5,-74 16.5,-74 16.5,-55 69.5,-55 69.5,-74"/>
<text text-anchor="middle" x="43" y="-62" font-family="Helvetica,sans-Serif" font-size="10.00">module</text>
</a>
</g>
</g>
<!-- dir_ae160884092a39fe283e78d39419f3b1&#45;&gt;dir_298c33d080814028895ca009d45f9249 -->
<g id="edge1" class="edge">
<title>dir_ae160884092a39fe283e78d39419f3b1&#45;&gt;dir_298c33d080814028895ca009d45f9249</title>
<g id="a_edge1"><a xlink:href="dir_000006_000003.html" target="_top">
<path fill="none" stroke="#63b8ff" d="M41.33,-109.75C41.59,-102.8 41.97,-92.85 42.3,-84.13"/>
<polygon fill="#63b8ff" stroke="#63b8ff" points="45.8,-84.21 42.68,-74.09 38.8,-83.95 45.8,-84.21"/>
</a>
</g>
<g id="a_edge1&#45;headlabel"><a xlink:href="dir_000006_000003.html" target="_top" xlink:title="1">
<text text-anchor="middle" x="48.5" y="-85.41" font-family="Helvetica,sans-Serif" font-size="10.00" fill="#63b8ff">1</text>
</a>
</g>
</g>
<!-- dir_e20837353495e5b519ffdffefa142bc3 -->
<g id="node4" class="node">
<title>dir_e20837353495e5b519ffdffefa142bc3</title>
<g id="a_node4"><a xlink:href="dir_e20837353495e5b519ffdffefa142bc3.html" target="_top" xlink:title="util">
<polygon fill="#cde6e4" stroke="#404040" points="120,-74 88,-74 88,-55 120,-55 120,-74"/>
<text text-anchor="middle" x="104" y="-62" font-family="Helvetica,sans-Serif" font-size="10.00">util</text>
</a>
</g>
</g>
<!-- dir_ae160884092a39fe283e78d39419f3b1&#45;&gt;dir_e20837353495e5b519ffdffefa142bc3 -->
<g id="edge3" class="edge">
<title>dir_ae160884092a39fe283e78d39419f3b1&#45;&gt;dir_e20837353495e5b519ffdffefa142bc3</title>
<g id="a_edge3"><a xlink:href="dir_000006_000005.html" target="_top">
<path fill="none" stroke="#63b8ff" d="M51.12,-109.98C60.44,-102.15 74.47,-90.34 85.74,-80.86"/>
<polygon fill="#63b8ff" stroke="#63b8ff" points="88.29,-83.29 93.69,-74.17 83.79,-77.93 88.29,-83.29"/>
</a>
</g>
<g id="a_edge3&#45;headlabel"><a xlink:href="dir_000006_000005.html" target="_top" xlink:title="1">
<text text-anchor="middle" x="87.37" y="-85.27" font-family="Helvetica,sans-Serif" font-size="10.00" fill="#63b8ff">1</text>
</a>
</g>
</g>
<!-- dir_ddb180b1b706da902332ef6e99c640a4 -->
<g id="node5" class="node">
<title>dir_ddb180b1b706da902332ef6e99c640a4</title>
<g id="a_node5"><a xlink:href="dir_ddb180b1b706da902332ef6e99c640a4.html" target="_top" xlink:title="vidre">
<polygon fill="#f5fafa" stroke="#404040" points="146.5,-19 105.5,-19 105.5,0 146.5,0 146.5,-19"/>
<text text-anchor="middle" x="126" y="-7" font-family="Helvetica,sans-Serif" font-size="10.00">vidre</text>
</a>
</g>
</g>
<!-- dir_ae160884092a39fe283e78d39419f3b1&#45;&gt;dir_ddb180b1b706da902332ef6e99c640a4 -->
<g id="edge2" class="edge">
<title>dir_ae160884092a39fe283e78d39419f3b1&#45;&gt;dir_ddb180b1b706da902332ef6e99c640a4</title>
<g id="a_edge2"><a xlink:href="dir_000006_000007.html" target="_top">
<path fill="none" stroke="#63b8ff" d="M61.54,-111C85.07,-101.95 121.38,-86.4 129,-74 137.22,-60.63 135.38,-42.52 132.13,-29.07"/>
<polygon fill="#63b8ff" stroke="#63b8ff" points="135.38,-27.7 129.24,-19.06 128.65,-29.64 135.38,-27.7"/>
</a>
</g>
<g id="a_edge2&#45;headlabel"><a xlink:href="dir_000006_000007.html" target="_top" xlink:title="4">
<text text-anchor="middle" x="139.1" y="-27.87" font-family="Helvetica,sans-Serif" font-size="10.00" fill="#63b8ff">4</text>
</a>
</g>
</g>
<!-- dir_4657609f64f4b1b0030642d0ab70ed10 -->
<g id="node2" class="node">
<title>dir_4657609f64f4b1b0030642d0ab70ed10</title>
<g id="a_node2"><a xlink:href="dir_4657609f64f4b1b0030642d0ab70ed10.html" target="_top" xlink:title="base">
<polygon fill="#cde6e4" stroke="#404040" points="120,-129 80,-129 80,-110 120,-110 120,-129"/>
<text text-anchor="middle" x="100" y="-117" font-family="Helvetica,sans-Serif" font-size="10.00">base</text>
</a>
</g>
</g>
<!-- dir_4657609f64f4b1b0030642d0ab70ed10&#45;&gt;dir_ddb180b1b706da902332ef6e99c640a4 -->
<g id="edge4" class="edge">
<title>dir_4657609f64f4b1b0030642d0ab70ed10&#45;&gt;dir_ddb180b1b706da902332ef6e99c640a4</title>
<g id="a_edge4"><a xlink:href="dir_000000_000007.html" target="_top">
<path fill="none" stroke="#63b8ff" d="M120.22,-110.15C134.76,-102.93 153.29,-90.97 162,-74 167.48,-63.32 166.55,-58.1 162,-47 158.68,-38.89 152.58,-31.63 146.35,-25.75"/>
<polygon fill="#63b8ff" stroke="#63b8ff" points="148.44,-22.93 138.56,-19.09 143.89,-28.25 148.44,-22.93"/>
</a>
</g>
<g id="a_edge4&#45;headlabel"><a xlink:href="dir_000000_000007.html" target="_top" xlink:title="1">
<text text-anchor="middle" x="153.01" y="-20.61" font-family="Helvetica,sans-Serif" font-size="10.00" fill="#63b8ff">1</text>
</a>
</g>
</g>
<!-- dir_298c33d080814028895ca009d45f9249&#45;&gt;dir_ddb180b1b706da902332ef6e99c640a4 -->
<g id="edge5" class="edge">
<title>dir_298c33d080814028895ca009d45f9249&#45;&gt;dir_ddb180b1b706da902332ef6e99c640a4</title>
<g id="a_edge5"><a xlink:href="dir_000003_000007.html" target="_top">
<path fill="none" stroke="#63b8ff" d="M56.34,-54.98C69.09,-46.84 88.55,-34.41 103.67,-24.76"/>
<polygon fill="#63b8ff" stroke="#63b8ff" points="105.88,-27.5 112.42,-19.17 102.11,-21.6 105.88,-27.5"/>
</a>
</g>
<g id="a_edge5&#45;headlabel"><a xlink:href="dir_000003_000007.html" target="_top" xlink:title="1">
<text text-anchor="middle" x="104.38" y="-29.33" font-family="Helvetica,sans-Serif" font-size="10.00" fill="#63b8ff">1</text>
</a>
</g>
</g>
<!-- dir_e20837353495e5b519ffdffefa142bc3&#45;&gt;dir_ddb180b1b706da902332ef6e99c640a4 -->
<g id="edge6" class="edge">
<title>dir_e20837353495e5b519ffdffefa142bc3&#45;&gt;dir_ddb180b1b706da902332ef6e99c640a4</title>
<g id="a_edge6"><a xlink:href="dir_000005_000007.html" target="_top">
<path fill="none" stroke="#63b8ff" d="M107.63,-54.75C110.58,-47.65 114.83,-37.4 118.51,-28.56"/>
<polygon fill="#63b8ff" stroke="#63b8ff" points="121.83,-29.67 122.43,-19.09 115.37,-26.98 121.83,-29.67"/>
</a>
</g>
<g id="a_edge6&#45;headlabel"><a xlink:href="dir_000005_000007.html" target="_top" xlink:title="1">
<text text-anchor="middle" x="123.08" y="-31.58" font-family="Helvetica,sans-Serif" font-size="10.00" fill="#63b8ff">1</text>
</a>
</g>
</g>
</g>
</svg>
