<?xml version="1.0" encoding="UTF-8" standalone="no"?>
<!DOCTYPE svg PUBLIC "-//W3C//DTD SVG 1.1//EN"
 "http://www.w3.org/Graphics/SVG/1.1/DTD/svg11.dtd">
<!-- Generated by graphviz version 2.43.0 (0)
 -->
<!-- Title: Base library. Pages: 1 -->
<svg width="323pt" height="64pt"
 viewBox="0.00 0.00 323.00 64.00" xmlns="http://www.w3.org/2000/svg" xmlns:xlink="http://www.w3.org/1999/xlink">
<g id="graph0" class="graph" transform="scale(1 1) rotate(0) translate(4 60)">
<title>Base library.</title>
<!-- Node2 -->
<g id="Node000002" class="node">
<title>Node2</title>
<g id="a_Node000002"><a xlink:href="group__api.html" target="_top" xlink:title=" ">
<polygon fill="white" stroke="#666666" points="32,-37 0,-37 0,-18 32,-18 32,-37"/>
<text text-anchor="middle" x="16" y="-25" font-family="Helvetica,sans-Serif" font-size="10.00">API</text>
</a>
</g>
</g>
<!-- Node1 -->
<g id="Node000001" class="node">
<title>Node1</title>
<g id="a_Node000001"><a xlink:title=" ">
<polygon fill="#999999" stroke="#666666" points="145,-37 68,-37 68,-18 145,-18 145,-37"/>
<text text-anchor="middle" x="106.5" y="-25" font-family="Helvetica,sans-Serif" font-size="10.00">Base library.</text>
</a>
</g>
</g>
<!-- Node2&#45;&gt;Node1 -->
<g id="edge1" class="edge">
<title>Node2&#45;&gt;Node1</title>
<path fill="none" stroke="black" d="M42.16,-27.5C50.16,-27.5 59.19,-27.5 67.88,-27.5"/>
<polygon fill="black" stroke="black" points="42.01,-24 32.01,-27.5 42.01,-31 42.01,-24"/>
</g>
<!-- Node4 -->
<g id="Node000004" class="node">
<title>Node4</title>
<g id="a_Node000004"><a xlink:href="group__api-base-details.html" target="_top" xlink:title=" ">
<polygon fill="white" stroke="#666666" points="315,-56 181,-56 181,-37 315,-37 315,-56"/>
<text text-anchor="middle" x="248" y="-44" font-family="Helvetica,sans-Serif" font-size="10.00">Implementation details.</text>
</a>
</g>
</g>
<!-- Node1&#45;&gt;Node4 -->
<g id="edge3" class="edge">
<title>Node1&#45;&gt;Node4</title>
<path fill="none" stroke="black" d="M155.42,-34.03C163.67,-35.15 172.37,-36.34 181,-37.51"/>
<polygon fill="black" stroke="black" points="155.63,-30.52 145.25,-32.64 154.69,-37.46 155.63,-30.52"/>
</g>
<!-- Node3 -->
<g id="Node000003" class="node">
<title>Node3</title>
<g id="a_Node000003"><a xlink:href="group__api-base-util.html" target="_top" xlink:title=" ">
<polygon fill="white" stroke="#666666" points="277,-19 219,-19 219,0 277,0 277,-19"/>
<text text-anchor="middle" x="248" y="-7" font-family="Helvetica,sans-Serif" font-size="10.00">Utilities.</text>
</a>
</g>
</g>
<!-- Node1&#45;&gt;Node3 -->
<g id="edge2" class="edge">
<title>Node1&#45;&gt;Node3</title>
<path fill="none" stroke="black" d="M155.37,-21.32C176.57,-18.59 200.76,-15.47 218.96,-13.12"/>
<polygon fill="black" stroke="black" points="154.72,-17.88 145.25,-22.63 155.62,-24.82 154.72,-17.88"/>
</g>
</g>
</svg>
