<?xml version="1.0" encoding="UTF-8" standalone="no"?>
<!DOCTYPE svg PUBLIC "-//W3C//DTD SVG 1.1//EN"
 "http://www.w3.org/Graphics/SVG/1.1/DTD/svg11.dtd">
<!-- Generated by graphviz version 2.43.0 (0)
 -->
<!-- Title: Base library. Pages: 1 -->
<svg width="331pt" height="101pt"
 viewBox="0.00 0.00 331.00 101.00" xmlns="http://www.w3.org/2000/svg" xmlns:xlink="http://www.w3.org/1999/xlink">
<g id="graph0" class="graph" transform="scale(1 1) rotate(0) translate(4 97)">
<title>Base library.</title>
<!-- Node2 -->
<g id="Node000002" class="node">
<title>Node2</title>
<g id="a_Node000002"><a xlink:href="group__api.html" target="_top" xlink:title=" ">
<polygon fill="white" stroke="#666666" points="32,-56 0,-56 0,-37 32,-37 32,-56"/>
<text text-anchor="middle" x="16" y="-44" font-family="Helvetica,sans-Serif" font-size="10.00">API</text>
</a>
</g>
</g>
<!-- Node1 -->
<g id="Node000001" class="node">
<title>Node1</title>
<g id="a_Node000001"><a xlink:title=" ">
<polygon fill="#999999" stroke="#666666" points="145,-56 68,-56 68,-37 145,-37 145,-56"/>
<text text-anchor="middle" x="106.5" y="-44" font-family="Helvetica,sans-Serif" font-size="10.00">Base library.</text>
</a>
</g>
</g>
<!-- Node2&#45;&gt;Node1 -->
<g id="edge1" class="edge">
<title>Node2&#45;&gt;Node1</title>
<path fill="none" stroke="black" d="M42.16,-46.5C50.16,-46.5 59.19,-46.5 67.88,-46.5"/>
<polygon fill="black" stroke="black" points="42.01,-43 32.01,-46.5 42.01,-50 42.01,-43"/>
</g>
<!-- Node5 -->
<g id="Node000005" class="node">
<title>Node5</title>
<g id="a_Node000005"><a xlink:href="group__api-base-details.html" target="_top" xlink:title=" ">
<polygon fill="white" stroke="#666666" points="319,-93 185,-93 185,-74 319,-74 319,-93"/>
<text text-anchor="middle" x="252" y="-81" font-family="Helvetica,sans-Serif" font-size="10.00">Implementation details.</text>
</a>
</g>
</g>
<!-- Node1&#45;&gt;Node5 -->
<g id="edge4" class="edge">
<title>Node1&#45;&gt;Node5</title>
<path fill="none" stroke="black" d="M154.33,-58.61C163.18,-60.9 172.38,-63.28 181,-65.5 191.69,-68.26 203.31,-71.25 213.94,-73.98"/>
<polygon fill="black" stroke="black" points="155.07,-55.19 144.51,-56.08 153.32,-61.97 155.07,-55.19"/>
</g>
<!-- Node3 -->
<g id="Node000003" class="node">
<title>Node3</title>
<g id="a_Node000003"><a xlink:href="group__api-base-module.html" target="_top" xlink:title=" ">
<polygon fill="white" stroke="#666666" points="323,-56 181,-56 181,-37 323,-37 323,-56"/>
<text text-anchor="middle" x="252" y="-44" font-family="Helvetica,sans-Serif" font-size="10.00">Dynamic module loading.</text>
</a>
</g>
</g>
<!-- Node1&#45;&gt;Node3 -->
<g id="edge2" class="edge">
<title>Node1&#45;&gt;Node3</title>
<path fill="none" stroke="black" d="M155.29,-46.5C163.49,-46.5 172.15,-46.5 180.79,-46.5"/>
<polygon fill="black" stroke="black" points="155.2,-43 145.2,-46.5 155.2,-50 155.2,-43"/>
</g>
<!-- Node4 -->
<g id="Node000004" class="node">
<title>Node4</title>
<g id="a_Node000004"><a xlink:href="group__api-base-util.html" target="_top" xlink:title=" ">
<polygon fill="white" stroke="#666666" points="281,-19 223,-19 223,0 281,0 281,-19"/>
<text text-anchor="middle" x="252" y="-7" font-family="Helvetica,sans-Serif" font-size="10.00">Utilities.</text>
</a>
</g>
</g>
<!-- Node1&#45;&gt;Node4 -->
<g id="edge3" class="edge">
<title>Node1&#45;&gt;Node4</title>
<path fill="none" stroke="black" d="M154.22,-34.45C176.84,-28.62 203.26,-21.81 222.78,-16.78"/>
<polygon fill="black" stroke="black" points="153.26,-31.09 144.45,-36.97 155.01,-37.86 153.26,-31.09"/>
</g>
</g>
</svg>
