<?xml version="1.0" encoding="UTF-8" standalone="no"?>
<!DOCTYPE svg PUBLIC "-//W3C//DTD SVG 1.1//EN"
 "http://www.w3.org/Graphics/SVG/1.1/DTD/svg11.dtd">
<!-- Generated by graphviz version 2.43.0 (0)
 -->
<!-- Title: vidre/config.hh Pages: 1 -->
<svg width="343pt" height="137pt"
 viewBox="0.00 0.00 342.50 137.00" xmlns="http://www.w3.org/2000/svg" xmlns:xlink="http://www.w3.org/1999/xlink">
<g id="graph0" class="graph" transform="scale(1 1) rotate(0) translate(4 133)">
<title>vidre/config.hh</title>
<!-- Node1 -->
<g id="Node000001" class="node">
<title>Node1</title>
<g id="a_Node000001"><a xlink:title=" ">
<polygon fill="#999999" stroke="#666666" points="164,-129 75,-129 75,-110 164,-110 164,-129"/>
<text text-anchor="middle" x="119.5" y="-117" font-family="Helvetica,sans-Serif" font-size="10.00">vidre/config.hh</text>
</a>
</g>
</g>
<!-- Node2 -->
<g id="Node000002" class="node">
<title>Node2</title>
<g id="a_Node000002"><a xlink:href="libs_2base_2vidre_2base_2config_8hh.html" target="_top" xlink:title=" ">
<polygon fill="white" stroke="#666666" points="115,-74 0,-74 0,-55 115,-55 115,-74"/>
<text text-anchor="middle" x="57.5" y="-62" font-family="Helvetica,sans-Serif" font-size="10.00">vidre/base/config.hh</text>
</a>
</g>
</g>
<!-- Node1&#45;&gt;Node2 -->
<g id="edge1_Node000001_Node000002" class="edge">
<title>Node1&#45;&gt;Node2</title>
<g id="a_edge1_Node000001_Node000002"><a xlink:title=" ">
<path fill="none" stroke="#63b8ff" d="M101.75,-103.32C90.69,-93.87 76.87,-82.06 67.64,-74.17"/>
<polygon fill="#63b8ff" stroke="#63b8ff" points="99.66,-106.15 109.54,-109.98 104.21,-100.83 99.66,-106.15"/>
</a>
</g>
</g>
<!-- Node4 -->
<g id="Node000004" class="node">
<title>Node4</title>
<g id="a_Node000004"><a xlink:href="uuid_8hh.html" target="_top" xlink:title=" ">
<polygon fill="white" stroke="#666666" points="232,-74 133,-74 133,-55 232,-55 232,-74"/>
<text text-anchor="middle" x="182.5" y="-62" font-family="Helvetica,sans-Serif" font-size="10.00">vidre/util/uuid.hh</text>
</a>
</g>
</g>
<!-- Node1&#45;&gt;Node4 -->
<g id="edge3_Node000001_Node000004" class="edge">
<title>Node1&#45;&gt;Node4</title>
<g id="a_edge3_Node000001_Node000004"><a xlink:title=" ">
<path fill="none" stroke="#63b8ff" d="M137.54,-103.32C148.77,-93.87 162.82,-82.06 172.19,-74.17"/>
<polygon fill="#63b8ff" stroke="#63b8ff" points="135.02,-100.87 129.62,-109.98 139.53,-106.23 135.02,-100.87"/>
</a>
</g>
</g>
<!-- Node3 -->
<g id="Node000003" class="node">
<title>Node3</title>
<g id="a_Node000003"><a xlink:href="config_8cc.html" target="_top" xlink:title=" ">
<polygon fill="white" stroke="#666666" points="114,-19 1,-19 1,0 114,0 114,-19"/>
<text text-anchor="middle" x="57.5" y="-7" font-family="Helvetica,sans-Serif" font-size="10.00">vidre/base/config.cc</text>
</a>
</g>
</g>
<!-- Node2&#45;&gt;Node3 -->
<g id="edge2_Node000002_Node000003" class="edge">
<title>Node2&#45;&gt;Node3</title>
<g id="a_edge2_Node000002_Node000003"><a xlink:title=" ">
<path fill="none" stroke="#63b8ff" d="M57.5,-44.66C57.5,-35.93 57.5,-25.99 57.5,-19.09"/>
<polygon fill="#63b8ff" stroke="#63b8ff" points="54,-44.75 57.5,-54.75 61,-44.75 54,-44.75"/>
</a>
</g>
</g>
<!-- Node5 -->
<g id="Node000005" class="node">
<title>Node5</title>
<g id="a_Node000005"><a xlink:href="base_8cc.html" target="_top" xlink:title=" ">
<polygon fill="white" stroke="#666666" points="218,-19 137,-19 137,0 218,0 218,-19"/>
<text text-anchor="middle" x="177.5" y="-7" font-family="Helvetica,sans-Serif" font-size="10.00">vidre/base.cc</text>
</a>
</g>
</g>
<!-- Node4&#45;&gt;Node5 -->
<g id="edge4_Node000004_Node000005" class="edge">
<title>Node4&#45;&gt;Node5</title>
<g id="a_edge4_Node000004_Node000005"><a xlink:title=" ">
<path fill="none" stroke="#63b8ff" d="M180.72,-44.66C179.9,-35.93 178.96,-25.99 178.31,-19.09"/>
<polygon fill="#63b8ff" stroke="#63b8ff" points="177.25,-45.12 181.67,-54.75 184.22,-44.46 177.25,-45.12"/>
</a>
</g>
</g>
<!-- Node6 -->
<g id="Node000006" class="node">
<title>Node6</title>
<g id="a_Node000006"><a xlink:href="uuid_8cc.html" target="_top" xlink:title=" ">
<polygon fill="white" stroke="#666666" points="334.5,-19 236.5,-19 236.5,0 334.5,0 334.5,-19"/>
<text text-anchor="middle" x="285.5" y="-7" font-family="Helvetica,sans-Serif" font-size="10.00">vidre/util/uuid.cc</text>
</a>
</g>
</g>
<!-- Node4&#45;&gt;Node6 -->
<g id="edge5_Node000004_Node000006" class="edge">
<title>Node4&#45;&gt;Node6</title>
<g id="a_edge5_Node000004_Node000006"><a xlink:title=" ">
<path fill="none" stroke="#63b8ff" d="M208.02,-50.37C226.94,-40.63 252.2,-27.64 268.65,-19.17"/>
<polygon fill="#63b8ff" stroke="#63b8ff" points="206.34,-47.3 199.05,-54.98 209.54,-53.52 206.34,-47.3"/>
</a>
</g>
</g>
</g>
</svg>
