<?xml version="1.0" encoding="UTF-8" standalone="no"?>
<!DOCTYPE svg PUBLIC "-//W3C//DTD SVG 1.1//EN"
 "http://www.w3.org/Graphics/SVG/1.1/DTD/svg11.dtd">
<!-- Generated by graphviz version 2.43.0 (0)
 -->
<!-- Title: vidre/config.hh Pages: 1 -->
<svg width="604pt" height="137pt"
 viewBox="0.00 0.00 603.50 137.00" xmlns="http://www.w3.org/2000/svg" xmlns:xlink="http://www.w3.org/1999/xlink">
<g id="graph0" class="graph" transform="scale(1 1) rotate(0) translate(4 133)">
<title>vidre/config.hh</title>
<!-- Node1 -->
<g id="Node000001" class="node">
<title>Node1</title>
<g id="a_Node000001"><a xlink:title=" ">
<polygon fill="#999999" stroke="#666666" points="272,-129 183,-129 183,-110 272,-110 272,-129"/>
<text text-anchor="middle" x="227.5" y="-117" font-family="Helvetica,sans-Serif" font-size="10.00">vidre/config.hh</text>
</a>
</g>
</g>
<!-- Node2 -->
<g id="Node000002" class="node">
<title>Node2</title>
<g id="a_Node000002"><a xlink:href="libs_2base_2vidre_2base_2config_8hh.html" target="_top" xlink:title=" ">
<polygon fill="white" stroke="#666666" points="133,-74 18,-74 18,-55 133,-55 133,-74"/>
<text text-anchor="middle" x="75.5" y="-62" font-family="Helvetica,sans-Serif" font-size="10.00">vidre/base/config.hh</text>
</a>
</g>
</g>
<!-- Node1&#45;&gt;Node2 -->
<g id="edge1_Node000001_Node000002" class="edge">
<title>Node1&#45;&gt;Node2</title>
<g id="a_edge1_Node000001_Node000002"><a xlink:title=" ">
<path fill="none" stroke="#63b8ff" d="M193.57,-106.67C165.23,-96.79 125.48,-82.93 100.11,-74.08"/>
<polygon fill="#63b8ff" stroke="#63b8ff" points="192.48,-110 203.08,-109.98 194.79,-103.39 192.48,-110"/>
</a>
</g>
</g>
<!-- Node4 -->
<g id="Node000004" class="node">
<title>Node4</title>
<g id="a_Node000004"><a xlink:href="module_8hh.html" target="_top" xlink:title=" ">
<polygon fill="white" stroke="#666666" points="227.5,-19 131.5,-19 131.5,0 227.5,0 227.5,-19"/>
<text text-anchor="middle" x="179.5" y="-7" font-family="Helvetica,sans-Serif" font-size="10.00">vidre/module.hh</text>
</a>
</g>
</g>
<!-- Node1&#45;&gt;Node4 -->
<g id="edge3_Node000001_Node000004" class="edge">
<title>Node1&#45;&gt;Node4</title>
<g id="a_edge3_Node000001_Node000004"><a xlink:title=" ">
<path fill="none" stroke="#63b8ff" d="M214.83,-101.59C209.24,-93.54 202.95,-83.6 198.5,-74 189.88,-55.42 184.06,-31.98 181.32,-19.42"/>
<polygon fill="#63b8ff" stroke="#63b8ff" points="212.02,-103.67 220.7,-109.74 217.7,-99.58 212.02,-103.67"/>
</a>
</g>
</g>
<!-- Node5 -->
<g id="Node000005" class="node">
<title>Node5</title>
<g id="a_Node000005"><a xlink:href="declare_8hh.html" target="_top" xlink:title=" ">
<polygon fill="white" stroke="#666666" points="343,-74 208,-74 208,-55 343,-55 343,-74"/>
<text text-anchor="middle" x="275.5" y="-62" font-family="Helvetica,sans-Serif" font-size="10.00">vidre/module/declare.hh</text>
</a>
</g>
</g>
<!-- Node1&#45;&gt;Node5 -->
<g id="edge4_Node000001_Node000005" class="edge">
<title>Node1&#45;&gt;Node5</title>
<g id="a_edge4_Node000001_Node000005"><a xlink:title=" ">
<path fill="none" stroke="#63b8ff" d="M242.23,-102.24C250.64,-92.95 260.85,-81.68 267.72,-74.09"/>
<polygon fill="#63b8ff" stroke="#63b8ff" points="239.54,-99.99 235.43,-109.75 244.73,-104.69 239.54,-99.99"/>
</a>
</g>
</g>
<!-- Node7 -->
<g id="Node000007" class="node">
<title>Node7</title>
<g id="a_Node000007"><a xlink:href="uuid_8hh.html" target="_top" xlink:title=" ">
<polygon fill="white" stroke="#666666" points="488,-74 389,-74 389,-55 488,-55 488,-74"/>
<text text-anchor="middle" x="438.5" y="-62" font-family="Helvetica,sans-Serif" font-size="10.00">vidre/util/uuid.hh</text>
</a>
</g>
</g>
<!-- Node1&#45;&gt;Node7 -->
<g id="edge7_Node000001_Node000007" class="edge">
<title>Node1&#45;&gt;Node7</title>
<g id="a_edge7_Node000001_Node000007"><a xlink:title=" ">
<path fill="none" stroke="#63b8ff" d="M271.29,-107.5C310.8,-97.58 368.12,-83.18 404.33,-74.08"/>
<polygon fill="#63b8ff" stroke="#63b8ff" points="270.25,-104.15 261.4,-109.98 271.95,-110.94 270.25,-104.15"/>
</a>
</g>
</g>
<!-- Node3 -->
<g id="Node000003" class="node">
<title>Node3</title>
<g id="a_Node000003"><a xlink:href="config_8cc.html" target="_top" xlink:title=" ">
<polygon fill="white" stroke="#666666" points="113,-19 0,-19 0,0 113,0 113,-19"/>
<text text-anchor="middle" x="56.5" y="-7" font-family="Helvetica,sans-Serif" font-size="10.00">vidre/base/config.cc</text>
</a>
</g>
</g>
<!-- Node2&#45;&gt;Node3 -->
<g id="edge2_Node000002_Node000003" class="edge">
<title>Node2&#45;&gt;Node3</title>
<g id="a_edge2_Node000002_Node000003"><a xlink:title=" ">
<path fill="none" stroke="#63b8ff" d="M68.95,-45.24C65.78,-36.37 62.11,-26.14 59.58,-19.09"/>
<polygon fill="#63b8ff" stroke="#63b8ff" points="65.69,-46.52 72.36,-54.75 72.28,-44.15 65.69,-46.52"/>
</a>
</g>
</g>
<!-- Node5&#45;&gt;Node4 -->
<g id="edge5_Node000005_Node000004" class="edge">
<title>Node5&#45;&gt;Node4</title>
<g id="a_edge5_Node000005_Node000004"><a xlink:title=" ">
<path fill="none" stroke="#63b8ff" d="M250.98,-49.97C233.44,-40.28 210.33,-27.52 195.2,-19.17"/>
<polygon fill="#63b8ff" stroke="#63b8ff" points="249.63,-53.22 260.08,-54.98 253.01,-47.09 249.63,-53.22"/>
</a>
</g>
</g>
<!-- Node6 -->
<g id="Node000006" class="node">
<title>Node6</title>
<g id="a_Node000006"><a xlink:href="module_8cc.html" target="_top" xlink:title=" ">
<polygon fill="white" stroke="#666666" points="379.5,-19 245.5,-19 245.5,0 379.5,0 379.5,-19"/>
<text text-anchor="middle" x="312.5" y="-7" font-family="Helvetica,sans-Serif" font-size="10.00">vidre/module/module.cc</text>
</a>
</g>
</g>
<!-- Node5&#45;&gt;Node6 -->
<g id="edge6_Node000005_Node000006" class="edge">
<title>Node5&#45;&gt;Node6</title>
<g id="a_edge6_Node000005_Node000006"><a xlink:title=" ">
<path fill="none" stroke="#63b8ff" d="M287.45,-46.39C293.81,-37.27 301.37,-26.45 306.5,-19.09"/>
<polygon fill="#63b8ff" stroke="#63b8ff" points="284.46,-44.55 281.61,-54.75 290.2,-48.55 284.46,-44.55"/>
</a>
</g>
</g>
<!-- Node8 -->
<g id="Node000008" class="node">
<title>Node8</title>
<g id="a_Node000008"><a xlink:href="base_8cc.html" target="_top" xlink:title=" ">
<polygon fill="white" stroke="#666666" points="479,-19 398,-19 398,0 479,0 479,-19"/>
<text text-anchor="middle" x="438.5" y="-7" font-family="Helvetica,sans-Serif" font-size="10.00">vidre/base.cc</text>
</a>
</g>
</g>
<!-- Node7&#45;&gt;Node8 -->
<g id="edge8_Node000007_Node000008" class="edge">
<title>Node7&#45;&gt;Node8</title>
<g id="a_edge8_Node000007_Node000008"><a xlink:title=" ">
<path fill="none" stroke="#63b8ff" d="M438.5,-44.66C438.5,-35.93 438.5,-25.99 438.5,-19.09"/>
<polygon fill="#63b8ff" stroke="#63b8ff" points="435,-44.75 438.5,-54.75 442,-44.75 435,-44.75"/>
</a>
</g>
</g>
<!-- Node9 -->
<g id="Node000009" class="node">
<title>Node9</title>
<g id="a_Node000009"><a xlink:href="uuid_8cc.html" target="_top" xlink:title=" ">
<polygon fill="white" stroke="#666666" points="595.5,-19 497.5,-19 497.5,0 595.5,0 595.5,-19"/>
<text text-anchor="middle" x="546.5" y="-7" font-family="Helvetica,sans-Serif" font-size="10.00">vidre/util/uuid.cc</text>
</a>
</g>
</g>
<!-- Node7&#45;&gt;Node9 -->
<g id="edge9_Node000007_Node000009" class="edge">
<title>Node7&#45;&gt;Node9</title>
<g id="a_edge9_Node000007_Node000009"><a xlink:title=" ">
<path fill="none" stroke="#63b8ff" d="M464.99,-50.5C484.86,-40.75 511.5,-27.68 528.83,-19.17"/>
<polygon fill="#63b8ff" stroke="#63b8ff" points="463.29,-47.44 455.85,-54.98 466.37,-53.72 463.29,-47.44"/>
</a>
</g>
</g>
</g>
</svg>
