<?xml version="1.0" encoding="UTF-8" standalone="no"?>
<!DOCTYPE svg PUBLIC "-//W3C//DTD SVG 1.1//EN"
 "http://www.w3.org/Graphics/SVG/1.1/DTD/svg11.dtd">
<!-- Generated by graphviz version 2.43.0 (0)
 -->
<!-- Title: /home/sawinski/Workspace/MPINB/vidre/examples/core/uuid.cc Pages: 1 -->
<svg width="356pt" height="214pt"
 viewBox="0.00 0.00 356.00 214.00" xmlns="http://www.w3.org/2000/svg" xmlns:xlink="http://www.w3.org/1999/xlink">

<svg id="main" version="1.1" xmlns="http://www.w3.org/2000/svg" xmlns:xlink="http://www.w3.org/1999/xlink" xml:space="preserve" onload="init(evt)">
<style type="text/css"><![CDATA[
.node, .edge {opacity: 0.7;}
.node.selected, .edge.selected {opacity: 1;}
.edge:hover path { stroke: red; }
.edge:hover polygon { stroke: red; fill: red; }
]]></style>
<script type="application/ecmascript" xlink:href="svg.min.js"/>
<svg id="graph" class="graph">
<g id="graph0" class="graph" transform="scale(1 1) rotate(0) translate(4 210)">
<title>/home/sawinski/Workspace/MPINB/vidre/examples/core/uuid.cc</title>
<!-- Node1 -->
<g id="Node000001" class="node">
<title>Node1</title>
<g id="a_Node000001"><a xlink:title=" ">
<polygon fill="#999999" stroke="#666666" points="331,-206 176,-206 176,-165 331,-165 331,-206"/>
<text text-anchor="start" x="184" y="-194" font-family="Helvetica,sans-Serif" font-size="10.00">/home/sawinski/Workspace</text>
<text text-anchor="start" x="184" y="-183" font-family="Helvetica,sans-Serif" font-size="10.00">/MPINB/vidre/examples/core</text>
<text text-anchor="middle" x="253.5" y="-172" font-family="Helvetica,sans-Serif" font-size="10.00">/uuid.cc</text>
</a>
</g>
</g>
<!-- Node2 -->
<g id="Node000002" class="node">
<title>Node2</title>
<g id="a_Node000002"><a xlink:href="uuid_8hh.html" target="_top" xlink:title=" ">
<polygon fill="white" stroke="#666666" points="254,-129 155,-129 155,-110 254,-110 254,-129"/>
<text text-anchor="middle" x="204.5" y="-117" font-family="Helvetica,sans-Serif" font-size="10.00">vidre/util/uuid.hh</text>
</a>
</g>
</g>
<!-- Node1&#45;&gt;Node2 -->
<g id="edge1_Node000001_Node000002" class="edge">
<title>Node1&#45;&gt;Node2</title>
<g id="a_edge1_Node000001_Node000002"><a xlink:title=" ">
<path fill="none" stroke="#63b8ff" d="M238.53,-164.95C231.76,-156.11 223.85,-145.77 217.35,-137.29"/>
<polygon fill="#63b8ff" stroke="#63b8ff" points="220.07,-135.07 211.21,-129.26 214.51,-139.33 220.07,-135.07"/>
</a>
</g>
</g>
<!-- Node8 -->
<g id="Node000008" class="node">
<title>Node8</title>
<g id="a_Node000008"><a xlink:title=" ">
<polygon fill="#e0e0e0" stroke="#999999" points="332.5,-129 272.5,-129 272.5,-110 332.5,-110 332.5,-129"/>
<text text-anchor="middle" x="302.5" y="-117" font-family="Helvetica,sans-Serif" font-size="10.00">iostream</text>
</a>
</g>
</g>
<!-- Node1&#45;&gt;Node8 -->
<g id="edge7_Node000001_Node000008" class="edge">
<title>Node1&#45;&gt;Node8</title>
<g id="a_edge7_Node000001_Node000008"><a xlink:title=" ">
<path fill="none" stroke="#63b8ff" d="M268.47,-164.95C275.24,-156.11 283.15,-145.77 289.65,-137.29"/>
<polygon fill="#63b8ff" stroke="#63b8ff" points="292.49,-139.33 295.79,-129.26 286.93,-135.07 292.49,-139.33"/>
</a>
</g>
</g>
<!-- Node3 -->
<g id="Node000003" class="node">
<title>Node3</title>
<g id="a_Node000003"><a xlink:href="libs_2core_2vidre_2core_2config_8hh.html" target="_top" xlink:title=" ">
<polygon fill="white" stroke="#666666" points="113,-74 0,-74 0,-55 113,-55 113,-74"/>
<text text-anchor="middle" x="56.5" y="-62" font-family="Helvetica,sans-Serif" font-size="10.00">vidre/core/config.hh</text>
</a>
</g>
</g>
<!-- Node2&#45;&gt;Node3 -->
<g id="edge2_Node000002_Node000003" class="edge">
<title>Node2&#45;&gt;Node3</title>
<g id="a_edge2_Node000002_Node000003"><a xlink:title=" ">
<path fill="none" stroke="#63b8ff" d="M180.72,-109.98C156.27,-101.23 117.97,-87.51 90.35,-77.62"/>
<polygon fill="#63b8ff" stroke="#63b8ff" points="91.31,-74.25 80.71,-74.17 88.95,-80.84 91.31,-74.25"/>
</a>
</g>
</g>
<!-- Node5 -->
<g id="Node000005" class="node">
<title>Node5</title>
<g id="a_Node000005"><a xlink:title=" ">
<polygon fill="#e0e0e0" stroke="#999999" points="202,-74 131,-74 131,-55 202,-55 202,-74"/>
<text text-anchor="middle" x="166.5" y="-62" font-family="Helvetica,sans-Serif" font-size="10.00">uuid/uuid.h</text>
</a>
</g>
</g>
<!-- Node2&#45;&gt;Node5 -->
<g id="edge4_Node000002_Node000005" class="edge">
<title>Node2&#45;&gt;Node5</title>
<g id="a_edge4_Node000002_Node000005"><a xlink:title=" ">
<path fill="none" stroke="#63b8ff" d="M198.23,-109.75C192.91,-102.34 185.14,-91.5 178.62,-82.41"/>
<polygon fill="#63b8ff" stroke="#63b8ff" points="181.33,-80.18 172.66,-74.09 175.64,-84.26 181.33,-80.18"/>
</a>
</g>
</g>
<!-- Node6 -->
<g id="Node000006" class="node">
<title>Node6</title>
<g id="a_Node000006"><a xlink:title=" ">
<polygon fill="#e0e0e0" stroke="#999999" points="264.5,-74 220.5,-74 220.5,-55 264.5,-55 264.5,-74"/>
<text text-anchor="middle" x="242.5" y="-62" font-family="Helvetica,sans-Serif" font-size="10.00">string</text>
</a>
</g>
</g>
<!-- Node2&#45;&gt;Node6 -->
<g id="edge5_Node000002_Node000006" class="edge">
<title>Node2&#45;&gt;Node6</title>
<g id="a_edge5_Node000002_Node000006"><a xlink:title=" ">
<path fill="none" stroke="#63b8ff" d="M210.77,-109.75C216.09,-102.34 223.86,-91.5 230.38,-82.41"/>
<polygon fill="#63b8ff" stroke="#63b8ff" points="233.36,-84.26 236.34,-74.09 227.67,-80.18 233.36,-84.26"/>
</a>
</g>
</g>
<!-- Node7 -->
<g id="Node000007" class="node">
<title>Node7</title>
<g id="a_Node000007"><a xlink:title=" ">
<polygon fill="#e0e0e0" stroke="#999999" points="348,-74 283,-74 283,-55 348,-55 348,-74"/>
<text text-anchor="middle" x="315.5" y="-62" font-family="Helvetica,sans-Serif" font-size="10.00">stdexcept</text>
</a>
</g>
</g>
<!-- Node2&#45;&gt;Node7 -->
<g id="edge6_Node000002_Node000007" class="edge">
<title>Node2&#45;&gt;Node7</title>
<g id="a_edge6_Node000002_Node000007"><a xlink:title=" ">
<path fill="none" stroke="#63b8ff" d="M222.33,-109.98C240.11,-101.5 267.65,-88.35 288.18,-78.54"/>
<polygon fill="#63b8ff" stroke="#63b8ff" points="289.83,-81.64 297.34,-74.17 286.81,-75.32 289.83,-81.64"/>
</a>
</g>
</g>
<!-- Node4 -->
<g id="Node000004" class="node">
<title>Node4</title>
<g id="a_Node000004"><a xlink:href="vidre_2config_8hh.html" target="_top" xlink:title=" ">
<polygon fill="white" stroke="#666666" points="101,-19 12,-19 12,0 101,0 101,-19"/>
<text text-anchor="middle" x="56.5" y="-7" font-family="Helvetica,sans-Serif" font-size="10.00">vidre/config.hh</text>
</a>
</g>
</g>
<!-- Node3&#45;&gt;Node4 -->
<g id="edge3_Node000003_Node000004" class="edge">
<title>Node3&#45;&gt;Node4</title>
<g id="a_edge3_Node000003_Node000004"><a xlink:title=" ">
<path fill="none" stroke="#63b8ff" d="M56.5,-54.75C56.5,-47.8 56.5,-37.85 56.5,-29.13"/>
<polygon fill="#63b8ff" stroke="#63b8ff" points="60,-29.09 56.5,-19.09 53,-29.09 60,-29.09"/>
</a>
</g>
</g>
</g>
</svg>
</svg>

<style type='text/css'>
<![CDATA[
[data-mouse-over-selected='false'] { opacity: 0.7; }
[data-mouse-over-selected='true']  { opacity: 1.0; }
]]>
</style>
<script type="application/ecmascript"><![CDATA[
document.addEventListener('DOMContentLoaded', (event) => {
  highlightEdges();
  highlightAdjacentNodes();
});
]]></script>
</svg>
