<?xml version="1.0" encoding="UTF-8" standalone="no"?>
<!DOCTYPE svg PUBLIC "-//W3C//DTD SVG 1.1//EN"
 "http://www.w3.org/Graphics/SVG/1.1/DTD/svg11.dtd">
<!-- Generated by graphviz version 2.43.0 (0)
 -->
<!-- Title: Utilities. Pages: 1 -->
<svg width="302pt" height="101pt"
 viewBox="0.00 0.00 302.00 101.00" xmlns="http://www.w3.org/2000/svg" xmlns:xlink="http://www.w3.org/1999/xlink">
<g id="graph0" class="graph" transform="scale(1 1) rotate(0) translate(4 97)">
<title>Utilities.</title>
<!-- Node2 -->
<g id="Node000002" class="node">
<title>Node2</title>
<g id="a_Node000002"><a xlink:href="group__api-core.html" target="_top" xlink:title=" ">
<polygon fill="white" stroke="#666666" points="75,-56 0,-56 0,-37 75,-37 75,-56"/>
<text text-anchor="middle" x="37.5" y="-44" font-family="Helvetica,sans-Serif" font-size="10.00">Core library.</text>
</a>
</g>
</g>
<!-- Node1 -->
<g id="Node000001" class="node">
<title>Node1</title>
<g id="a_Node000001"><a xlink:title=" ">
<polygon fill="#999999" stroke="#666666" points="169,-56 111,-56 111,-37 169,-37 169,-56"/>
<text text-anchor="middle" x="140" y="-44" font-family="Helvetica,sans-Serif" font-size="10.00">Utilities.</text>
</a>
</g>
</g>
<!-- Node2&#45;&gt;Node1 -->
<g id="edge1" class="edge">
<title>Node2&#45;&gt;Node1</title>
<path fill="none" stroke="black" d="M85.21,-46.5C93.95,-46.5 102.84,-46.5 110.81,-46.5"/>
<polygon fill="black" stroke="black" points="85.07,-43 75.07,-46.5 85.07,-50 85.07,-43"/>
</g>
<!-- Node3 -->
<g id="Node000003" class="node">
<title>Node3</title>
<g id="a_Node000003"><a xlink:href="group__api-core-util-json.html" target="_top" xlink:title=" ">
<polygon fill="white" stroke="#666666" points="271.5,-93 227.5,-93 227.5,-74 271.5,-74 271.5,-93"/>
<text text-anchor="middle" x="249.5" y="-81" font-family="Helvetica,sans-Serif" font-size="10.00">JSON.</text>
</a>
</g>
</g>
<!-- Node1&#45;&gt;Node3 -->
<g id="edge2" class="edge">
<title>Node1&#45;&gt;Node3</title>
<path fill="none" stroke="black" d="M178.52,-59.42C194.89,-65.05 213.46,-71.44 227.36,-76.22"/>
<polygon fill="black" stroke="black" points="179.28,-55.97 168.68,-56.03 177,-62.59 179.28,-55.97"/>
</g>
<!-- Node4 -->
<g id="Node000004" class="node">
<title>Node4</title>
<g id="a_Node000004"><a xlink:href="group__api-core-util-macro.html" target="_top" xlink:title=" ">
<polygon fill="white" stroke="#666666" points="294,-56 205,-56 205,-37 294,-37 294,-56"/>
<text text-anchor="middle" x="249.5" y="-44" font-family="Helvetica,sans-Serif" font-size="10.00">Macro utilities.</text>
</a>
</g>
</g>
<!-- Node1&#45;&gt;Node4 -->
<g id="edge3" class="edge">
<title>Node1&#45;&gt;Node4</title>
<path fill="none" stroke="black" d="M179.29,-46.5C187.5,-46.5 196.24,-46.5 204.64,-46.5"/>
<polygon fill="black" stroke="black" points="179.24,-43 169.24,-46.5 179.24,-50 179.24,-43"/>
</g>
<!-- Node5 -->
<g id="Node000005" class="node">
<title>Node5</title>
<g id="a_Node000005"><a xlink:href="group__api-core-util-uuid.html" target="_top" xlink:title=" ">
<polygon fill="white" stroke="#666666" points="270.5,-19 228.5,-19 228.5,0 270.5,0 270.5,-19"/>
<text text-anchor="middle" x="249.5" y="-7" font-family="Helvetica,sans-Serif" font-size="10.00">UUID</text>
</a>
</g>
</g>
<!-- Node1&#45;&gt;Node5 -->
<g id="edge4" class="edge">
<title>Node1&#45;&gt;Node5</title>
<path fill="none" stroke="black" d="M178.26,-33.68C195.09,-27.88 214.3,-21.27 228.38,-16.43"/>
<polygon fill="black" stroke="black" points="177,-30.41 168.68,-36.97 179.28,-37.03 177,-30.41"/>
</g>
</g>
</svg>
