<?xml version="1.0" encoding="UTF-8" standalone="no"?>
<!DOCTYPE svg PUBLIC "-//W3C//DTD SVG 1.1//EN"
 "http://www.w3.org/Graphics/SVG/1.1/DTD/svg11.dtd">
<!-- Generated by graphviz version 2.43.0 (0)
 -->
<!-- Title: Utilities Pages: 1 -->
<svg width="299pt" height="101pt"
 viewBox="0.00 0.00 299.00 101.00" xmlns="http://www.w3.org/2000/svg" xmlns:xlink="http://www.w3.org/1999/xlink">
<g id="graph0" class="graph" transform="scale(1 1) rotate(0) translate(4 97)">
<title>Utilities</title>
<!-- Node2 -->
<g id="Node000002" class="node">
<title>Node2</title>
<g id="a_Node000002"><a xlink:href="group__api-core.html" target="_top" xlink:title=" ">
<polygon fill="white" stroke="#666666" points="75,-56 0,-56 0,-37 75,-37 75,-56"/>
<text text-anchor="middle" x="37.5" y="-44" font-family="Helvetica,sans-Serif" font-size="10.00">Core library.</text>
</a>
</g>
</g>
<!-- Node1 -->
<g id="Node000001" class="node">
<title>Node1</title>
<g id="a_Node000001"><a xlink:title=" ">
<polygon fill="#999999" stroke="#666666" points="166,-56 111,-56 111,-37 166,-37 166,-56"/>
<text text-anchor="middle" x="138.5" y="-44" font-family="Helvetica,sans-Serif" font-size="10.00">Utilities</text>
</a>
</g>
</g>
<!-- Node2&#45;&gt;Node1 -->
<g id="edge1" class="edge">
<title>Node2&#45;&gt;Node1</title>
<path fill="none" stroke="black" d="M85.31,-46.5C94.12,-46.5 103.05,-46.5 110.97,-46.5"/>
<polygon fill="black" stroke="black" points="85.08,-43 75.08,-46.5 85.08,-50 85.08,-43"/>
</g>
<!-- Node3 -->
<g id="Node000003" class="node">
<title>Node3</title>
<g id="a_Node000003"><a xlink:href="group__api-core-util-json.html" target="_top" xlink:title=" ">
<polygon fill="white" stroke="#666666" points="268.5,-93 224.5,-93 224.5,-74 268.5,-74 268.5,-93"/>
<text text-anchor="middle" x="246.5" y="-81" font-family="Helvetica,sans-Serif" font-size="10.00">JSON.</text>
</a>
</g>
</g>
<!-- Node1&#45;&gt;Node3 -->
<g id="edge2" class="edge">
<title>Node1&#45;&gt;Node3</title>
<path fill="none" stroke="black" d="M175.96,-59.23C192.14,-64.88 210.61,-71.32 224.44,-76.15"/>
<polygon fill="black" stroke="black" points="176.84,-55.83 166.25,-55.84 174.54,-62.44 176.84,-55.83"/>
</g>
<!-- Node4 -->
<g id="Node000004" class="node">
<title>Node4</title>
<g id="a_Node000004"><a xlink:href="group__api-core-util-macro.html" target="_top" xlink:title=" ">
<polygon fill="white" stroke="#666666" points="291,-56 202,-56 202,-37 291,-37 291,-56"/>
<text text-anchor="middle" x="246.5" y="-44" font-family="Helvetica,sans-Serif" font-size="10.00">Macro utilities.</text>
</a>
</g>
</g>
<!-- Node1&#45;&gt;Node4 -->
<g id="edge3" class="edge">
<title>Node1&#45;&gt;Node4</title>
<path fill="none" stroke="black" d="M176.31,-46.5C184.55,-46.5 193.36,-46.5 201.85,-46.5"/>
<polygon fill="black" stroke="black" points="176.25,-43 166.25,-46.5 176.25,-50 176.25,-43"/>
</g>
<!-- Node5 -->
<g id="Node000005" class="node">
<title>Node5</title>
<g id="a_Node000005"><a xlink:href="group__api-core-util-uuid.html" target="_top" xlink:title=" ">
<polygon fill="white" stroke="#666666" points="267.5,-19 225.5,-19 225.5,0 267.5,0 267.5,-19"/>
<text text-anchor="middle" x="246.5" y="-7" font-family="Helvetica,sans-Serif" font-size="10.00">UUID</text>
</a>
</g>
</g>
<!-- Node1&#45;&gt;Node5 -->
<g id="edge4" class="edge">
<title>Node1&#45;&gt;Node5</title>
<path fill="none" stroke="black" d="M175.7,-33.86C192.34,-28.06 211.44,-21.39 225.45,-16.5"/>
<polygon fill="black" stroke="black" points="174.54,-30.56 166.25,-37.16 176.84,-37.17 174.54,-30.56"/>
</g>
</g>
</svg>
