<?xml version="1.0" encoding="UTF-8" standalone="no"?>
<!DOCTYPE svg PUBLIC "-//W3C//DTD SVG 1.1//EN"
 "http://www.w3.org/Graphics/SVG/1.1/DTD/svg11.dtd">
<!-- Generated by graphviz version 2.43.0 (0)
 -->
<!-- Title: Utilities Pages: 1 -->
<svg width="325pt" height="483pt"
 viewBox="0.00 0.00 325.00 482.50" xmlns="http://www.w3.org/2000/svg" xmlns:xlink="http://www.w3.org/1999/xlink">
<g id="graph0" class="graph" transform="scale(1 1) rotate(0) translate(4 478.5)">
<title>Utilities</title>
<!-- Node2 -->
<g id="Node000002" class="node">
<title>Node2</title>
<g id="a_Node000002"><a xlink:href="group__api-core.html" target="_top" xlink:title=" ">
<polygon fill="white" stroke="#666666" points="67,-241 0,-241 0,-222 67,-222 67,-241"/>
<text text-anchor="middle" x="33.5" y="-229" font-family="Helvetica,sans-Serif" font-size="10.00">Core library</text>
</a>
</g>
</g>
<!-- Node1 -->
<g id="Node000001" class="node">
<title>Node1</title>
<g id="a_Node000001"><a xlink:title="General purpose utilities.">
<polygon fill="#999999" stroke="#666666" points="153,-241 103,-241 103,-222 153,-222 153,-241"/>
<text text-anchor="middle" x="128" y="-229" font-family="Helvetica,sans-Serif" font-size="10.00">Utilities</text>
</a>
</g>
</g>
<!-- Node2&#45;&gt;Node1 -->
<g id="edge1" class="edge">
<title>Node2&#45;&gt;Node1</title>
<path fill="none" stroke="black" d="M77.26,-231.5C86.04,-231.5 94.98,-231.5 102.82,-231.5"/>
<polygon fill="black" stroke="black" points="77.11,-228 67.11,-231.5 77.11,-235 77.11,-228"/>
</g>
<!-- Node3 -->
<g id="Node000003" class="node">
<title>Node3</title>
<g id="a_Node000003"><a xlink:href="group__api-core-util-bit.html" target="_top" xlink:title=" ">
<polygon fill="white" stroke="#666666" points="317,-474.5 189,-474.5 189,-444.5 317,-444.5 317,-474.5"/>
<text text-anchor="start" x="197" y="-462.5" font-family="Helvetica,sans-Serif" font-size="10.00">Bit&#45;packing and &#45;twiddling</text>
<text text-anchor="middle" x="253" y="-451.5" font-family="Helvetica,sans-Serif" font-size="10.00"> utilities</text>
</a>
</g>
</g>
<!-- Node1&#45;&gt;Node3 -->
<g id="edge2" class="edge">
<title>Node1&#45;&gt;Node3</title>
<path fill="none" stroke="black" d="M129.24,-251.05C130.79,-290.92 139.84,-382.35 189,-435.5 192.18,-438.94 195.9,-441.89 199.92,-444.42"/>
<polygon fill="black" stroke="black" points="132.74,-250.94 128.98,-241.04 125.74,-251.13 132.74,-250.94"/>
</g>
<!-- Node4 -->
<g id="Node000004" class="node">
<title>Node4</title>
<g id="a_Node000004"><a xlink:href="group__api-core-util-chrono.html" target="_top" xlink:title=" ">
<polygon fill="white" stroke="#666666" points="289,-426 217,-426 217,-407 289,-407 289,-426"/>
<text text-anchor="middle" x="253" y="-414" font-family="Helvetica,sans-Serif" font-size="10.00">Time utilities</text>
</a>
</g>
</g>
<!-- Node1&#45;&gt;Node4 -->
<g id="edge3" class="edge">
<title>Node1&#45;&gt;Node4</title>
<path fill="none" stroke="black" d="M130.41,-251.34C133.96,-286.22 146.35,-358.6 189,-398.5 196.64,-405.65 206.93,-409.98 216.97,-412.61"/>
<polygon fill="black" stroke="black" points="133.87,-250.71 129.51,-241.05 126.89,-251.32 133.87,-250.71"/>
</g>
<!-- Node5 -->
<g id="Node000005" class="node">
<title>Node5</title>
<g id="a_Node000005"><a xlink:href="group__api-core-util-debug.html" target="_top" xlink:title=" ">
<polygon fill="white" stroke="#666666" points="292.5,-389 213.5,-389 213.5,-370 292.5,-370 292.5,-389"/>
<text text-anchor="middle" x="253" y="-377" font-family="Helvetica,sans-Serif" font-size="10.00">Debug utilities</text>
</a>
</g>
</g>
<!-- Node1&#45;&gt;Node5 -->
<g id="edge4" class="edge">
<title>Node1&#45;&gt;Node5</title>
<path fill="none" stroke="black" d="M132.73,-251.33C139.14,-279.89 155,-332.38 189,-361.5 195.91,-367.42 204.65,-371.4 213.41,-374.07"/>
<polygon fill="black" stroke="black" points="136.11,-250.41 130.65,-241.33 129.26,-251.83 136.11,-250.41"/>
</g>
<!-- Node6 -->
<g id="Node000006" class="node">
<title>Node6</title>
<g id="a_Node000006"><a xlink:href="group__api-core-util-develop.html" target="_top" xlink:title=" ">
<polygon fill="white" stroke="#666666" points="307,-352 199,-352 199,-333 307,-333 307,-352"/>
<text text-anchor="middle" x="253" y="-340" font-family="Helvetica,sans-Serif" font-size="10.00">Development utilities</text>
</a>
</g>
</g>
<!-- Node1&#45;&gt;Node6 -->
<g id="edge5" class="edge">
<title>Node1&#45;&gt;Node6</title>
<path fill="none" stroke="black" d="M136.4,-250.55C145.58,-271.71 163.25,-305.41 189,-324.5 193.57,-327.89 198.76,-330.64 204.15,-332.87"/>
<polygon fill="black" stroke="black" points="139.52,-248.93 132.47,-241.02 133.05,-251.6 139.52,-248.93"/>
</g>
<!-- Node7 -->
<g id="Node000007" class="node">
<title>Node7</title>
<g id="a_Node000007"><a xlink:href="group__api-core-util-endian.html" target="_top" xlink:title=" ">
<polygon fill="white" stroke="#666666" points="306.5,-315 199.5,-315 199.5,-296 306.5,-296 306.5,-315"/>
<text text-anchor="middle" x="253" y="-303" font-family="Helvetica,sans-Serif" font-size="10.00">Endianness handling</text>
</a>
</g>
</g>
<!-- Node1&#45;&gt;Node7 -->
<g id="edge6" class="edge">
<title>Node1&#45;&gt;Node7</title>
<path fill="none" stroke="black" d="M143.77,-249.16C155,-261.54 171.46,-277.59 189,-287.5 194.94,-290.86 201.56,-293.63 208.21,-295.91"/>
<polygon fill="black" stroke="black" points="146.1,-246.52 136.88,-241.3 140.84,-251.13 146.1,-246.52"/>
</g>
<!-- Node8 -->
<g id="Node000008" class="node">
<title>Node8</title>
<g id="a_Node000008"><a xlink:href="group__api-core-util-events.html" target="_top" xlink:title=" ">
<polygon fill="white" stroke="#666666" points="293.5,-278 212.5,-278 212.5,-259 293.5,-259 293.5,-278"/>
<text text-anchor="middle" x="253" y="-266" font-family="Helvetica,sans-Serif" font-size="10.00">Event handling</text>
</a>
</g>
</g>
<!-- Node1&#45;&gt;Node8 -->
<g id="edge7" class="edge">
<title>Node1&#45;&gt;Node8</title>
<path fill="none" stroke="black" d="M162.83,-242.4C171.36,-245.09 180.5,-247.94 189,-250.5 198.37,-253.32 208.55,-256.28 217.94,-258.96"/>
<polygon fill="black" stroke="black" points="163.77,-239.02 153.18,-239.33 161.65,-245.7 163.77,-239.02"/>
</g>
<!-- Node9 -->
<g id="Node000009" class="node">
<title>Node9</title>
<g id="a_Node000009"><a xlink:href="group__api-core-util-filesystem.html" target="_top" xlink:title=" ">
<polygon fill="white" stroke="#666666" points="299,-241 207,-241 207,-222 299,-222 299,-241"/>
<text text-anchor="middle" x="253" y="-229" font-family="Helvetica,sans-Serif" font-size="10.00">File&#45;system tools</text>
</a>
</g>
</g>
<!-- Node1&#45;&gt;Node9 -->
<g id="edge8" class="edge">
<title>Node1&#45;&gt;Node9</title>
<path fill="none" stroke="black" d="M163.25,-231.5C176.68,-231.5 192.29,-231.5 206.64,-231.5"/>
<polygon fill="black" stroke="black" points="163.01,-228 153.01,-231.5 163.01,-235 163.01,-228"/>
</g>
<!-- Node10 -->
<g id="Node000010" class="node">
<title>Node10</title>
<g id="a_Node000010"><a xlink:href="group__api-core-util-macro.html" target="_top" xlink:title="Preprocessor macros for various purposes (such as &quot;stringification&quot;).">
<polygon fill="white" stroke="#666666" points="291.5,-204 214.5,-204 214.5,-185 291.5,-185 291.5,-204"/>
<text text-anchor="middle" x="253" y="-192" font-family="Helvetica,sans-Serif" font-size="10.00">Macro utilities</text>
</a>
</g>
</g>
<!-- Node1&#45;&gt;Node10 -->
<g id="edge9" class="edge">
<title>Node1&#45;&gt;Node10</title>
<path fill="none" stroke="black" d="M162.76,-221.35C180.66,-215.96 202.53,-209.38 220.13,-204.09"/>
<polygon fill="black" stroke="black" points="161.58,-218.05 153.01,-224.28 163.59,-224.75 161.58,-218.05"/>
</g>
<!-- Node11 -->
<g id="Node000011" class="node">
<title>Node11</title>
<g id="a_Node000011"><a xlink:href="group__api-core-util-shared.html" target="_top" xlink:title=" ">
<polygon fill="white" stroke="#666666" points="311,-167 195,-167 195,-148 311,-148 311,-167"/>
<text text-anchor="middle" x="253" y="-155" font-family="Helvetica,sans-Serif" font-size="10.00">Shared data structures</text>
</a>
</g>
</g>
<!-- Node1&#45;&gt;Node11 -->
<g id="edge10" class="edge">
<title>Node1&#45;&gt;Node11</title>
<path fill="none" stroke="black" d="M143.87,-214.24C155.15,-202.12 171.64,-186.38 189,-176.5 195.65,-172.71 203.14,-169.61 210.56,-167.09"/>
<polygon fill="black" stroke="black" points="141.04,-212.16 136.95,-221.93 146.24,-216.84 141.04,-212.16"/>
</g>
<!-- Node12 -->
<g id="Node000012" class="node">
<title>Node12</title>
<g id="a_Node000012"><a xlink:href="group__api-core-util-status.html" target="_top" xlink:title=" ">
<polygon fill="white" stroke="#666666" points="305,-130 201,-130 201,-111 305,-111 305,-130"/>
<text text-anchor="middle" x="253" y="-118" font-family="Helvetica,sans-Serif" font-size="10.00">Program flow status</text>
</a>
</g>
</g>
<!-- Node1&#45;&gt;Node12 -->
<g id="edge11" class="edge">
<title>Node1&#45;&gt;Node12</title>
<path fill="none" stroke="black" d="M136.65,-212.4C145.97,-191.51 163.67,-158.47 189,-139.5 194.21,-135.6 200.23,-132.49 206.43,-130.02"/>
<polygon fill="black" stroke="black" points="133.33,-211.26 132.64,-221.83 139.77,-213.99 133.33,-211.26"/>
</g>
<!-- Node13 -->
<g id="Node000013" class="node">
<title>Node13</title>
<g id="a_Node000013"><a xlink:href="group__api-core-util-uuid.html" target="_top" xlink:title=" ">
<polygon fill="white" stroke="#666666" points="274,-93 232,-93 232,-74 274,-74 274,-93"/>
<text text-anchor="middle" x="253" y="-81" font-family="Helvetica,sans-Serif" font-size="10.00">UUID</text>
</a>
</g>
</g>
<!-- Node1&#45;&gt;Node13 -->
<g id="edge12" class="edge">
<title>Node1&#45;&gt;Node13</title>
<path fill="none" stroke="black" d="M132.83,-211.89C139.37,-183.62 155.39,-131.64 189,-102.5 200.91,-92.17 218.29,-87.46 231.78,-85.31"/>
<polygon fill="black" stroke="black" points="129.38,-211.27 130.71,-221.78 136.23,-212.74 129.38,-211.27"/>
</g>
<!-- Node14 -->
<g id="Node000014" class="node">
<title>Node14</title>
<g id="a_Node000014"><a xlink:href="group__api-core-util-variant.html" target="_top" xlink:title=" ">
<polygon fill="white" stroke="#666666" points="279,-56 227,-56 227,-37 279,-37 279,-56"/>
<text text-anchor="middle" x="253" y="-44" font-family="Helvetica,sans-Serif" font-size="10.00">Variants</text>
</a>
</g>
</g>
<!-- Node1&#45;&gt;Node14 -->
<g id="edge13" class="edge">
<title>Node1&#45;&gt;Node14</title>
<path fill="none" stroke="black" d="M130.56,-211.35C134.33,-176.58 147.03,-105.27 189,-65.5 199.2,-55.84 214.14,-51.07 226.91,-48.73"/>
<polygon fill="black" stroke="black" points="127.04,-211.35 129.59,-221.63 134.01,-212.01 127.04,-211.35"/>
</g>
<!-- Node15 -->
<g id="Node000015" class="node">
<title>Node15</title>
<g id="a_Node000015"><a xlink:href="group__api-core-util-version.html" target="_top" xlink:title=" ">
<polygon fill="white" stroke="#666666" points="297.5,-19 208.5,-19 208.5,0 297.5,0 297.5,-19"/>
<text text-anchor="middle" x="253" y="-7" font-family="Helvetica,sans-Serif" font-size="10.00">Version handling</text>
</a>
</g>
</g>
<!-- Node1&#45;&gt;Node15 -->
<g id="edge14" class="edge">
<title>Node1&#45;&gt;Node15</title>
<path fill="none" stroke="black" d="M128.97,-211.75C130.01,-171.53 138.18,-79.6 189,-28.5 194.32,-23.15 201.08,-19.3 208.19,-16.53"/>
<polygon fill="black" stroke="black" points="125.47,-211.81 128.84,-221.86 132.47,-211.91 125.47,-211.81"/>
</g>
</g>
</svg>
