<?xml version="1.0" encoding="UTF-8" standalone="no"?>
<!DOCTYPE svg PUBLIC "-//W3C//DTD SVG 1.1//EN"
 "http://www.w3.org/Graphics/SVG/1.1/DTD/svg11.dtd">
<!-- Generated by graphviz version 2.43.0 (0)
 -->
<!-- Title: Core library. Pages: 1 -->
<svg width="345pt" height="175pt"
 viewBox="0.00 0.00 345.00 175.00" xmlns="http://www.w3.org/2000/svg" xmlns:xlink="http://www.w3.org/1999/xlink">
<g id="graph0" class="graph" transform="scale(1 1) rotate(0) translate(4 171)">
<title>Core library.</title>
<!-- Node2 -->
<g id="Node000002" class="node">
<title>Node2</title>
<g id="a_Node000002"><a xlink:href="group__api.html" target="_top" xlink:title=" ">
<polygon fill="white" stroke="#666666" points="59,-93 0,-93 0,-74 59,-74 59,-93"/>
<text text-anchor="middle" x="29.5" y="-81" font-family="Helvetica,sans-Serif" font-size="10.00">C++&#45;API</text>
</a>
</g>
</g>
<!-- Node1 -->
<g id="Node000001" class="node">
<title>Node1</title>
<g id="a_Node000001"><a xlink:title=" ">
<polygon fill="#999999" stroke="#666666" points="170,-93 95,-93 95,-74 170,-74 170,-93"/>
<text text-anchor="middle" x="132.5" y="-81" font-family="Helvetica,sans-Serif" font-size="10.00">Core library.</text>
</a>
</g>
</g>
<!-- Node2&#45;&gt;Node1 -->
<g id="edge1" class="edge">
<title>Node2&#45;&gt;Node1</title>
<path fill="none" stroke="black" d="M69.43,-83.5C77.77,-83.5 86.56,-83.5 94.81,-83.5"/>
<polygon fill="black" stroke="black" points="69.17,-80 59.17,-83.5 69.17,-87 69.17,-80"/>
</g>
<!-- Node7 -->
<g id="Node000007" class="node">
<title>Node7</title>
<g id="a_Node000007"><a xlink:href="group__api-core-details.html" target="_top" xlink:title=" ">
<polygon fill="white" stroke="#666666" points="337,-167 206,-167 206,-148 337,-148 337,-167"/>
<text text-anchor="middle" x="271.5" y="-155" font-family="Helvetica,sans-Serif" font-size="10.00">Implementation details</text>
</a>
</g>
</g>
<!-- Node1&#45;&gt;Node7 -->
<g id="edge6" class="edge">
<title>Node1&#45;&gt;Node7</title>
<path fill="none" stroke="black" d="M150.81,-100.01C164.74,-112.46 185.32,-129.13 206,-139.5 212.65,-142.84 220.01,-145.63 227.3,-147.94"/>
<polygon fill="black" stroke="black" points="153.17,-97.42 143.44,-93.24 148.44,-102.58 153.17,-97.42"/>
</g>
<!-- Node3 -->
<g id="Node000003" class="node">
<title>Node3</title>
<g id="a_Node000003"><a xlink:href="group__api-core-exception.html" target="_top" xlink:title=" ">
<polygon fill="white" stroke="#666666" points="332.5,-130 210.5,-130 210.5,-111 332.5,-111 332.5,-130"/>
<text text-anchor="middle" x="271.5" y="-118" font-family="Helvetica,sans-Serif" font-size="10.00">Errors and exceptions</text>
</a>
</g>
</g>
<!-- Node1&#45;&gt;Node3 -->
<g id="edge2" class="edge">
<title>Node1&#45;&gt;Node3</title>
<path fill="none" stroke="black" d="M178.63,-95.69C196.9,-100.62 217.69,-106.24 234.86,-110.88"/>
<polygon fill="black" stroke="black" points="179.35,-92.26 168.78,-93.03 177.52,-99.01 179.35,-92.26"/>
</g>
<!-- Node5 -->
<g id="Node000005" class="node">
<title>Node5</title>
<g id="a_Node000005"><a xlink:href="group__api-core-plugin.html" target="_top" xlink:title=" ">
<polygon fill="white" stroke="#666666" points="297.5,-93 245.5,-93 245.5,-74 297.5,-74 297.5,-93"/>
<text text-anchor="middle" x="271.5" y="-81" font-family="Helvetica,sans-Serif" font-size="10.00">Plugins</text>
</a>
</g>
</g>
<!-- Node1&#45;&gt;Node5 -->
<g id="edge4" class="edge">
<title>Node1&#45;&gt;Node5</title>
<path fill="none" stroke="black" d="M180.29,-83.5C202.11,-83.5 227.21,-83.5 245.39,-83.5"/>
<polygon fill="black" stroke="black" points="180.21,-80 170.21,-83.5 180.21,-87 180.21,-80"/>
</g>
<!-- Node4 -->
<g id="Node000004" class="node">
<title>Node4</title>
<g id="a_Node000004"><a xlink:href="group__api-core-storage.html" target="_top" xlink:title=" ">
<polygon fill="white" stroke="#666666" points="298.5,-56 244.5,-56 244.5,-37 298.5,-37 298.5,-56"/>
<text text-anchor="middle" x="271.5" y="-44" font-family="Helvetica,sans-Serif" font-size="10.00">Storage</text>
</a>
</g>
</g>
<!-- Node1&#45;&gt;Node4 -->
<g id="edge3" class="edge">
<title>Node1&#45;&gt;Node4</title>
<path fill="none" stroke="black" d="M178.52,-71.34C200.37,-65.44 225.84,-58.56 244.43,-53.54"/>
<polygon fill="black" stroke="black" points="177.52,-67.99 168.78,-73.97 179.35,-74.74 177.52,-67.99"/>
</g>
<!-- Node6 -->
<g id="Node000006" class="node">
<title>Node6</title>
<g id="a_Node000006"><a xlink:href="group__api-core-util.html" target="_top" xlink:title=" ">
<polygon fill="white" stroke="#666666" points="299,-19 244,-19 244,0 299,0 299,-19"/>
<text text-anchor="middle" x="271.5" y="-7" font-family="Helvetica,sans-Serif" font-size="10.00">Utilities</text>
</a>
</g>
</g>
<!-- Node1&#45;&gt;Node6 -->
<g id="edge5" class="edge">
<title>Node1&#45;&gt;Node6</title>
<path fill="none" stroke="black" d="M151.78,-66.62C165.73,-54.53 185.91,-38.65 206,-28.5 217.88,-22.5 231.97,-18.08 243.94,-15.01"/>
<polygon fill="black" stroke="black" points="149.11,-64.32 143.96,-73.58 153.76,-69.55 149.11,-64.32"/>
</g>
</g>
</svg>
