<?xml version="1.0" encoding="UTF-8" standalone="no"?>
<!DOCTYPE svg PUBLIC "-//W3C//DTD SVG 1.1//EN"
 "http://www.w3.org/Graphics/SVG/1.1/DTD/svg11.dtd">
<!-- Generated by graphviz version 2.43.0 (0)
 -->
<!-- Title: Core library. Pages: 1 -->
<svg width="348pt" height="175pt"
 viewBox="0.00 0.00 348.00 175.00" xmlns="http://www.w3.org/2000/svg" xmlns:xlink="http://www.w3.org/1999/xlink">

<svg id="main" version="1.1" xmlns="http://www.w3.org/2000/svg" xmlns:xlink="http://www.w3.org/1999/xlink" xml:space="preserve" onload="init(evt)">
<style type="text/css"><![CDATA[
.node, .edge {opacity: 0.7;}
.node.selected, .edge.selected {opacity: 1;}
.edge:hover path { stroke: red; }
.edge:hover polygon { stroke: red; fill: red; }
]]></style>
<script type="application/ecmascript" xlink:href="svg.min.js"/>
<svg id="graph" class="graph">
<g id="graph0" class="graph" transform="scale(1 1) rotate(0) translate(4 171)">
<title>Core library.</title>
<!-- Node2 -->
<g id="Node000002" class="node">
<title>Node2</title>
<g id="a_Node000002"><a xlink:href="group__api.html" target="_top" xlink:title=" ">
<polygon fill="white" stroke="#666666" points="59,-93 0,-93 0,-74 59,-74 59,-93"/>
<text text-anchor="middle" x="29.5" y="-81" font-family="Helvetica,sans-Serif" font-size="10.00">C++&#45;API</text>
</a>
</g>
</g>
<!-- Node1 -->
<g id="Node000001" class="node">
<title>Node1</title>
<g id="a_Node000001"><a xlink:title=" ">
<polygon fill="#999999" stroke="#666666" points="170,-93 95,-93 95,-74 170,-74 170,-93"/>
<text text-anchor="middle" x="132.5" y="-81" font-family="Helvetica,sans-Serif" font-size="10.00">Core library.</text>
</a>
</g>
</g>
<!-- Node2&#45;&gt;Node1 -->
<g id="edge1" class="edge">
<title>Node2&#45;&gt;Node1</title>
<path fill="none" stroke="black" d="M69.43,-83.5C77.77,-83.5 86.56,-83.5 94.81,-83.5"/>
<polygon fill="black" stroke="black" points="69.17,-80 59.17,-83.5 69.17,-87 69.17,-80"/>
</g>
<!-- Node7 -->
<g id="Node000007" class="node">
<title>Node7</title>
<g id="a_Node000007"><a xlink:href="group__api-core-details.html" target="_top" xlink:title=" ">
<polygon fill="white" stroke="#666666" points="340,-167 206,-167 206,-148 340,-148 340,-167"/>
<text text-anchor="middle" x="273" y="-155" font-family="Helvetica,sans-Serif" font-size="10.00">Implementation details.</text>
</a>
</g>
</g>
<!-- Node1&#45;&gt;Node7 -->
<g id="edge6" class="edge">
<title>Node1&#45;&gt;Node7</title>
<path fill="none" stroke="black" d="M150.8,-100.04C164.71,-112.52 185.29,-129.19 206,-139.5 212.7,-142.84 220.1,-145.62 227.45,-147.92"/>
<polygon fill="black" stroke="black" points="153.15,-97.45 143.43,-93.26 148.42,-102.61 153.15,-97.45"/>
</g>
<!-- Node3 -->
<g id="Node000003" class="node">
<title>Node3</title>
<g id="a_Node000003"><a xlink:href="group__api-core-exception.html" target="_top" xlink:title=" ">
<polygon fill="white" stroke="#666666" points="335.5,-130 210.5,-130 210.5,-111 335.5,-111 335.5,-130"/>
<text text-anchor="middle" x="273" y="-118" font-family="Helvetica,sans-Serif" font-size="10.00">Errors and exceptions.</text>
</a>
</g>
</g>
<!-- Node1&#45;&gt;Node3 -->
<g id="edge2" class="edge">
<title>Node1&#45;&gt;Node3</title>
<path fill="none" stroke="black" d="M178.87,-95.62C197.4,-100.57 218.53,-106.22 235.97,-110.88"/>
<polygon fill="black" stroke="black" points="179.73,-92.23 169.17,-93.03 177.93,-98.99 179.73,-92.23"/>
</g>
<!-- Node4 -->
<g id="Node000004" class="node">
<title>Node4</title>
<g id="a_Node000004"><a xlink:href="group__api-core-memory.html" target="_top" xlink:title=" ">
<polygon fill="white" stroke="#666666" points="322.5,-93 223.5,-93 223.5,-74 322.5,-74 322.5,-93"/>
<text text-anchor="middle" x="273" y="-81" font-family="Helvetica,sans-Serif" font-size="10.00">Memory hanling.</text>
</a>
</g>
</g>
<!-- Node1&#45;&gt;Node4 -->
<g id="edge3" class="edge">
<title>Node1&#45;&gt;Node4</title>
<path fill="none" stroke="black" d="M180.51,-83.5C194.31,-83.5 209.43,-83.5 223.33,-83.5"/>
<polygon fill="black" stroke="black" points="180.25,-80 170.25,-83.5 180.25,-87 180.25,-80"/>
</g>
<!-- Node5 -->
<g id="Node000005" class="node">
<title>Node5</title>
<g id="a_Node000005"><a xlink:href="group__api-core-plugin.html" target="_top" xlink:title=" ">
<polygon fill="white" stroke="#666666" points="300.5,-56 245.5,-56 245.5,-37 300.5,-37 300.5,-56"/>
<text text-anchor="middle" x="273" y="-44" font-family="Helvetica,sans-Serif" font-size="10.00">Plugins.</text>
</a>
</g>
</g>
<!-- Node1&#45;&gt;Node5 -->
<g id="edge4" class="edge">
<title>Node1&#45;&gt;Node5</title>
<path fill="none" stroke="black" d="M178.95,-71.36C200.88,-65.5 226.43,-58.67 245.2,-53.66"/>
<polygon fill="black" stroke="black" points="177.93,-68.01 169.17,-73.97 179.73,-74.77 177.93,-68.01"/>
</g>
<!-- Node6 -->
<g id="Node000006" class="node">
<title>Node6</title>
<g id="a_Node000006"><a xlink:href="group__api-core-util.html" target="_top" xlink:title=" ">
<polygon fill="white" stroke="#666666" points="302,-19 244,-19 244,0 302,0 302,-19"/>
<text text-anchor="middle" x="273" y="-7" font-family="Helvetica,sans-Serif" font-size="10.00">Utilities.</text>
</a>
</g>
</g>
<!-- Node1&#45;&gt;Node6 -->
<g id="edge5" class="edge">
<title>Node1&#45;&gt;Node6</title>
<path fill="none" stroke="black" d="M151.28,-67.01C165.24,-54.84 185.65,-38.7 206,-28.5 217.83,-22.57 231.81,-18.21 243.85,-15.17"/>
<polygon fill="black" stroke="black" points="148.61,-64.7 143.49,-73.98 153.27,-69.92 148.61,-64.7"/>
</g>
</g>
</svg>
</svg>

<style type='text/css'>
<![CDATA[
[data-mouse-over-selected='false'] { opacity: 0.7; }
[data-mouse-over-selected='true']  { opacity: 1.0; }
]]>
</style>
<script type="application/ecmascript"><![CDATA[
document.addEventListener('DOMContentLoaded', (event) => {
  highlightEdges();
  highlightAdjacentNodes();
});
]]></script>
</svg>
