<?xml version="1.0" encoding="UTF-8" standalone="no"?>
<!DOCTYPE svg PUBLIC "-//W3C//DTD SVG 1.1//EN"
 "http://www.w3.org/Graphics/SVG/1.1/DTD/svg11.dtd">
<!-- Generated by graphviz version 2.43.0 (0)
 -->
<!-- Title: Core library Pages: 1 -->
<svg width="318pt" height="446pt"
 viewBox="0.00 0.00 318.00 446.00" xmlns="http://www.w3.org/2000/svg" xmlns:xlink="http://www.w3.org/1999/xlink">

<svg id="main" version="1.1" xmlns="http://www.w3.org/2000/svg" xmlns:xlink="http://www.w3.org/1999/xlink" xml:space="preserve">

<style type="text/css"><![CDATA[
.node, .edge {opacity: 0.7;}
.node.selected, .edge.selected {opacity: 1;}
.edge:hover path { stroke: red; }
.edge:hover polygon { stroke: red; fill: red; }
]]></style>
<script type="application/ecmascript" xlink:href="svg.min.js"/>
<svg id="graph" class="graph">
<g id="graph0" class="graph" transform="scale(1 1) rotate(0) translate(4 442)">
<title>Core library</title>
<!-- Node2 -->
<g id="Node000002" class="node">
<title>Node2</title>
<g id="a_Node000002"><a xlink:href="group__api.html" target="_top" xlink:title="The C++ application programming interface.">
<polygon fill="white" stroke="#666666" points="56,-234 0,-234 0,-215 56,-215 56,-234"/>
<text text-anchor="middle" x="28" y="-222" font-family="Helvetica,sans-Serif" font-size="10.00">C++&#45;API</text>
</a>
</g>
</g>
<!-- Node1 -->
<g id="Node000001" class="node">
<title>Node1</title>
<g id="a_Node000001"><a xlink:title=" ">
<polygon fill="#999999" stroke="#666666" points="159,-234 92,-234 92,-215 159,-215 159,-234"/>
<text text-anchor="middle" x="125.5" y="-222" font-family="Helvetica,sans-Serif" font-size="10.00">Core library</text>
</a>
</g>
</g>
<!-- Node2&#45;&gt;Node1 -->
<g id="edge1" class="edge">
<title>Node2&#45;&gt;Node1</title>
<path fill="none" stroke="black" d="M66.16,-224.5C74.65,-224.5 83.61,-224.5 91.9,-224.5"/>
<polygon fill="black" stroke="black" points="66.11,-221 56.11,-224.5 66.11,-228 66.11,-221"/>
</g>
<!-- Node11 -->
<g id="Node000011" class="node">
<title>Node11</title>
<g id="a_Node000011"><a xlink:href="group__api-core-cpp.html" target="_top" xlink:title=" ">
<polygon fill="white" stroke="#666666" points="299.5,-438 205.5,-438 205.5,-419 299.5,-419 299.5,-438"/>
<text text-anchor="middle" x="252.5" y="-426" font-family="Helvetica,sans-Serif" font-size="10.00">C++ compatibility</text>
</a>
</g>
</g>
<!-- Node1&#45;&gt;Node11 -->
<g id="edge10" class="edge">
<title>Node1&#45;&gt;Node11</title>
<path fill="none" stroke="black" d="M128.18,-244.39C132.44,-282.16 147,-364.59 195,-410.5 198.57,-413.92 202.79,-416.68 207.29,-418.93"/>
<polygon fill="black" stroke="black" points="131.64,-243.8 127.17,-234.19 124.67,-244.49 131.64,-243.8"/>
</g>
<!-- Node14 -->
<g id="Node000014" class="node">
<title>Node14</title>
<g id="a_Node000014"><a xlink:href="group__api-core-details.html" target="_top" xlink:title=" ">
<polygon fill="white" stroke="#666666" points="310,-401 195,-401 195,-382 310,-382 310,-401"/>
<text text-anchor="middle" x="252.5" y="-389" font-family="Helvetica,sans-Serif" font-size="10.00">Implementation details</text>
</a>
</g>
</g>
<!-- Node1&#45;&gt;Node14 -->
<g id="edge13" class="edge">
<title>Node1&#45;&gt;Node14</title>
<path fill="none" stroke="black" d="M130.16,-243.93C137.13,-275.62 155.32,-338.41 195,-373.5 198.86,-376.91 203.36,-379.67 208.11,-381.92"/>
<polygon fill="black" stroke="black" points="133.58,-243.2 128.14,-234.11 126.73,-244.61 133.58,-243.2"/>
</g>
<!-- Node3 -->
<g id="Node000003" class="node">
<title>Node3</title>
<g id="a_Node000003"><a xlink:href="group__api-core-exception.html" target="_top" xlink:title=" ">
<polygon fill="white" stroke="#666666" points="308.5,-364 196.5,-364 196.5,-345 308.5,-345 308.5,-364"/>
<text text-anchor="middle" x="252.5" y="-352" font-family="Helvetica,sans-Serif" font-size="10.00">Errors and exceptions</text>
</a>
</g>
</g>
<!-- Node1&#45;&gt;Node3 -->
<g id="edge2" class="edge">
<title>Node1&#45;&gt;Node3</title>
<path fill="none" stroke="black" d="M133.31,-243.65C143.13,-268.58 163.62,-311.88 195,-336.5 199.37,-339.93 204.42,-342.72 209.65,-344.97"/>
<polygon fill="black" stroke="black" points="136.55,-242.32 129.75,-234.19 130,-244.79 136.55,-242.32"/>
</g>
<!-- Node4 -->
<g id="Node000004" class="node">
<title>Node4</title>
<g id="a_Node000004"><a xlink:href="group__api-core-log.html" target="_top" xlink:title=" ">
<polygon fill="white" stroke="#666666" points="277.5,-327 227.5,-327 227.5,-308 277.5,-308 277.5,-327"/>
<text text-anchor="middle" x="252.5" y="-315" font-family="Helvetica,sans-Serif" font-size="10.00">Logging</text>
</a>
</g>
</g>
<!-- Node1&#45;&gt;Node4 -->
<g id="edge3" class="edge">
<title>Node1&#45;&gt;Node4</title>
<path fill="none" stroke="black" d="M138.67,-242.52C151,-259.5 171.57,-284.5 195,-299.5 204.8,-305.77 216.95,-310.02 227.48,-312.8"/>
<polygon fill="black" stroke="black" points="141.31,-240.2 132.69,-234.03 135.58,-244.23 141.31,-240.2"/>
</g>
<!-- Node5 -->
<g id="Node000005" class="node">
<title>Node5</title>
<g id="a_Node000005"><a xlink:href="group__api-core-memory.html" target="_top" xlink:title=" ">
<polygon fill="white" stroke="#666666" points="278.5,-290 226.5,-290 226.5,-271 278.5,-271 278.5,-290"/>
<text text-anchor="middle" x="252.5" y="-278" font-family="Helvetica,sans-Serif" font-size="10.00">Memory</text>
</a>
</g>
</g>
<!-- Node1&#45;&gt;Node5 -->
<g id="edge4" class="edge">
<title>Node1&#45;&gt;Node5</title>
<path fill="none" stroke="black" d="M150.28,-239.22C163.2,-246.82 179.63,-255.87 195,-262.5 205.02,-266.82 216.43,-270.65 226.36,-273.66"/>
<polygon fill="black" stroke="black" points="151.94,-236.14 141.57,-234 148.34,-242.14 151.94,-236.14"/>
</g>
<!-- Node12 -->
<g id="Node000012" class="node">
<title>Node12</title>
<g id="a_Node000012"><a xlink:href="group__api-core-os.html" target="_top" xlink:title=" ">
<polygon fill="white" stroke="#666666" points="285,-253 220,-253 220,-234 285,-234 285,-253"/>
<text text-anchor="middle" x="252.5" y="-241" font-family="Helvetica,sans-Serif" font-size="10.00">OS utilities</text>
</a>
</g>
</g>
<!-- Node1&#45;&gt;Node12 -->
<g id="edge11" class="edge">
<title>Node1&#45;&gt;Node12</title>
<path fill="none" stroke="black" d="M169.01,-230.96C185.56,-233.48 204.21,-236.31 219.58,-238.65"/>
<polygon fill="black" stroke="black" points="169.43,-227.48 159.02,-229.44 168.38,-234.41 169.43,-227.48"/>
</g>
<!-- Node9 -->
<g id="Node000009" class="node">
<title>Node9</title>
<g id="a_Node000009"><a xlink:href="group__api-core-plugin.html" target="_top" xlink:title=" ">
<polygon fill="white" stroke="#666666" points="277,-216 228,-216 228,-197 277,-197 277,-216"/>
<text text-anchor="middle" x="252.5" y="-204" font-family="Helvetica,sans-Serif" font-size="10.00">Plugins</text>
</a>
</g>
</g>
<!-- Node1&#45;&gt;Node9 -->
<g id="edge8" class="edge">
<title>Node1&#45;&gt;Node9</title>
<path fill="none" stroke="black" d="M168.98,-218.38C188.64,-215.55 211.26,-212.3 227.83,-209.91"/>
<polygon fill="black" stroke="black" points="168.41,-214.93 159.02,-219.82 169.41,-221.86 168.41,-214.93"/>
</g>
<!-- Node13 -->
<g id="Node000013" class="node">
<title>Node13</title>
<g id="a_Node000013"><a xlink:href="group__api-core-program.html" target="_top" xlink:title=" ">
<polygon fill="white" stroke="#666666" points="303,-178.5 202,-178.5 202,-148.5 303,-148.5 303,-178.5"/>
<text text-anchor="start" x="210" y="-166.5" font-family="Helvetica,sans-Serif" font-size="10.00">Program invocation</text>
<text text-anchor="middle" x="252.5" y="-155.5" font-family="Helvetica,sans-Serif" font-size="10.00"> and tools</text>
</a>
</g>
</g>
<!-- Node1&#45;&gt;Node13 -->
<g id="edge12" class="edge">
<title>Node1&#45;&gt;Node13</title>
<path fill="none" stroke="black" d="M152.85,-210.12C165.5,-203.36 180.93,-195.3 195,-188.5 201.86,-185.19 209.26,-181.79 216.37,-178.61"/>
<polygon fill="black" stroke="black" points="150.94,-207.18 143.79,-215 154.26,-213.34 150.94,-207.18"/>
</g>
<!-- Node6 -->
<g id="Node000006" class="node">
<title>Node6</title>
<g id="a_Node000006"><a xlink:href="group__api-core-script.html" target="_top" xlink:title=" ">
<polygon fill="white" stroke="#666666" points="280,-130 225,-130 225,-111 280,-111 280,-130"/>
<text text-anchor="middle" x="252.5" y="-118" font-family="Helvetica,sans-Serif" font-size="10.00">Scripting</text>
</a>
</g>
</g>
<!-- Node1&#45;&gt;Node6 -->
<g id="edge5" class="edge">
<title>Node1&#45;&gt;Node6</title>
<path fill="none" stroke="black" d="M136.93,-206.13C148.71,-186.93 169.59,-157.2 195,-139.5 203.83,-133.35 214.81,-129.06 224.74,-126.13"/>
<polygon fill="black" stroke="black" points="133.85,-204.46 131.76,-214.85 139.87,-208.03 133.85,-204.46"/>
</g>
<!-- Node7 -->
<g id="Node000007" class="node">
<title>Node7</title>
<g id="a_Node000007"><a xlink:href="group__api-core-settings.html" target="_top" xlink:title=" ">
<polygon fill="white" stroke="#666666" points="279,-93 226,-93 226,-74 279,-74 279,-93"/>
<text text-anchor="middle" x="252.5" y="-81" font-family="Helvetica,sans-Serif" font-size="10.00">Settings</text>
</a>
</g>
</g>
<!-- Node1&#45;&gt;Node7 -->
<g id="edge6" class="edge">
<title>Node1&#45;&gt;Node7</title>
<path fill="none" stroke="black" d="M132.5,-204.9C141.7,-178.04 161.79,-130.01 195,-102.5 203.77,-95.24 215.43,-90.71 225.88,-87.9"/>
<polygon fill="black" stroke="black" points="129.08,-204.09 129.31,-214.68 135.74,-206.26 129.08,-204.09"/>
</g>
<!-- Node8 -->
<g id="Node000008" class="node">
<title>Node8</title>
<g id="a_Node000008"><a xlink:href="group__api-core-storage.html" target="_top" xlink:title=" ">
<polygon fill="white" stroke="#666666" points="277.5,-56 227.5,-56 227.5,-37 277.5,-37 277.5,-56"/>
<text text-anchor="middle" x="252.5" y="-44" font-family="Helvetica,sans-Serif" font-size="10.00">Storage</text>
</a>
</g>
</g>
<!-- Node1&#45;&gt;Node8 -->
<g id="edge7" class="edge">
<title>Node1&#45;&gt;Node8</title>
<path fill="none" stroke="black" d="M129.66,-204.79C136.02,-171.42 153.48,-103.73 195,-65.5 203.91,-57.3 216.47,-52.62 227.5,-49.97"/>
<polygon fill="black" stroke="black" points="126.2,-204.24 127.91,-214.69 133.09,-205.45 126.2,-204.24"/>
</g>
<!-- Node10 -->
<g id="Node000010" class="node">
<title>Node10</title>
<g id="a_Node000010"><a xlink:href="group__api-core-util.html" target="_top" xlink:title=" ">
<polygon fill="white" stroke="#666666" points="277.5,-19 227.5,-19 227.5,0 277.5,0 277.5,-19"/>
<text text-anchor="middle" x="252.5" y="-7" font-family="Helvetica,sans-Serif" font-size="10.00">Utilities</text>
</a>
</g>
</g>
<!-- Node1&#45;&gt;Node10 -->
<g id="edge9" class="edge">
<title>Node1&#45;&gt;Node10</title>
<path fill="none" stroke="black" d="M127.81,-204.7C131.46,-165.56 145.06,-77.85 195,-28.5 203.61,-19.99 216.15,-15.29 227.23,-12.69"/>
<polygon fill="black" stroke="black" points="124.31,-204.53 127,-214.78 131.29,-205.1 124.31,-204.53"/>
</g>
</g>
</svg>
</svg>

<style type='text/css'>
<![CDATA[
[data-mouse-over-selected='false'] { opacity: 0.7; }
[data-mouse-over-selected='true']  { opacity: 1.0; }
]]>
</style>
<script type="application/ecmascript"><![CDATA[
document.addEventListener('DOMContentLoaded', (event) => {
  highlightEdges();
  highlightAdjacentNodes();
});
]]></script>
</svg>
