<?xml version="1.0" encoding="UTF-8" standalone="no"?>
<!DOCTYPE svg PUBLIC "-//W3C//DTD SVG 1.1//EN"
 "http://www.w3.org/Graphics/SVG/1.1/DTD/svg11.dtd">
<!-- Generated by graphviz version 2.43.0 (0)
 -->
<!-- Title: C++&#45;API Pages: 1 -->
<svg width="197pt" height="138pt"
 viewBox="0.00 0.00 197.00 138.00" xmlns="http://www.w3.org/2000/svg" xmlns:xlink="http://www.w3.org/1999/xlink">
<g id="graph0" class="graph" transform="scale(1 1) rotate(0) translate(4 134)">
<title>C++&#45;API</title>
<!-- Node1 -->
<g id="Node000001" class="node">
<title>Node1</title>
<g id="a_Node000001"><a xlink:title=" ">
<polygon fill="#999999" stroke="#666666" points="59,-74 0,-74 0,-55 59,-55 59,-74"/>
<text text-anchor="middle" x="29.5" y="-62" font-family="Helvetica,sans-Serif" font-size="10.00">C++&#45;API</text>
</a>
</g>
</g>
<!-- Node2 -->
<g id="Node000002" class="node">
<title>Node2</title>
<g id="a_Node000002"><a xlink:href="group__api-config.html" target="_top" xlink:title=" ">
<polygon fill="white" stroke="#666666" points="184.5,-130 99.5,-130 99.5,-111 184.5,-111 184.5,-130"/>
<text text-anchor="middle" x="142" y="-118" font-family="Helvetica,sans-Serif" font-size="10.00">Configuration.</text>
</a>
</g>
</g>
<!-- Node1&#45;&gt;Node2 -->
<g id="edge1" class="edge">
<title>Node1&#45;&gt;Node2</title>
<path fill="none" stroke="black" d="M53.8,-79.44C65.84,-86.85 80.94,-95.66 95,-102.5 101.17,-105.5 107.98,-108.38 114.42,-110.93"/>
<polygon fill="black" stroke="black" points="55.58,-76.43 45.24,-74.1 51.87,-82.37 55.58,-76.43"/>
</g>
<!-- Node3 -->
<g id="Node000003" class="node">
<title>Node3</title>
<g id="a_Node000003"><a xlink:href="group__api-core.html" target="_top" xlink:title=" ">
<polygon fill="white" stroke="#666666" points="179.5,-93 104.5,-93 104.5,-74 179.5,-74 179.5,-93"/>
<text text-anchor="middle" x="142" y="-81" font-family="Helvetica,sans-Serif" font-size="10.00">Core library.</text>
</a>
</g>
</g>
<!-- Node1&#45;&gt;Node3 -->
<g id="edge2" class="edge">
<title>Node1&#45;&gt;Node3</title>
<path fill="none" stroke="black" d="M69.37,-71.18C80.78,-73.15 93.21,-75.28 104.47,-77.22"/>
<polygon fill="black" stroke="black" points="69.69,-67.69 59.24,-69.44 68.51,-74.59 69.69,-67.69"/>
</g>
<!-- Node4 -->
<g id="Node000004" class="node">
<title>Node4</title>
<g id="a_Node000004"><a xlink:href="group__api-device.html" target="_top" xlink:title=" ">
<polygon fill="white" stroke="#666666" points="185,-56 99,-56 99,-37 185,-37 185,-56"/>
<text text-anchor="middle" x="142" y="-44" font-family="Helvetica,sans-Serif" font-size="10.00">Device library.</text>
</a>
</g>
</g>
<!-- Node1&#45;&gt;Node4 -->
<g id="edge3" class="edge">
<title>Node1&#45;&gt;Node4</title>
<path fill="none" stroke="black" d="M69.23,-58.19C78.75,-56.64 88.98,-54.97 98.66,-53.4"/>
<polygon fill="black" stroke="black" points="68.55,-54.76 59.24,-59.82 69.68,-61.66 68.55,-54.76"/>
</g>
<!-- Node5 -->
<g id="Node000005" class="node">
<title>Node5</title>
<g id="a_Node000005"><a xlink:href="group__api-network.html" target="_top" xlink:title=" ">
<polygon fill="white" stroke="#666666" points="189,-19 95,-19 95,0 189,0 189,-19"/>
<text text-anchor="middle" x="142" y="-7" font-family="Helvetica,sans-Serif" font-size="10.00">Network library.</text>
</a>
</g>
</g>
<!-- Node1&#45;&gt;Node5 -->
<g id="edge4" class="edge">
<title>Node1&#45;&gt;Node5</title>
<path fill="none" stroke="black" d="M55.26,-49.78C67.11,-42.97 81.61,-34.98 95,-28.5 101.85,-25.19 109.42,-21.91 116.41,-19.03"/>
<polygon fill="black" stroke="black" points="53.28,-46.89 46.39,-54.94 56.8,-52.94 53.28,-46.89"/>
</g>
</g>
</svg>
