<?xml version="1.0" encoding="UTF-8" standalone="no"?>
<!DOCTYPE svg PUBLIC "-//W3C//DTD SVG 1.1//EN"
 "http://www.w3.org/Graphics/SVG/1.1/DTD/svg11.dtd">
<!-- Generated by graphviz version 2.43.0 (0)
 -->
<!-- Title: libs/core/vidre/storage/io.cc Pages: 1 -->
<svg width="496pt" height="203pt"
 viewBox="0.00 0.00 495.50 203.00" xmlns="http://www.w3.org/2000/svg" xmlns:xlink="http://www.w3.org/1999/xlink">
<g id="graph0" class="graph" transform="scale(1 1) rotate(0) translate(4 199)">
<title>libs/core/vidre/storage/io.cc</title>
<!-- Node1 -->
<g id="Node000001" class="node">
<title>Node1</title>
<g id="a_Node000001"><a xlink:title=" ">
<polygon fill="#999999" stroke="#666666" points="349.5,-195 236.5,-195 236.5,-165 349.5,-165 349.5,-195"/>
<text text-anchor="start" x="244.5" y="-183" font-family="Helvetica,sans-Serif" font-size="10.00">libs/core/vidre/storage</text>
<text text-anchor="middle" x="293" y="-172" font-family="Helvetica,sans-Serif" font-size="10.00">/io.cc</text>
</a>
</g>
</g>
<!-- Node2 -->
<g id="Node000002" class="node">
<title>Node2</title>
<g id="a_Node000002"><a xlink:href="io_8hh.html" target="_top" xlink:title=" ">
<polygon fill="white" stroke="#666666" points="312,-129 274,-129 274,-110 312,-110 312,-129"/>
<text text-anchor="middle" x="293" y="-117" font-family="Helvetica,sans-Serif" font-size="10.00">io.hh</text>
</a>
</g>
</g>
<!-- Node1&#45;&gt;Node2 -->
<g id="edge1_Node000001_Node000002" class="edge">
<title>Node1&#45;&gt;Node2</title>
<g id="a_edge1_Node000001_Node000002"><a xlink:title=" ">
<path fill="none" stroke="#63b8ff" d="M293,-164.84C293,-157.21 293,-147.7 293,-139.45"/>
<polygon fill="#63b8ff" stroke="#63b8ff" points="296.5,-139.27 293,-129.27 289.5,-139.27 296.5,-139.27"/>
</a>
</g>
</g>
<!-- Node3 -->
<g id="Node000003" class="node">
<title>Node3</title>
<g id="a_Node000003"><a xlink:href="libs_2core_2vidre_2core_2config_8hh.html" target="_top" xlink:title=" ">
<polygon fill="white" stroke="#666666" points="124,-74 22,-74 22,-55 124,-55 124,-74"/>
<text text-anchor="middle" x="73" y="-62" font-family="Helvetica,sans-Serif" font-size="10.00">vidre/core/config.hh</text>
</a>
</g>
</g>
<!-- Node2&#45;&gt;Node3 -->
<g id="edge2_Node000002_Node000003" class="edge">
<title>Node2&#45;&gt;Node3</title>
<g id="a_edge2_Node000002_Node000003"><a xlink:title=" ">
<path fill="none" stroke="#63b8ff" d="M273.86,-113.89C239.41,-105.59 166.09,-87.93 118.21,-76.39"/>
<polygon fill="#63b8ff" stroke="#63b8ff" points="118.95,-72.97 108.41,-74.03 117.31,-79.77 118.95,-72.97"/>
</a>
</g>
</g>
<!-- Node6 -->
<g id="Node000006" class="node">
<title>Node6</title>
<g id="a_Node000006"><a xlink:href="core_2vidre_2cpp_2util_8hh.html" target="_top" xlink:title=" ">
<polygon fill="white" stroke="#666666" points="228,-74 142,-74 142,-55 228,-55 228,-74"/>
<text text-anchor="middle" x="185" y="-62" font-family="Helvetica,sans-Serif" font-size="10.00">vidre/cpp/util.hh</text>
</a>
</g>
</g>
<!-- Node2&#45;&gt;Node6 -->
<g id="edge5_Node000002_Node000006" class="edge">
<title>Node2&#45;&gt;Node6</title>
<g id="a_edge5_Node000002_Node000006"><a xlink:title=" ">
<path fill="none" stroke="#63b8ff" d="M275.65,-109.98C258.43,-101.54 231.8,-88.47 211.85,-78.68"/>
<polygon fill="#63b8ff" stroke="#63b8ff" points="213.19,-75.43 202.67,-74.17 210.1,-81.72 213.19,-75.43"/>
</a>
</g>
</g>
<!-- Node9 -->
<g id="Node000009" class="node">
<title>Node9</title>
<g id="a_Node000009"><a xlink:title=" ">
<polygon fill="#e0e0e0" stroke="#999999" points="275.5,-74 246.5,-74 246.5,-55 275.5,-55 275.5,-74"/>
<text text-anchor="middle" x="261" y="-62" font-family="Helvetica,sans-Serif" font-size="10.00">bit</text>
</a>
</g>
</g>
<!-- Node2&#45;&gt;Node9 -->
<g id="edge9_Node000002_Node000009" class="edge">
<title>Node2&#45;&gt;Node9</title>
<g id="a_edge9_Node000002_Node000009"><a xlink:title=" ">
<path fill="none" stroke="#63b8ff" d="M287.72,-109.75C283.29,-102.42 276.84,-91.73 271.38,-82.7"/>
<polygon fill="#63b8ff" stroke="#63b8ff" points="274.35,-80.84 266.19,-74.09 268.36,-84.46 274.35,-80.84"/>
</a>
</g>
</g>
<!-- Node10 -->
<g id="Node000010" class="node">
<title>Node10</title>
<g id="a_Node000010"><a xlink:title=" ">
<polygon fill="#e0e0e0" stroke="#999999" points="356,-74 294,-74 294,-55 356,-55 356,-74"/>
<text text-anchor="middle" x="325" y="-62" font-family="Helvetica,sans-Serif" font-size="10.00">filesystem</text>
</a>
</g>
</g>
<!-- Node2&#45;&gt;Node10 -->
<g id="edge10_Node000002_Node000010" class="edge">
<title>Node2&#45;&gt;Node10</title>
<g id="a_edge10_Node000002_Node000010"><a xlink:title=" ">
<path fill="none" stroke="#63b8ff" d="M298.28,-109.75C302.71,-102.42 309.16,-91.73 314.62,-82.7"/>
<polygon fill="#63b8ff" stroke="#63b8ff" points="317.64,-84.46 319.81,-74.09 311.65,-80.84 317.64,-84.46"/>
</a>
</g>
</g>
<!-- Node11 -->
<g id="Node000011" class="node">
<title>Node11</title>
<g id="a_Node000011"><a xlink:title=" ">
<polygon fill="#e0e0e0" stroke="#999999" points="418,-74 374,-74 374,-55 418,-55 418,-74"/>
<text text-anchor="middle" x="396" y="-62" font-family="Helvetica,sans-Serif" font-size="10.00">fcntl.h</text>
</a>
</g>
</g>
<!-- Node2&#45;&gt;Node11 -->
<g id="edge11_Node000002_Node000011" class="edge">
<title>Node2&#45;&gt;Node11</title>
<g id="a_edge11_Node000002_Node000011"><a xlink:title=" ">
<path fill="none" stroke="#63b8ff" d="M309.55,-109.98C325.89,-101.57 351.13,-88.59 370.13,-78.81"/>
<polygon fill="#63b8ff" stroke="#63b8ff" points="371.86,-81.86 379.15,-74.17 368.66,-75.63 371.86,-81.86"/>
</a>
</g>
</g>
<!-- Node12 -->
<g id="Node000012" class="node">
<title>Node12</title>
<g id="a_Node000012"><a xlink:title=" ">
<polygon fill="#e0e0e0" stroke="#999999" points="487.5,-74 436.5,-74 436.5,-55 487.5,-55 487.5,-74"/>
<text text-anchor="middle" x="462" y="-62" font-family="Helvetica,sans-Serif" font-size="10.00">unistd.h</text>
</a>
</g>
</g>
<!-- Node2&#45;&gt;Node12 -->
<g id="edge12_Node000002_Node000012" class="edge">
<title>Node2&#45;&gt;Node12</title>
<g id="a_edge12_Node000002_Node000012"><a xlink:title=" ">
<path fill="none" stroke="#63b8ff" d="M312.06,-112.52C339.79,-103.83 391.76,-87.53 426.63,-76.59"/>
<polygon fill="#63b8ff" stroke="#63b8ff" points="427.92,-79.86 436.42,-73.52 425.83,-73.18 427.92,-79.86"/>
</a>
</g>
</g>
<!-- Node4 -->
<g id="Node000004" class="node">
<title>Node4</title>
<g id="a_Node000004"><a xlink:href="vidre_2config_8hh.html" target="_top" xlink:title=" ">
<polygon fill="white" stroke="#666666" points="144,-19 64,-19 64,0 144,0 144,-19"/>
<text text-anchor="middle" x="104" y="-7" font-family="Helvetica,sans-Serif" font-size="10.00">vidre/config.hh</text>
</a>
</g>
</g>
<!-- Node3&#45;&gt;Node4 -->
<g id="edge3_Node000003_Node000004" class="edge">
<title>Node3&#45;&gt;Node4</title>
<g id="a_edge3_Node000003_Node000004"><a xlink:title=" ">
<path fill="none" stroke="#63b8ff" d="M78.12,-54.75C82.36,-47.49 88.53,-36.95 93.78,-27.98"/>
<polygon fill="#63b8ff" stroke="#63b8ff" points="96.95,-29.49 98.98,-19.09 90.91,-25.95 96.95,-29.49"/>
</a>
</g>
</g>
<!-- Node5 -->
<g id="Node000005" class="node">
<title>Node5</title>
<g id="a_Node000005"><a xlink:title=" ">
<polygon fill="#e0e0e0" stroke="#999999" points="46,-19 0,-19 0,0 46,0 46,-19"/>
<text text-anchor="middle" x="23" y="-7" font-family="Helvetica,sans-Serif" font-size="10.00">cstdint</text>
</a>
</g>
</g>
<!-- Node3&#45;&gt;Node5 -->
<g id="edge4_Node000003_Node000005" class="edge">
<title>Node3&#45;&gt;Node5</title>
<g id="a_edge4_Node000003_Node000005"><a xlink:title=" ">
<path fill="none" stroke="#63b8ff" d="M64.74,-54.75C57.54,-47.11 46.89,-35.82 38.15,-26.56"/>
<polygon fill="#63b8ff" stroke="#63b8ff" points="40.51,-23.96 31.1,-19.09 35.42,-28.76 40.51,-23.96"/>
</a>
</g>
</g>
<!-- Node6&#45;&gt;Node4 -->
<g id="edge6_Node000006_Node000004" class="edge">
<title>Node6&#45;&gt;Node4</title>
<g id="a_edge6_Node000006_Node000004"><a xlink:title=" ">
<path fill="none" stroke="#63b8ff" d="M171.99,-54.98C159.54,-46.84 140.54,-34.41 125.79,-24.76"/>
<polygon fill="#63b8ff" stroke="#63b8ff" points="127.54,-21.72 117.25,-19.17 123.7,-27.57 127.54,-21.72"/>
</a>
</g>
</g>
<!-- Node7 -->
<g id="Node000007" class="node">
<title>Node7</title>
<g id="a_Node000007"><a xlink:title=" ">
<polygon fill="#e0e0e0" stroke="#999999" points="207.5,-19 162.5,-19 162.5,0 207.5,0 207.5,-19"/>
<text text-anchor="middle" x="185" y="-7" font-family="Helvetica,sans-Serif" font-size="10.00">climits</text>
</a>
</g>
</g>
<!-- Node6&#45;&gt;Node7 -->
<g id="edge7_Node000006_Node000007" class="edge">
<title>Node6&#45;&gt;Node7</title>
<g id="a_edge7_Node000006_Node000007"><a xlink:title=" ">
<path fill="none" stroke="#63b8ff" d="M185,-54.75C185,-47.8 185,-37.85 185,-29.13"/>
<polygon fill="#63b8ff" stroke="#63b8ff" points="188.5,-29.09 185,-19.09 181.5,-29.09 188.5,-29.09"/>
</a>
</g>
</g>
<!-- Node8 -->
<g id="Node000008" class="node">
<title>Node8</title>
<g id="a_Node000008"><a xlink:title=" ">
<polygon fill="#e0e0e0" stroke="#999999" points="274.5,-19 225.5,-19 225.5,0 274.5,0 274.5,-19"/>
<text text-anchor="middle" x="250" y="-7" font-family="Helvetica,sans-Serif" font-size="10.00">cstddef</text>
</a>
</g>
</g>
<!-- Node6&#45;&gt;Node8 -->
<g id="edge8_Node000006_Node000008" class="edge">
<title>Node6&#45;&gt;Node8</title>
<g id="a_edge8_Node000006_Node000008"><a xlink:title=" ">
<path fill="none" stroke="#63b8ff" d="M195.44,-54.98C205.15,-47.07 219.82,-35.11 231.5,-25.58"/>
<polygon fill="#63b8ff" stroke="#63b8ff" points="233.83,-28.2 239.37,-19.17 229.4,-22.78 233.83,-28.2"/>
</a>
</g>
</g>
</g>
</svg>
