<?xml version="1.0" encoding="UTF-8" standalone="no"?>
<!DOCTYPE svg PUBLIC "-//W3C//DTD SVG 1.1//EN"
 "http://www.w3.org/Graphics/SVG/1.1/DTD/svg11.dtd">
<!-- Generated by graphviz version 2.43.0 (0)
 -->
<!-- Title: libs/core/vidre/core/config.hh Pages: 1 -->
<!--zoomable 181 -->

<svg id="main" version="1.1" xmlns="http://www.w3.org/2000/svg" xmlns:xlink="http://www.w3.org/1999/xlink" xml:space="preserve" onload="init(evt)">
<style type="text/css"><![CDATA[
.node, .edge {opacity: 0.7;}
.node.selected, .edge.selected {opacity: 1;}
.edge:hover path { stroke: red; }
.edge:hover polygon { stroke: red; fill: red; }
]]></style>

<defs>
  <circle id="rim" cx="0" cy="0" r="7"/>
  <circle id="rim2" cx="0" cy="0" r="3.5"/>
  <g id="zoomPlus">
    <use xlink:href="#rim" fill="#404040"><set attributeName="fill" to="#808080" begin="zoomplus.mouseover" end="zoomplus.mouseout"/></use>
    <path d="M-4,0h8M0,-4v8" fill="none" stroke="white" stroke-width="1.5" pointer-events="none"/>
  </g>
  <g id="zoomMin">
    <use xlink:href="#rim" fill="#404040"><set attributeName="fill" to="#808080" begin="zoomminus.mouseover" end="zoomminus.mouseout"/></use>
    <path d="M-4,0h8" fill="none" stroke="white" stroke-width="1.5" pointer-events="none"/>
  </g>
  <g id="arrowUp" transform="translate(30 24)">
    <use xlink:href="#rim"/>
    <path pointer-events="none" fill="none" stroke="white" stroke-width="1.5" d="M0,-3.0v7 M-2.5,-0.5L0,-3.0L2.5,-0.5"/>
  </g>
  <g id="arrowRight" transform="rotate(90) translate(36 -43)">
    <use xlink:href="#rim"/>
    <path pointer-events="none" fill="none" stroke="white" stroke-width="1.5" d="M0,-3.0v7 M-2.5,-0.5L0,-3.0L2.5,-0.5"/>
  </g>
  <g id="arrowDown" transform="rotate(180) translate(-30 -48)">
    <use xlink:href="#rim"/>
    <path pointer-events="none" fill="none" stroke="white" stroke-width="1.5" d="M0,-3.0v7 M-2.5,-0.5L0,-3.0L2.5,-0.5"/>
  </g>
  <g id="arrowLeft" transform="rotate(270) translate(-36 17)">
    <use xlink:href="#rim"/>
    <path pointer-events="none" fill="none" stroke="white" stroke-width="1.5" d="M0,-3.0v7 M-2.5,-0.5L0,-3.0L2.5,-0.5"/>
  </g>
  <g id="resetDef">
    <use xlink:href="#rim2" fill="#404040"><set attributeName="fill" to="#808080" begin="reset.mouseover" end="reset.mouseout"/></use>
  </g>
</defs>
<script type="application/ecmascript">
var viewWidth = 1077;
var viewHeight = 181;
var sectionId = 'dynsection-1';
</script>
<script type="application/ecmascript" xlink:href="svg.min.js"/>
<svg id="graph" class="graph">
<g id="viewport">
<title>libs/core/vidre/core/config.hh</title>
<!-- Node1 -->
<g id="Node000001" class="node">
<title>Node1</title>
<g id="a_Node000001"><a xlink:title=" ">
<polygon fill="#999999" stroke="#666666" points="519,-173 409,-173 409,-143 519,-143 519,-173"/>
<text text-anchor="start" x="417" y="-161" font-family="Helvetica,sans-Serif" font-size="10.00">libs/core/vidre/core</text>
<text text-anchor="middle" x="464" y="-150" font-family="Helvetica,sans-Serif" font-size="10.00">/config.hh</text>
</a>
</g>
</g>
<!-- Node2 -->
<g id="Node000002" class="node">
<title>Node2</title>
<g id="a_Node000002"><a xlink:href="config_8cc.html" target="_top" xlink:title=" ">
<polygon fill="white" stroke="#666666" points="110,-107 0,-107 0,-77 110,-77 110,-107"/>
<text text-anchor="start" x="8" y="-95" font-family="Helvetica,sans-Serif" font-size="10.00">libs/core/vidre/core</text>
<text text-anchor="middle" x="55" y="-84" font-family="Helvetica,sans-Serif" font-size="10.00">/config.cc</text>
</a>
</g>
</g>
<!-- Node1&#45;&gt;Node2 -->
<g id="edge1_Node000001_Node000002" class="edge">
<title>Node1&#45;&gt;Node2</title>
<g id="a_edge1_Node000001_Node000002"><a xlink:title=" ">
<path fill="none" stroke="#63b8ff" d="M398.9,-148.97C329.37,-140.07 216.05,-124.62 119,-107 116.09,-106.47 113.11,-105.91 110.11,-105.32"/>
<polygon fill="#63b8ff" stroke="#63b8ff" points="398.47,-152.45 408.83,-150.24 399.35,-145.5 398.47,-152.45"/>
</a>
</g>
</g>
<!-- Node3 -->
<g id="Node000003" class="node">
<title>Node3</title>
<g id="a_Node000003"><a xlink:href="exception_8hh.html" target="_top" xlink:title=" ">
<polygon fill="white" stroke="#666666" points="280,-101.5 128,-101.5 128,-82.5 280,-82.5 280,-101.5"/>
<text text-anchor="middle" x="204" y="-89.5" font-family="Helvetica,sans-Serif" font-size="10.00">libs/core/vidre/exception.hh</text>
</a>
</g>
</g>
<!-- Node1&#45;&gt;Node3 -->
<g id="edge2_Node000001_Node000003" class="edge">
<title>Node1&#45;&gt;Node3</title>
<g id="a_edge2_Node000001_Node000003"><a xlink:title=" ">
<path fill="none" stroke="#63b8ff" d="M398.95,-140.99C348.16,-128.49 279.58,-111.6 238.75,-101.55"/>
<polygon fill="#63b8ff" stroke="#63b8ff" points="398.31,-144.44 408.86,-143.43 399.99,-137.64 398.31,-144.44"/>
</a>
</g>
</g>
<!-- Node4 -->
<g id="Node000004" class="node">
<title>Node4</title>
<g id="a_Node000004"><a xlink:href="plugin_8hh.html" target="_top" xlink:title=" ">
<polygon fill="white" stroke="#666666" points="455,-30 321,-30 321,-11 455,-11 455,-30"/>
<text text-anchor="middle" x="388" y="-18" font-family="Helvetica,sans-Serif" font-size="10.00">libs/core/vidre/plugin.hh</text>
</a>
</g>
</g>
<!-- Node1&#45;&gt;Node4 -->
<g id="edge3_Node000001_Node000004" class="edge">
<title>Node1&#45;&gt;Node4</title>
<g id="a_edge3_Node000001_Node000004"><a xlink:title=" ">
<path fill="none" stroke="#63b8ff" d="M398.94,-149.59C372.07,-142.96 343.42,-130.47 327,-107 307.25,-78.76 349.91,-45.62 373.59,-30.2"/>
<polygon fill="#63b8ff" stroke="#63b8ff" points="398.22,-153.01 408.74,-151.78 399.74,-146.18 398.22,-153.01"/>
</a>
</g>
</g>
<!-- Node5 -->
<g id="Node000005" class="node">
<title>Node5</title>
<g id="a_Node000005"><a xlink:href="dynamic_8hh.html" target="_top" xlink:title=" ">
<polygon fill="white" stroke="#666666" points="455.5,-107 336.5,-107 336.5,-77 455.5,-77 455.5,-107"/>
<text text-anchor="start" x="344.5" y="-95" font-family="Helvetica,sans-Serif" font-size="10.00">libs/core/vidre/plugin</text>
<text text-anchor="middle" x="396" y="-84" font-family="Helvetica,sans-Serif" font-size="10.00">/dynamic.hh</text>
</a>
</g>
</g>
<!-- Node1&#45;&gt;Node5 -->
<g id="edge4_Node000001_Node000005" class="edge">
<title>Node1&#45;&gt;Node5</title>
<g id="a_edge4_Node000001_Node000005"><a xlink:title=" ">
<path fill="none" stroke="#63b8ff" d="M441.61,-135.92C431.58,-126.49 420.02,-115.61 411.05,-107.16"/>
<polygon fill="#63b8ff" stroke="#63b8ff" points="439.23,-138.49 448.91,-142.8 444.03,-133.39 439.23,-138.49"/>
</a>
</g>
</g>
<!-- Node7 -->
<g id="Node000007" class="node">
<title>Node7</title>
<g id="a_Node000007"><a xlink:href="information_8hh.html" target="_top" xlink:title=" ">
<polygon fill="white" stroke="#666666" points="592.5,-107 473.5,-107 473.5,-77 592.5,-77 592.5,-107"/>
<text text-anchor="start" x="481.5" y="-95" font-family="Helvetica,sans-Serif" font-size="10.00">libs/core/vidre/plugin</text>
<text text-anchor="middle" x="533" y="-84" font-family="Helvetica,sans-Serif" font-size="10.00">/information.hh</text>
</a>
</g>
</g>
<!-- Node1&#45;&gt;Node7 -->
<g id="edge7_Node000001_Node000007" class="edge">
<title>Node1&#45;&gt;Node7</title>
<g id="a_edge7_Node000001_Node000007"><a xlink:title=" ">
<path fill="none" stroke="#63b8ff" d="M486.72,-135.92C496.9,-126.49 508.63,-115.61 517.73,-107.16"/>
<polygon fill="#63b8ff" stroke="#63b8ff" points="484.26,-133.43 479.31,-142.8 489.03,-138.56 484.26,-133.43"/>
</a>
</g>
</g>
<!-- Node8 -->
<g id="Node000008" class="node">
<title>Node8</title>
<g id="a_Node000008"><a xlink:href="storage_8hh.html" target="_top" xlink:title=" ">
<polygon fill="white" stroke="#666666" points="751,-101.5 611,-101.5 611,-82.5 751,-82.5 751,-101.5"/>
<text text-anchor="middle" x="681" y="-89.5" font-family="Helvetica,sans-Serif" font-size="10.00">libs/core/vidre/storage.hh</text>
</a>
</g>
</g>
<!-- Node1&#45;&gt;Node8 -->
<g id="edge10_Node000001_Node000008" class="edge">
<title>Node1&#45;&gt;Node8</title>
<g id="a_edge10_Node000001_Node000008"><a xlink:title=" ">
<path fill="none" stroke="#63b8ff" d="M521.47,-140.05C563.56,-127.64 618.91,-111.31 652.12,-101.52"/>
<polygon fill="#63b8ff" stroke="#63b8ff" points="520.22,-136.77 511.62,-142.95 522.2,-143.48 520.22,-136.77"/>
</a>
</g>
</g>
<!-- Node9 -->
<g id="Node000009" class="node">
<title>Node9</title>
<g id="a_Node000009"><a xlink:href="json_8hh.html" target="_top" xlink:title=" ">
<polygon fill="white" stroke="#666666" points="873,-107 769,-107 769,-77 873,-77 873,-107"/>
<text text-anchor="start" x="777" y="-95" font-family="Helvetica,sans-Serif" font-size="10.00">libs/core/vidre/util</text>
<text text-anchor="middle" x="821" y="-84" font-family="Helvetica,sans-Serif" font-size="10.00">/json.hh</text>
</a>
</g>
</g>
<!-- Node1&#45;&gt;Node9 -->
<g id="edge11_Node000001_Node000009" class="edge">
<title>Node1&#45;&gt;Node9</title>
<g id="a_edge11_Node000001_Node000009"><a xlink:title=" ">
<path fill="none" stroke="#63b8ff" d="M529.11,-147.12C589.22,-137.73 680.88,-122.75 760,-107 762.88,-106.43 765.83,-105.82 768.8,-105.19"/>
<polygon fill="#63b8ff" stroke="#63b8ff" points="528.35,-143.7 519,-148.69 529.42,-150.61 528.35,-143.7"/>
</a>
</g>
</g>
<!-- Node10 -->
<g id="Node000010" class="node">
<title>Node10</title>
<g id="a_Node000010"><a xlink:href="uuid_8hh.html" target="_top" xlink:title=" ">
<polygon fill="white" stroke="#666666" points="995,-107 891,-107 891,-77 995,-77 995,-107"/>
<text text-anchor="start" x="899" y="-95" font-family="Helvetica,sans-Serif" font-size="10.00">libs/core/vidre/util</text>
<text text-anchor="middle" x="943" y="-84" font-family="Helvetica,sans-Serif" font-size="10.00">/uuid.hh</text>
</a>
</g>
</g>
<!-- Node1&#45;&gt;Node10 -->
<g id="edge12_Node000001_Node000010" class="edge">
<title>Node1&#45;&gt;Node10</title>
<g id="a_edge12_Node000001_Node000010"><a xlink:title=" ">
<path fill="none" stroke="#63b8ff" d="M529.03,-151.39C611.5,-143.77 757.93,-128.6 882,-107 884.89,-106.5 887.85,-105.94 890.83,-105.36"/>
<polygon fill="#63b8ff" stroke="#63b8ff" points="528.69,-147.9 519.05,-152.3 529.32,-154.87 528.69,-147.9"/>
</a>
</g>
</g>
<!-- Node5&#45;&gt;Node4 -->
<g id="edge5_Node000005_Node000004" class="edge">
<title>Node5&#45;&gt;Node4</title>
<g id="a_edge5_Node000005_Node000004"><a xlink:title=" ">
<path fill="none" stroke="#63b8ff" d="M393.23,-66.94C391.77,-54.24 390.06,-39.44 389.01,-30.27"/>
<polygon fill="#63b8ff" stroke="#63b8ff" points="389.76,-67.4 394.38,-76.94 396.71,-66.6 389.76,-67.4"/>
</a>
</g>
</g>
<!-- Node6 -->
<g id="Node000006" class="node">
<title>Node6</title>
<g id="a_Node000006"><a xlink:href="dynamic_8cc.html" target="_top" xlink:title=" ">
<polygon fill="white" stroke="#666666" points="592.5,-35.5 473.5,-35.5 473.5,-5.5 592.5,-5.5 592.5,-35.5"/>
<text text-anchor="start" x="481.5" y="-23.5" font-family="Helvetica,sans-Serif" font-size="10.00">libs/core/vidre/plugin</text>
<text text-anchor="middle" x="533" y="-12.5" font-family="Helvetica,sans-Serif" font-size="10.00">/dynamic.cc</text>
</a>
</g>
</g>
<!-- Node5&#45;&gt;Node6 -->
<g id="edge6_Node000005_Node000006" class="edge">
<title>Node5&#45;&gt;Node6</title>
<g id="a_edge6_Node000005_Node000006"><a xlink:title=" ">
<path fill="none" stroke="#63b8ff" d="M432.78,-72.34C455.59,-60.77 484.44,-46.14 505.32,-35.54"/>
<polygon fill="#63b8ff" stroke="#63b8ff" points="431.06,-69.29 423.72,-76.94 434.23,-75.53 431.06,-69.29"/>
</a>
</g>
</g>
<!-- Node7&#45;&gt;Node4 -->
<g id="edge8_Node000007_Node000004" class="edge">
<title>Node7&#45;&gt;Node4</title>
<g id="a_edge8_Node000007_Node000004"><a xlink:title=" ">
<path fill="none" stroke="#63b8ff" d="M494.31,-72.46C465.61,-58.7 427.81,-40.58 405.88,-30.07"/>
<polygon fill="#63b8ff" stroke="#63b8ff" points="493.13,-75.77 503.66,-76.94 496.15,-69.46 493.13,-75.77"/>
</a>
</g>
</g>
<!-- Node7&#45;&gt;Node6 -->
<g id="edge9_Node000007_Node000006" class="edge">
<title>Node7&#45;&gt;Node6</title>
<g id="a_edge9_Node000007_Node000006"><a xlink:title=" ">
<path fill="none" stroke="#63b8ff" d="M533,-66.75C533,-56.31 533,-44.49 533,-35.54"/>
<polygon fill="#63b8ff" stroke="#63b8ff" points="529.5,-66.94 533,-76.94 536.5,-66.94 529.5,-66.94"/>
</a>
</g>
</g>
<!-- Node11 -->
<g id="Node000011" class="node">
<title>Node11</title>
<g id="a_Node000011"><a xlink:href="examples_2core_2uuid_8cc.html" target="_top" xlink:title=" ">
<polygon fill="white" stroke="#666666" points="946.5,-41 791.5,-41 791.5,0 946.5,0 946.5,-41"/>
<text text-anchor="start" x="799.5" y="-29" font-family="Helvetica,sans-Serif" font-size="10.00">/home/sawinski/Workspace</text>
<text text-anchor="start" x="799.5" y="-18" font-family="Helvetica,sans-Serif" font-size="10.00">/MPINB/vidre/examples/core</text>
<text text-anchor="middle" x="869" y="-7" font-family="Helvetica,sans-Serif" font-size="10.00">/uuid.cc</text>
</a>
</g>
</g>
<!-- Node10&#45;&gt;Node11 -->
<g id="edge13_Node000010_Node000011" class="edge">
<title>Node10&#45;&gt;Node11</title>
<g id="a_edge13_Node000010_Node000011"><a xlink:title=" ">
<path fill="none" stroke="#63b8ff" d="M920.6,-69.96C910.82,-60.78 899.43,-50.08 889.84,-41.07"/>
<polygon fill="#63b8ff" stroke="#63b8ff" points="918.34,-72.64 928.02,-76.94 923.13,-67.54 918.34,-72.64"/>
</a>
</g>
</g>
<!-- Node12 -->
<g id="Node000012" class="node">
<title>Node12</title>
<g id="a_Node000012"><a xlink:href="src_2libs_2core_2vidre_2util_2uuid_8cc.html" target="_top" xlink:title=" ">
<polygon fill="white" stroke="#666666" points="1069,-35.5 965,-35.5 965,-5.5 1069,-5.5 1069,-35.5"/>
<text text-anchor="start" x="973" y="-23.5" font-family="Helvetica,sans-Serif" font-size="10.00">libs/core/vidre/util</text>
<text text-anchor="middle" x="1017" y="-12.5" font-family="Helvetica,sans-Serif" font-size="10.00">/uuid.cc</text>
</a>
</g>
</g>
<!-- Node10&#45;&gt;Node12 -->
<g id="edge14_Node000010_Node000012" class="edge">
<title>Node10&#45;&gt;Node12</title>
<g id="a_edge14_Node000010_Node000012"><a xlink:title=" ">
<path fill="none" stroke="#63b8ff" d="M965.37,-69.99C977.25,-58.84 991.52,-45.43 1002.05,-35.54"/>
<polygon fill="#63b8ff" stroke="#63b8ff" points="962.87,-67.54 957.98,-76.94 967.66,-72.64 962.87,-67.54"/>
</a>
</g>
</g>
</g>
</svg>

<g id="navigator" transform="translate(0 0)" fill="#404254">
  <rect fill="#f2f5e9" fill-opacity="0.5" stroke="#606060" stroke-width=".5" x="0" y="0" width="60" height="60"/>
  <use id="zoomplus" xlink:href="#zoomPlus" x="17" y="9" onmousedown="handleZoom(evt,'in')"/>
  <use id="zoomminus" xlink:href="#zoomMin" x="42" y="9" onmousedown="handleZoom(evt,'out')"/>
  <use id="reset" xlink:href="#resetDef" x="30" y="36" onmousedown="handleReset()"/>
   <use id="arrowup" xlink:href="#arrowUp" x="0" y="0" onmousedown="handlePan(0,-1)"/>
  <use id="arrowright" xlink:href="#arrowRight" x="0" y="0" onmousedown="handlePan(1,0)"/>
  <use id="arrowdown" xlink:href="#arrowDown" x="0" y="0" onmousedown="handlePan(0,1)"/>
  <use id="arrowleft" xlink:href="#arrowLeft" x="0" y="0" onmousedown="handlePan(-1,0)"/>
</g>
<svg viewBox="0 0 15 15" width="100%" height="30px" preserveAspectRatio="xMaxYMin meet">
 <g id="arrow_out" transform="scale(0.3 0.3)">
  <a xlink:href="libs_2core_2vidre_2core_2config_8hh__dep__incl_org.svg" target="_base">
   <rect id="button" ry="5" rx="5" y="6" x="6" height="38" width="38"
        fill="#f2f5e9" fill-opacity="0.5" stroke="#606060" stroke-width="1.0"/>
   <path id="arrow"
     d="M 11.500037,31.436501 C 11.940474,20.09759 22.043105,11.32322 32.158766,21.979434 L 37.068811,17.246167 C 37.068811,17.246167 37.088388,32 37.088388,32 L 22.160133,31.978069 C 22.160133,31.978069 26.997745,27.140456 26.997745,27.140456 C 18.528582,18.264221 13.291696,25.230495 11.500037,31.436501 z"
     style="fill:#404040;"/>
  </a>
 </g>
</svg>

<style type='text/css'>
<![CDATA[
[data-mouse-over-selected='false'] { opacity: 0.7; }
[data-mouse-over-selected='true']  { opacity: 1.0; }
]]>
</style>
<script type="application/ecmascript"><![CDATA[
document.addEventListener('DOMContentLoaded', (event) => {
  highlightEdges();
  highlightAdjacentNodes();
});
]]></script>
</svg>
