<?xml version="1.0" encoding="UTF-8" standalone="no"?>
<!DOCTYPE svg PUBLIC "-//W3C//DTD SVG 1.1//EN"
 "http://www.w3.org/Graphics/SVG/1.1/DTD/svg11.dtd">
<!-- Generated by graphviz version 2.43.0 (0)
 -->
<!-- Title: vidre/device/config.hh Pages: 1 -->
<!--zoomable 269 -->

<svg id="main" version="1.1" xmlns="http://www.w3.org/2000/svg" xmlns:xlink="http://www.w3.org/1999/xlink" xml:space="preserve" onload="init(evt)">

<style type="text/css"><![CDATA[
.node, .edge {opacity: 0.7;}
.node.selected, .edge.selected {opacity: 1;}
.edge:hover path { stroke: red; }
.edge:hover polygon { stroke: red; fill: red; }
]]></style>

<defs>
  <circle id="rim" cx="0" cy="0" r="7"/>
  <circle id="rim2" cx="0" cy="0" r="3.5"/>
  <g id="zoomPlus">
    <use xlink:href="#rim" fill="#404040"><set attributeName="fill" to="#808080" begin="zoomplus.mouseover" end="zoomplus.mouseout"/></use>
    <path d="M-4,0h8M0,-4v8" fill="none" stroke="white" stroke-width="1.5" pointer-events="none"/>
  </g>
  <g id="zoomMin">
    <use xlink:href="#rim" fill="#404040"><set attributeName="fill" to="#808080" begin="zoomminus.mouseover" end="zoomminus.mouseout"/></use>
    <path d="M-4,0h8" fill="none" stroke="white" stroke-width="1.5" pointer-events="none"/>
  </g>
  <g id="arrowUp" transform="translate(30 24)">
    <use xlink:href="#rim"/>
    <path pointer-events="none" fill="none" stroke="white" stroke-width="1.5" d="M0,-3.0v7 M-2.5,-0.5L0,-3.0L2.5,-0.5"/>
  </g>
  <g id="arrowRight" transform="rotate(90) translate(36 -43)">
    <use xlink:href="#rim"/>
    <path pointer-events="none" fill="none" stroke="white" stroke-width="1.5" d="M0,-3.0v7 M-2.5,-0.5L0,-3.0L2.5,-0.5"/>
  </g>
  <g id="arrowDown" transform="rotate(180) translate(-30 -48)">
    <use xlink:href="#rim"/>
    <path pointer-events="none" fill="none" stroke="white" stroke-width="1.5" d="M0,-3.0v7 M-2.5,-0.5L0,-3.0L2.5,-0.5"/>
  </g>
  <g id="arrowLeft" transform="rotate(270) translate(-36 17)">
    <use xlink:href="#rim"/>
    <path pointer-events="none" fill="none" stroke="white" stroke-width="1.5" d="M0,-3.0v7 M-2.5,-0.5L0,-3.0L2.5,-0.5"/>
  </g>
  <g id="resetDef">
    <use xlink:href="#rim2" fill="#404040"><set attributeName="fill" to="#808080" begin="reset.mouseover" end="reset.mouseout"/></use>
  </g>
</defs>
<script type="application/ecmascript">
var viewWidth = 768;
var viewHeight = 269;
var sectionId = 'dynsection-1';
</script>
<script type="application/ecmascript" xlink:href="svg.min.js"/>
<svg id="graph" class="graph">
<g id="viewport">
<title>vidre/device/config.hh</title>
<!-- Node1 -->
<g id="Node000001" class="node">
<title>Node1</title>
<g id="a_Node000001"><a xlink:title=" ">
<polygon fill="#999999" stroke="#666666" points="402.5,-261 290.5,-261 290.5,-242 402.5,-242 402.5,-261"/>
<text text-anchor="middle" x="346.5" y="-249" font-family="Helvetica,sans-Serif" font-size="10.00">vidre/device/config.hh</text>
</a>
</g>
</g>
<!-- Node2 -->
<g id="Node000002" class="node">
<title>Node2</title>
<g id="a_Node000002"><a xlink:href="examples_2playground_2uvc_2linux_2uvc_8hh.html" target="_top" xlink:title=" ">
<polygon fill="white" stroke="#666666" points="182,-96 73,-96 73,-66 182,-66 182,-96"/>
<text text-anchor="start" x="81" y="-84" font-family="Helvetica,sans-Serif" font-size="10.00">examples/playground</text>
<text text-anchor="middle" x="127.5" y="-73" font-family="Helvetica,sans-Serif" font-size="10.00">/uvc/linux/uvc.hh</text>
</a>
</g>
</g>
<!-- Node1&#45;&gt;Node2 -->
<g id="edge1_Node000001_Node000002" class="edge">
<title>Node1&#45;&gt;Node2</title>
<g id="a_edge1_Node000001_Node000002"><a xlink:title=" ">
<path fill="none" stroke="#63b8ff" d="M320.36,-236.87C288.17,-219.41 232.73,-187.06 191.5,-151 171.58,-133.58 151.24,-110.57 138.99,-96.03"/>
<polygon fill="#63b8ff" stroke="#63b8ff" points="319.09,-240.16 329.55,-241.8 322.39,-233.99 319.09,-240.16"/>
</a>
</g>
</g>
<!-- Node4 -->
<g id="Node000004" class="node">
<title>Node4</title>
<g id="a_Node000004"><a xlink:href="libs_2device_2vidre_2device_8hh.html" target="_top" xlink:title=" ">
<polygon fill="white" stroke="#666666" points="546,-90.5 463,-90.5 463,-71.5 546,-71.5 546,-90.5"/>
<text text-anchor="middle" x="504.5" y="-78.5" font-family="Helvetica,sans-Serif" font-size="10.00">vidre/device.hh</text>
</a>
</g>
</g>
<!-- Node1&#45;&gt;Node4 -->
<g id="edge3_Node000001_Node000004" class="edge">
<title>Node1&#45;&gt;Node4</title>
<g id="a_edge3_Node000001_Node000004"><a xlink:title=" ">
<path fill="none" stroke="#63b8ff" d="M377.29,-237.77C410.64,-222.32 462.78,-193.02 490.5,-151 502.89,-132.23 504.7,-104.79 504.74,-90.85"/>
<polygon fill="#63b8ff" stroke="#63b8ff" points="375.7,-234.65 368.01,-241.94 378.56,-241.03 375.7,-234.65"/>
</a>
</g>
</g>
<!-- Node6 -->
<g id="Node000006" class="node">
<title>Node6</title>
<g id="a_Node000006"><a xlink:href="device_2vidre_2device_2base_8hh.html" target="_top" xlink:title=" ">
<polygon fill="white" stroke="#666666" points="400,-206 293,-206 293,-187 400,-187 400,-206"/>
<text text-anchor="middle" x="346.5" y="-194" font-family="Helvetica,sans-Serif" font-size="10.00">vidre/device/base.hh</text>
</a>
</g>
</g>
<!-- Node1&#45;&gt;Node6 -->
<g id="edge5_Node000001_Node000006" class="edge">
<title>Node1&#45;&gt;Node6</title>
<g id="a_edge5_Node000001_Node000006"><a xlink:title=" ">
<path fill="none" stroke="#63b8ff" d="M346.5,-231.66C346.5,-222.93 346.5,-212.99 346.5,-206.09"/>
<polygon fill="#63b8ff" stroke="#63b8ff" points="343,-231.75 346.5,-241.75 350,-231.75 343,-231.75"/>
</a>
</g>
</g>
<!-- Node8 -->
<g id="Node000008" class="node">
<title>Node8</title>
<g id="a_Node000008"><a xlink:href="camera_8hh.html" target="_top" xlink:title=" ">
<polygon fill="white" stroke="#666666" points="318.5,-151 200.5,-151 200.5,-132 318.5,-132 318.5,-151"/>
<text text-anchor="middle" x="259.5" y="-139" font-family="Helvetica,sans-Serif" font-size="10.00">vidre/device/camera.hh</text>
</a>
</g>
</g>
<!-- Node1&#45;&gt;Node8 -->
<g id="edge17_Node000001_Node000008" class="edge">
<title>Node1&#45;&gt;Node8</title>
<g id="a_edge17_Node000001_Node000008"><a xlink:title=" ">
<path fill="none" stroke="#63b8ff" d="M320.35,-236.91C307.77,-229.26 293.33,-218.7 283.5,-206 270.37,-189.04 263.78,-164.1 261.07,-151.1"/>
<polygon fill="#63b8ff" stroke="#63b8ff" points="318.67,-239.98 329.08,-241.95 322.17,-233.92 318.67,-239.98"/>
</a>
</g>
</g>
<!-- Node15 -->
<g id="Node000015" class="node">
<title>Node15</title>
<g id="a_Node000015"><a xlink:href="libs_2device_2vidre_2device_2config_8cc.html" target="_top" xlink:title=" ">
<polygon fill="white" stroke="#666666" points="650.5,-206 538.5,-206 538.5,-187 650.5,-187 650.5,-206"/>
<text text-anchor="middle" x="594.5" y="-194" font-family="Helvetica,sans-Serif" font-size="10.00">vidre/device/config.cc</text>
</a>
</g>
</g>
<!-- Node1&#45;&gt;Node15 -->
<g id="edge18_Node000001_Node000015" class="edge">
<title>Node1&#45;&gt;Node15</title>
<g id="a_edge18_Node000001_Node000015"><a xlink:title=" ">
<path fill="none" stroke="#63b8ff" d="M396.2,-239.88C442.68,-229.94 511.23,-215.3 554.34,-206.08"/>
<polygon fill="#63b8ff" stroke="#63b8ff" points="395.39,-236.47 386.35,-241.98 396.86,-243.32 395.39,-236.47"/>
</a>
</g>
</g>
<!-- Node3 -->
<g id="Node000003" class="node">
<title>Node3</title>
<g id="a_Node000003"><a xlink:href="examples_2playground_2uvc_2linux_2uvc_8cc.html" target="_top" xlink:title=" ">
<polygon fill="white" stroke="#666666" points="109,-30 0,-30 0,0 109,0 109,-30"/>
<text text-anchor="start" x="8" y="-18" font-family="Helvetica,sans-Serif" font-size="10.00">examples/playground</text>
<text text-anchor="middle" x="54.5" y="-7" font-family="Helvetica,sans-Serif" font-size="10.00">/uvc/linux/uvc.cc</text>
</a>
</g>
</g>
<!-- Node2&#45;&gt;Node3 -->
<g id="edge2_Node000002_Node000003" class="edge">
<title>Node2&#45;&gt;Node3</title>
<g id="a_edge2_Node000002_Node000003"><a xlink:title=" ">
<path fill="none" stroke="#63b8ff" d="M103.78,-59.2C92.94,-49.7 80.38,-38.69 70.66,-30.16"/>
<polygon fill="#63b8ff" stroke="#63b8ff" points="101.47,-61.84 111.3,-65.8 106.09,-56.57 101.47,-61.84"/>
</a>
</g>
</g>
<!-- Node5 -->
<g id="Node000005" class="node">
<title>Node5</title>
<g id="a_Node000005"><a xlink:href="libs_2device_2vidre_2device_8cc.html" target="_top" xlink:title=" ">
<polygon fill="white" stroke="#666666" points="760,-24.5 677,-24.5 677,-5.5 760,-5.5 760,-24.5"/>
<text text-anchor="middle" x="718.5" y="-12.5" font-family="Helvetica,sans-Serif" font-size="10.00">vidre/device.cc</text>
</a>
</g>
</g>
<!-- Node4&#45;&gt;Node5 -->
<g id="edge4_Node000004_Node000005" class="edge">
<title>Node4&#45;&gt;Node5</title>
<g id="a_edge4_Node000004_Node000005"><a xlink:title=" ">
<path fill="none" stroke="#63b8ff" d="M543.01,-68.48C585.2,-55.87 651.9,-35.92 689.76,-24.6"/>
<polygon fill="#63b8ff" stroke="#63b8ff" points="541.94,-65.15 533.36,-71.37 543.94,-71.86 541.94,-65.15"/>
</a>
</g>
</g>
<!-- Node6&#45;&gt;Node4 -->
<g id="edge6_Node000006_Node000004" class="edge">
<title>Node6&#45;&gt;Node4</title>
<g id="a_edge6_Node000006_Node000004"><a xlink:title=" ">
<path fill="none" stroke="#63b8ff" d="M347.64,-176.93C349.44,-162.93 354.01,-144.13 365.5,-132 380.09,-116.59 433.91,-100.21 470.14,-90.55"/>
<polygon fill="#63b8ff" stroke="#63b8ff" points="344.15,-176.62 346.71,-186.91 351.12,-177.27 344.15,-176.62"/>
</a>
</g>
</g>
<!-- Node7 -->
<g id="Node000007" class="node">
<title>Node7</title>
<g id="a_Node000007"><a xlink:href="base_8cc.html" target="_top" xlink:title=" ">
<polygon fill="white" stroke="#666666" points="482,-151 375,-151 375,-132 482,-132 482,-151"/>
<text text-anchor="middle" x="428.5" y="-139" font-family="Helvetica,sans-Serif" font-size="10.00">vidre/device/base.cc</text>
</a>
</g>
</g>
<!-- Node6&#45;&gt;Node7 -->
<g id="edge7_Node000006_Node000007" class="edge">
<title>Node6&#45;&gt;Node7</title>
<g id="a_edge7_Node000006_Node000007"><a xlink:title=" ">
<path fill="none" stroke="#63b8ff" d="M368.28,-181.42C383.16,-171.81 402.41,-159.37 415.09,-151.17"/>
<polygon fill="#63b8ff" stroke="#63b8ff" points="366.17,-178.62 359.67,-186.98 369.97,-184.5 366.17,-178.62"/>
</a>
</g>
</g>
<!-- Node6&#45;&gt;Node8 -->
<g id="edge8_Node000006_Node000008" class="edge">
<title>Node6&#45;&gt;Node8</title>
<g id="a_edge8_Node000006_Node000008"><a xlink:title=" ">
<path fill="none" stroke="#63b8ff" d="M323.84,-181.7C307.99,-172.04 287.31,-159.44 273.73,-151.17"/>
<polygon fill="#63b8ff" stroke="#63b8ff" points="322.16,-184.77 332.52,-186.98 325.8,-178.79 322.16,-184.77"/>
</a>
</g>
</g>
<!-- Node8&#45;&gt;Node2 -->
<g id="edge9_Node000008_Node000002" class="edge">
<title>Node8&#45;&gt;Node2</title>
<g id="a_edge9_Node000008_Node000002"><a xlink:title=" ">
<path fill="none" stroke="#63b8ff" d="M230.91,-127.83C209.79,-118.47 181.06,-105.74 159.23,-96.06"/>
<polygon fill="#63b8ff" stroke="#63b8ff" points="229.75,-131.14 240.31,-131.99 232.58,-124.74 229.75,-131.14"/>
</a>
</g>
</g>
<!-- Node8&#45;&gt;Node4 -->
<g id="edge10_Node000008_Node000004" class="edge">
<title>Node8&#45;&gt;Node4</title>
<g id="a_edge10_Node000008_Node000004"><a xlink:title=" ">
<path fill="none" stroke="#63b8ff" d="M305.91,-129.5C343.76,-120.52 398.59,-107.48 446.5,-96 453.85,-94.24 461.73,-92.34 469.23,-90.53"/>
<polygon fill="#63b8ff" stroke="#63b8ff" points="304.63,-126.21 295.71,-131.92 306.24,-133.02 304.63,-126.21"/>
</a>
</g>
</g>
<!-- Node9 -->
<g id="Node000009" class="node">
<title>Node9</title>
<g id="a_Node000009"><a xlink:href="camera_8cc.html" target="_top" xlink:title=" ">
<polygon fill="white" stroke="#666666" points="318.5,-90.5 200.5,-90.5 200.5,-71.5 318.5,-71.5 318.5,-90.5"/>
<text text-anchor="middle" x="259.5" y="-78.5" font-family="Helvetica,sans-Serif" font-size="10.00">vidre/device/camera.cc</text>
</a>
</g>
</g>
<!-- Node8&#45;&gt;Node9 -->
<g id="edge11_Node000008_Node000009" class="edge">
<title>Node8&#45;&gt;Node9</title>
<g id="a_edge11_Node000008_Node000009"><a xlink:title=" ">
<path fill="none" stroke="#63b8ff" d="M259.5,-121.66C259.5,-111.24 259.5,-98.8 259.5,-90.67"/>
<polygon fill="#63b8ff" stroke="#63b8ff" points="256,-121.87 259.5,-131.87 263,-121.87 256,-121.87"/>
</a>
</g>
</g>
<!-- Node10 -->
<g id="Node000010" class="node">
<title>Node10</title>
<g id="a_Node000010"><a xlink:href="plugins_2camera_2uvc_2lib_2vidre_2uvc_2device_8hh.html" target="_top" xlink:title=" ">
<polygon fill="white" stroke="#666666" points="438,-90.5 337,-90.5 337,-71.5 438,-71.5 438,-90.5"/>
<text text-anchor="middle" x="387.5" y="-78.5" font-family="Helvetica,sans-Serif" font-size="10.00">vidre/uvc/device.hh</text>
</a>
</g>
</g>
<!-- Node8&#45;&gt;Node10 -->
<g id="edge12_Node000008_Node000010" class="edge">
<title>Node8&#45;&gt;Node10</title>
<g id="a_edge12_Node000008_Node000010"><a xlink:title=" ">
<path fill="none" stroke="#63b8ff" d="M287.33,-127.78C312.03,-116.49 347.43,-100.31 368.87,-90.52"/>
<polygon fill="#63b8ff" stroke="#63b8ff" points="285.75,-124.65 278.11,-131.99 288.66,-131.02 285.75,-124.65"/>
</a>
</g>
</g>
<!-- Node11 -->
<g id="Node000011" class="node">
<title>Node11</title>
<g id="a_Node000011"><a xlink:href="examples_2playground_2uvc_8cc.html" target="_top" xlink:title=" ">
<polygon fill="white" stroke="#666666" points="659,-30 550,-30 550,0 659,0 659,-30"/>
<text text-anchor="start" x="558" y="-18" font-family="Helvetica,sans-Serif" font-size="10.00">examples/playground</text>
<text text-anchor="middle" x="604.5" y="-7" font-family="Helvetica,sans-Serif" font-size="10.00">/uvc.cc</text>
</a>
</g>
</g>
<!-- Node10&#45;&gt;Node11 -->
<g id="edge13_Node000010_Node000011" class="edge">
<title>Node10&#45;&gt;Node11</title>
<g id="a_edge13_Node000010_Node000011"><a xlink:title=" ">
<path fill="none" stroke="#63b8ff" d="M426.55,-68.48C463.02,-57.73 517.56,-41.64 556.64,-30.12"/>
<polygon fill="#63b8ff" stroke="#63b8ff" points="425.37,-65.18 416.77,-71.37 427.35,-71.9 425.37,-65.18"/>
</a>
</g>
</g>
<!-- Node12 -->
<g id="Node000012" class="node">
<title>Node12</title>
<g id="a_Node000012"><a xlink:href="plugins_2camera_2uvc_2lib_2vidre_2uvc_2device_8cc.html" target="_top" xlink:title=" ">
<polygon fill="white" stroke="#666666" points="228,-24.5 127,-24.5 127,-5.5 228,-5.5 228,-24.5"/>
<text text-anchor="middle" x="177.5" y="-12.5" font-family="Helvetica,sans-Serif" font-size="10.00">vidre/uvc/device.cc</text>
</a>
</g>
</g>
<!-- Node10&#45;&gt;Node12 -->
<g id="edge14_Node000010_Node000012" class="edge">
<title>Node10&#45;&gt;Node12</title>
<g id="a_edge14_Node000010_Node000012"><a xlink:title=" ">
<path fill="none" stroke="#63b8ff" d="M349.45,-68.4C308.03,-55.78 242.78,-35.89 205.71,-24.6"/>
<polygon fill="#63b8ff" stroke="#63b8ff" points="348.59,-71.8 359.18,-71.37 350.63,-65.11 348.59,-71.8"/>
</a>
</g>
</g>
<!-- Node13 -->
<g id="Node000013" class="node">
<title>Node13</title>
<g id="a_Node000013"><a xlink:href="plugins_2camera_2uvc_2lib_2vidre_2uvc_2linux_2device_8cc.html" target="_top" xlink:title=" ">
<polygon fill="white" stroke="#666666" points="371,-24.5 246,-24.5 246,-5.5 371,-5.5 371,-24.5"/>
<text text-anchor="middle" x="308.5" y="-12.5" font-family="Helvetica,sans-Serif" font-size="10.00">vidre/uvc/linux/device.cc</text>
</a>
</g>
</g>
<!-- Node10&#45;&gt;Node13 -->
<g id="edge15_Node000010_Node000013" class="edge">
<title>Node10&#45;&gt;Node13</title>
<g id="a_edge15_Node000010_Node000013"><a xlink:title=" ">
<path fill="none" stroke="#63b8ff" d="M368.97,-64.99C353.5,-52.46 332,-35.04 319.24,-24.7"/>
<polygon fill="#63b8ff" stroke="#63b8ff" points="366.87,-67.79 376.85,-71.37 371.28,-62.35 366.87,-67.79"/>
</a>
</g>
</g>
<!-- Node14 -->
<g id="Node000014" class="node">
<title>Node14</title>
<g id="a_Node000014"><a xlink:href="enumerate_8cc.html" target="_top" xlink:title=" ">
<polygon fill="white" stroke="#666666" points="531.5,-24.5 389.5,-24.5 389.5,-5.5 531.5,-5.5 531.5,-24.5"/>
<text text-anchor="middle" x="460.5" y="-12.5" font-family="Helvetica,sans-Serif" font-size="10.00">vidre/uvc/linux/enumerate.cc</text>
</a>
</g>
</g>
<!-- Node10&#45;&gt;Node14 -->
<g id="edge16_Node000010_Node000014" class="edge">
<title>Node10&#45;&gt;Node14</title>
<g id="a_edge16_Node000010_Node000014"><a xlink:title=" ">
<path fill="none" stroke="#63b8ff" d="M404.98,-64.68C419.14,-52.26 438.62,-35.18 450.34,-24.91"/>
<polygon fill="#63b8ff" stroke="#63b8ff" points="402.56,-62.14 397.35,-71.37 407.17,-67.41 402.56,-62.14"/>
</a>
</g>
</g>
</g>
</svg>

<g id="navigator" transform="translate(0 0)" fill="#404254">
  <rect fill="#f2f5e9" fill-opacity="0.5" stroke="#606060" stroke-width=".5" x="0" y="0" width="60" height="60"/>
  <use id="zoomplus" xlink:href="#zoomPlus" x="17" y="9" onmousedown="handleZoom(evt,'in')"/>
  <use id="zoomminus" xlink:href="#zoomMin" x="42" y="9" onmousedown="handleZoom(evt,'out')"/>
  <use id="reset" xlink:href="#resetDef" x="30" y="36" onmousedown="handleReset()"/>
   <use id="arrowup" xlink:href="#arrowUp" x="0" y="0" onmousedown="handlePan(0,-1)"/>
  <use id="arrowright" xlink:href="#arrowRight" x="0" y="0" onmousedown="handlePan(1,0)"/>
  <use id="arrowdown" xlink:href="#arrowDown" x="0" y="0" onmousedown="handlePan(0,1)"/>
  <use id="arrowleft" xlink:href="#arrowLeft" x="0" y="0" onmousedown="handlePan(-1,0)"/>
</g>
<svg viewBox="0 0 15 15" width="100%" height="30px" preserveAspectRatio="xMaxYMin meet">
 <g id="arrow_out" transform="scale(0.3 0.3)">
  <a xlink:href="libs_2device_2vidre_2device_2config_8hh__dep__incl_org.svg" target="_base">
   <rect id="button" ry="5" rx="5" y="6" x="6" height="38" width="38"
        fill="#f2f5e9" fill-opacity="0.5" stroke="#606060" stroke-width="1.0"/>
   <path id="arrow"
     d="M 11.500037,31.436501 C 11.940474,20.09759 22.043105,11.32322 32.158766,21.979434 L 37.068811,17.246167 C 37.068811,17.246167 37.088388,32 37.088388,32 L 22.160133,31.978069 C 22.160133,31.978069 26.997745,27.140456 26.997745,27.140456 C 18.528582,18.264221 13.291696,25.230495 11.500037,31.436501 z"
     style="fill:#404040;"/>
  </a>
 </g>
</svg>

<style type='text/css'>
<![CDATA[
[data-mouse-over-selected='false'] { opacity: 0.7; }
[data-mouse-over-selected='true']  { opacity: 1.0; }
]]>
</style>
<script type="application/ecmascript"><![CDATA[
document.addEventListener('DOMContentLoaded', (event) => {
  highlightEdges();
  highlightAdjacentNodes();
});
]]></script>
</svg>
