<?xml version="1.0" encoding="UTF-8" standalone="no"?>
<!DOCTYPE svg PUBLIC "-//W3C//DTD SVG 1.1//EN"
 "http://www.w3.org/Graphics/SVG/1.1/DTD/svg11.dtd">
<!-- Generated by graphviz version 2.43.0 (0)
 -->
<!-- Title: libs/core/vidre/core/config.hh Pages: 1 -->
<svg width="515pt" height="170pt"
 viewBox="0.00 0.00 515.00 170.00" xmlns="http://www.w3.org/2000/svg" xmlns:xlink="http://www.w3.org/1999/xlink">
<g id="graph0" class="graph" transform="scale(1 1) rotate(0) translate(4 166)">
<title>libs/core/vidre/core/config.hh</title>
<!-- Node1 -->
<g id="Node000001" class="node">
<title>Node1</title>
<g id="a_Node000001"><a xlink:title=" ">
<polygon fill="#999999" stroke="#666666" points="311,-162 201,-162 201,-132 311,-132 311,-162"/>
<text text-anchor="start" x="209" y="-150" font-family="Helvetica,sans-Serif" font-size="10.00">libs/core/vidre/core</text>
<text text-anchor="middle" x="256" y="-139" font-family="Helvetica,sans-Serif" font-size="10.00">/config.hh</text>
</a>
</g>
</g>
<!-- Node2 -->
<g id="Node000002" class="node">
<title>Node2</title>
<g id="a_Node000002"><a xlink:href="config_8cc.html" target="_top" xlink:title=" ">
<polygon fill="white" stroke="#666666" points="110,-96 0,-96 0,-66 110,-66 110,-96"/>
<text text-anchor="start" x="8" y="-84" font-family="Helvetica,sans-Serif" font-size="10.00">libs/core/vidre/core</text>
<text text-anchor="middle" x="55" y="-73" font-family="Helvetica,sans-Serif" font-size="10.00">/config.cc</text>
</a>
</g>
</g>
<!-- Node1&#45;&gt;Node2 -->
<g id="edge1_Node000001_Node000002" class="edge">
<title>Node1&#45;&gt;Node2</title>
<g id="a_edge1_Node000001_Node000002"><a xlink:title=" ">
<path fill="none" stroke="#63b8ff" d="M202.16,-128.86C169.88,-118.58 129.36,-105.68 99.01,-96.01"/>
<polygon fill="#63b8ff" stroke="#63b8ff" points="201.3,-132.26 211.89,-131.95 203.42,-125.59 201.3,-132.26"/>
</a>
</g>
</g>
<!-- Node3 -->
<g id="Node000003" class="node">
<title>Node3</title>
<g id="a_Node000003"><a xlink:href="dynamic_8hh.html" target="_top" xlink:title=" ">
<polygon fill="white" stroke="#666666" points="247.5,-96 128.5,-96 128.5,-66 247.5,-66 247.5,-96"/>
<text text-anchor="start" x="136.5" y="-84" font-family="Helvetica,sans-Serif" font-size="10.00">libs/core/vidre/plugin</text>
<text text-anchor="middle" x="188" y="-73" font-family="Helvetica,sans-Serif" font-size="10.00">/dynamic.hh</text>
</a>
</g>
</g>
<!-- Node1&#45;&gt;Node3 -->
<g id="edge2_Node000001_Node000003" class="edge">
<title>Node1&#45;&gt;Node3</title>
<g id="a_edge2_Node000001_Node000003"><a xlink:title=" ">
<path fill="none" stroke="#63b8ff" d="M233.61,-124.92C223.58,-115.49 212.02,-104.61 203.05,-96.16"/>
<polygon fill="#63b8ff" stroke="#63b8ff" points="231.23,-127.49 240.91,-131.8 236.03,-122.39 231.23,-127.49"/>
</a>
</g>
</g>
<!-- Node6 -->
<g id="Node000006" class="node">
<title>Node6</title>
<g id="a_Node000006"><a xlink:href="information_8hh.html" target="_top" xlink:title=" ">
<polygon fill="white" stroke="#666666" points="384.5,-96 265.5,-96 265.5,-66 384.5,-66 384.5,-96"/>
<text text-anchor="start" x="273.5" y="-84" font-family="Helvetica,sans-Serif" font-size="10.00">libs/core/vidre/plugin</text>
<text text-anchor="middle" x="325" y="-73" font-family="Helvetica,sans-Serif" font-size="10.00">/information.hh</text>
</a>
</g>
</g>
<!-- Node1&#45;&gt;Node6 -->
<g id="edge5_Node000001_Node000006" class="edge">
<title>Node1&#45;&gt;Node6</title>
<g id="a_edge5_Node000001_Node000006"><a xlink:title=" ">
<path fill="none" stroke="#63b8ff" d="M278.72,-124.92C288.9,-115.49 300.63,-104.61 309.73,-96.16"/>
<polygon fill="#63b8ff" stroke="#63b8ff" points="276.26,-122.43 271.31,-131.8 281.03,-127.56 276.26,-122.43"/>
</a>
</g>
</g>
<!-- Node7 -->
<g id="Node000007" class="node">
<title>Node7</title>
<g id="a_Node000007"><a xlink:href="json_8hh.html" target="_top" xlink:title=" ">
<polygon fill="white" stroke="#666666" points="507,-96 403,-96 403,-66 507,-66 507,-96"/>
<text text-anchor="start" x="411" y="-84" font-family="Helvetica,sans-Serif" font-size="10.00">libs/core/vidre/util</text>
<text text-anchor="middle" x="455" y="-73" font-family="Helvetica,sans-Serif" font-size="10.00">/json.hh</text>
</a>
</g>
</g>
<!-- Node1&#45;&gt;Node7 -->
<g id="edge8_Node000001_Node000007" class="edge">
<title>Node1&#45;&gt;Node7</title>
<g id="a_edge8_Node000001_Node000007"><a xlink:title=" ">
<path fill="none" stroke="#63b8ff" d="M309.31,-128.86C341.26,-118.58 381.38,-105.68 411.43,-96.01"/>
<polygon fill="#63b8ff" stroke="#63b8ff" points="308.12,-125.56 299.67,-131.95 310.26,-132.23 308.12,-125.56"/>
</a>
</g>
</g>
<!-- Node4 -->
<g id="Node000004" class="node">
<title>Node4</title>
<g id="a_Node000004"><a xlink:href="plugin_8hh.html" target="_top" xlink:title=" ">
<polygon fill="white" stroke="#666666" points="251,-24.5 117,-24.5 117,-5.5 251,-5.5 251,-24.5"/>
<text text-anchor="middle" x="184" y="-12.5" font-family="Helvetica,sans-Serif" font-size="10.00">libs/core/vidre/plugin.hh</text>
</a>
</g>
</g>
<!-- Node3&#45;&gt;Node4 -->
<g id="edge3_Node000003_Node000004" class="edge">
<title>Node3&#45;&gt;Node4</title>
<g id="a_edge3_Node000003_Node000004"><a xlink:title=" ">
<path fill="none" stroke="#63b8ff" d="M186.48,-55.6C185.8,-44.8 185.05,-32.78 184.55,-24.84"/>
<polygon fill="#63b8ff" stroke="#63b8ff" points="183,-56.03 187.11,-65.8 189.98,-55.6 183,-56.03"/>
</a>
</g>
</g>
<!-- Node5 -->
<g id="Node000005" class="node">
<title>Node5</title>
<g id="a_Node000005"><a xlink:href="dynamic_8cc.html" target="_top" xlink:title=" ">
<polygon fill="white" stroke="#666666" points="388.5,-30 269.5,-30 269.5,0 388.5,0 388.5,-30"/>
<text text-anchor="start" x="277.5" y="-18" font-family="Helvetica,sans-Serif" font-size="10.00">libs/core/vidre/plugin</text>
<text text-anchor="middle" x="329" y="-7" font-family="Helvetica,sans-Serif" font-size="10.00">/dynamic.cc</text>
</a>
</g>
</g>
<!-- Node3&#45;&gt;Node5 -->
<g id="edge4_Node000003_Node000005" class="edge">
<title>Node3&#45;&gt;Node5</title>
<g id="a_edge4_Node000003_Node000005"><a xlink:title=" ">
<path fill="none" stroke="#63b8ff" d="M228.13,-61.78C250.36,-51.69 277.57,-39.34 298.13,-30.01"/>
<polygon fill="#63b8ff" stroke="#63b8ff" points="226.6,-58.63 218.94,-65.95 229.5,-65.01 226.6,-58.63"/>
</a>
</g>
</g>
<!-- Node6&#45;&gt;Node4 -->
<g id="edge6_Node000006_Node000004" class="edge">
<title>Node6&#45;&gt;Node4</title>
<g id="a_edge6_Node000006_Node000004"><a xlink:title=" ">
<path fill="none" stroke="#63b8ff" d="M284.86,-61.78C257.9,-49.54 223.62,-33.98 202.76,-24.52"/>
<polygon fill="#63b8ff" stroke="#63b8ff" points="283.5,-65.01 294.06,-65.95 286.4,-58.63 283.5,-65.01"/>
</a>
</g>
</g>
<!-- Node6&#45;&gt;Node5 -->
<g id="edge7_Node000006_Node000005" class="edge">
<title>Node6&#45;&gt;Node5</title>
<g id="a_edge7_Node000006_Node000005"><a xlink:title=" ">
<path fill="none" stroke="#63b8ff" d="M326.53,-55.54C327.06,-46.96 327.65,-37.61 328.11,-30.16"/>
<polygon fill="#63b8ff" stroke="#63b8ff" points="323.02,-55.6 325.89,-65.8 330,-56.03 323.02,-55.6"/>
</a>
</g>
</g>
</g>
</svg>
