<?xml version="1.0" encoding="UTF-8" standalone="no"?>
<!DOCTYPE svg PUBLIC "-//W3C//DTD SVG 1.1//EN"
 "http://www.w3.org/Graphics/SVG/1.1/DTD/svg11.dtd">
<!-- Generated by graphviz version 2.43.0 (0)
 -->
<!-- Title: libs/core/vidre/plugin.hh Pages: 1 -->
<svg width="342pt" height="192pt"
 viewBox="0.00 0.00 341.70 192.00" xmlns="http://www.w3.org/2000/svg" xmlns:xlink="http://www.w3.org/1999/xlink">

<svg id="main" version="1.1" xmlns="http://www.w3.org/2000/svg" xmlns:xlink="http://www.w3.org/1999/xlink" xml:space="preserve" onload="init(evt)">
<style type="text/css"><![CDATA[
.node, .edge {opacity: 0.7;}
.node.selected, .edge.selected {opacity: 1;}
.edge:hover path { stroke: red; }
.edge:hover polygon { stroke: red; fill: red; }
]]></style>
<script type="application/ecmascript" xlink:href="svg.min.js"/>
<svg id="graph" class="graph">
<g id="graph0" class="graph" transform="scale(1 1) rotate(0) translate(4 188)">
<title>libs/core/vidre/plugin.hh</title>
<!-- Node1 -->
<g id="Node000001" class="node">
<title>Node1</title>
<g id="a_Node000001"><a xlink:title=" ">
<polygon fill="#999999" stroke="#666666" points="154.7,-184 20.7,-184 20.7,-165 154.7,-165 154.7,-184"/>
<text text-anchor="middle" x="87.7" y="-172" font-family="Helvetica,sans-Serif" font-size="10.00">libs/core/vidre/plugin.hh</text>
</a>
</g>
</g>
<!-- Node2 -->
<g id="Node000002" class="node">
<title>Node2</title>
<g id="a_Node000002"><a xlink:href="libs_2core_2vidre_2core_2config_8hh.html" target="_top" xlink:title=" ">
<polygon fill="white" stroke="#666666" points="144.2,-74 31.2,-74 31.2,-55 144.2,-55 144.2,-74"/>
<text text-anchor="middle" x="87.7" y="-62" font-family="Helvetica,sans-Serif" font-size="10.00">vidre/core/config.hh</text>
</a>
</g>
</g>
<!-- Node1&#45;&gt;Node2 -->
<g id="edge1_Node000001_Node000002" class="edge">
<title>Node1&#45;&gt;Node2</title>
<g id="a_edge1_Node000001_Node000002"><a xlink:title=" ">
<path fill="none" stroke="#63b8ff" d="M54.3,-164.98C35.92,-158.4 14.68,-147.24 3.7,-129 -10.21,-105.88 19.84,-88.31 47.79,-77.58"/>
<polygon fill="#63b8ff" stroke="#63b8ff" points="49.29,-80.76 57.51,-74.07 46.92,-74.17 49.29,-80.76"/>
</a>
</g>
</g>
<!-- Node4 -->
<g id="Node000004" class="node">
<title>Node4</title>
<g id="a_Node000004"><a xlink:href="information_8hh.html" target="_top" xlink:title=" ">
<polygon fill="white" stroke="#666666" points="162.2,-129 13.2,-129 13.2,-110 162.2,-110 162.2,-129"/>
<text text-anchor="middle" x="87.7" y="-117" font-family="Helvetica,sans-Serif" font-size="10.00">vidre/plugin/information.hh</text>
</a>
</g>
</g>
<!-- Node1&#45;&gt;Node4 -->
<g id="edge3_Node000001_Node000004" class="edge">
<title>Node1&#45;&gt;Node4</title>
<g id="a_edge3_Node000001_Node000004"><a xlink:title=" ">
<path fill="none" stroke="#63b8ff" d="M87.7,-164.75C87.7,-157.8 87.7,-147.85 87.7,-139.13"/>
<polygon fill="#63b8ff" stroke="#63b8ff" points="91.2,-139.09 87.7,-129.09 84.2,-139.09 91.2,-139.09"/>
</a>
</g>
</g>
<!-- Node5 -->
<g id="Node000005" class="node">
<title>Node5</title>
<g id="a_Node000005"><a xlink:href="dynamic_8hh.html" target="_top" xlink:title=" ">
<polygon fill="white" stroke="#666666" points="314.7,-129 180.7,-129 180.7,-110 314.7,-110 314.7,-129"/>
<text text-anchor="middle" x="247.7" y="-117" font-family="Helvetica,sans-Serif" font-size="10.00">vidre/plugin/dynamic.hh</text>
</a>
</g>
</g>
<!-- Node1&#45;&gt;Node5 -->
<g id="edge5_Node000001_Node000005" class="edge">
<title>Node1&#45;&gt;Node5</title>
<g id="a_edge5_Node000001_Node000005"><a xlink:title=" ">
<path fill="none" stroke="#63b8ff" d="M113.41,-164.98C140.16,-156.13 182.23,-142.19 212.15,-132.28"/>
<polygon fill="#63b8ff" stroke="#63b8ff" points="213.4,-135.55 221.79,-129.08 211.2,-128.9 213.4,-135.55"/>
</a>
</g>
</g>
<!-- Node3 -->
<g id="Node000003" class="node">
<title>Node3</title>
<g id="a_Node000003"><a xlink:href="vidre_2config_8hh.html" target="_top" xlink:title=" ">
<polygon fill="white" stroke="#666666" points="132.2,-19 43.2,-19 43.2,0 132.2,0 132.2,-19"/>
<text text-anchor="middle" x="87.7" y="-7" font-family="Helvetica,sans-Serif" font-size="10.00">vidre/config.hh</text>
</a>
</g>
</g>
<!-- Node2&#45;&gt;Node3 -->
<g id="edge2_Node000002_Node000003" class="edge">
<title>Node2&#45;&gt;Node3</title>
<g id="a_edge2_Node000002_Node000003"><a xlink:title=" ">
<path fill="none" stroke="#63b8ff" d="M87.7,-54.75C87.7,-47.8 87.7,-37.85 87.7,-29.13"/>
<polygon fill="#63b8ff" stroke="#63b8ff" points="91.2,-29.09 87.7,-19.09 84.2,-29.09 91.2,-29.09"/>
</a>
</g>
</g>
<!-- Node4&#45;&gt;Node2 -->
<g id="edge4_Node000004_Node000002" class="edge">
<title>Node4&#45;&gt;Node2</title>
<g id="a_edge4_Node000004_Node000002"><a xlink:title=" ">
<path fill="none" stroke="#63b8ff" d="M87.7,-109.75C87.7,-102.8 87.7,-92.85 87.7,-84.13"/>
<polygon fill="#63b8ff" stroke="#63b8ff" points="91.2,-84.09 87.7,-74.09 84.2,-84.09 91.2,-84.09"/>
</a>
</g>
</g>
<!-- Node5&#45;&gt;Node2 -->
<g id="edge6_Node000005_Node000002" class="edge">
<title>Node5&#45;&gt;Node2</title>
<g id="a_edge6_Node000005_Node000002"><a xlink:title=" ">
<path fill="none" stroke="#63b8ff" d="M222,-109.98C195.25,-101.13 153.17,-87.19 123.25,-77.28"/>
<polygon fill="#63b8ff" stroke="#63b8ff" points="124.2,-73.9 113.61,-74.08 122,-80.55 124.2,-73.9"/>
</a>
</g>
</g>
<!-- Node6 -->
<g id="Node000006" class="node">
<title>Node6</title>
<g id="a_Node000006"><a xlink:title=" ">
<polygon fill="#e0e0e0" stroke="#999999" points="265.2,-74 184.2,-74 184.2,-55 265.2,-55 265.2,-74"/>
<text text-anchor="middle" x="224.7" y="-62" font-family="Helvetica,sans-Serif" font-size="10.00">system_error</text>
</a>
</g>
</g>
<!-- Node5&#45;&gt;Node6 -->
<g id="edge7_Node000005_Node000006" class="edge">
<title>Node5&#45;&gt;Node6</title>
<g id="a_edge7_Node000005_Node000006"><a xlink:title=" ">
<path fill="none" stroke="#63b8ff" d="M243.9,-109.75C240.79,-102.57 236.28,-92.18 232.41,-83.27"/>
<polygon fill="#63b8ff" stroke="#63b8ff" points="235.62,-81.87 228.43,-74.09 229.2,-84.66 235.62,-81.87"/>
</a>
</g>
</g>
<!-- Node7 -->
<g id="Node000007" class="node">
<title>Node7</title>
<g id="a_Node000007"><a xlink:title=" ">
<polygon fill="#e0e0e0" stroke="#999999" points="333.7,-74 283.7,-74 283.7,-55 333.7,-55 333.7,-74"/>
<text text-anchor="middle" x="308.7" y="-62" font-family="Helvetica,sans-Serif" font-size="10.00">dlfcn.h</text>
</a>
</g>
</g>
<!-- Node5&#45;&gt;Node7 -->
<g id="edge8_Node000005_Node000007" class="edge">
<title>Node5&#45;&gt;Node7</title>
<g id="a_edge8_Node000005_Node000007"><a xlink:title=" ">
<path fill="none" stroke="#63b8ff" d="M257.5,-109.98C266.52,-102.15 280.11,-90.34 291.02,-80.86"/>
<polygon fill="#63b8ff" stroke="#63b8ff" points="293.47,-83.37 298.72,-74.17 288.88,-78.09 293.47,-83.37"/>
</a>
</g>
</g>
</g>
</svg>
</svg>

<style type='text/css'>
<![CDATA[
[data-mouse-over-selected='false'] { opacity: 0.7; }
[data-mouse-over-selected='true']  { opacity: 1.0; }
]]>
</style>
<script type="application/ecmascript"><![CDATA[
document.addEventListener('DOMContentLoaded', (event) => {
  highlightEdges();
  highlightAdjacentNodes();
});
]]></script>
</svg>
