<?xml version="1.0" encoding="UTF-8" standalone="no"?>
<!DOCTYPE svg PUBLIC "-//W3C//DTD SVG 1.1//EN"
 "http://www.w3.org/Graphics/SVG/1.1/DTD/svg11.dtd">
<!-- Generated by graphviz version 2.43.0 (0)
 -->
<!-- Title: libs/core/vidre/program.hh Pages: 1 -->
<svg width="657pt" height="247pt"
 viewBox="0.00 0.00 657.00 247.00" xmlns="http://www.w3.org/2000/svg" xmlns:xlink="http://www.w3.org/1999/xlink">
<g id="graph0" class="graph" transform="scale(1 1) rotate(0) translate(4 243)">
<title>libs/core/vidre/program.hh</title>
<!-- Node1 -->
<g id="Node000001" class="node">
<title>Node1</title>
<g id="a_Node000001"><a xlink:title=" ">
<polygon fill="#999999" stroke="#666666" points="367,-239 222,-239 222,-220 367,-220 367,-239"/>
<text text-anchor="middle" x="294.5" y="-227" font-family="Helvetica,sans-Serif" font-size="10.00">libs/core/vidre/program.hh</text>
</a>
</g>
</g>
<!-- Node2 -->
<g id="Node000002" class="node">
<title>Node2</title>
<g id="a_Node000002"><a xlink:href="libs_2core_2vidre_2core_2config_8hh.html" target="_top" xlink:title=" ">
<polygon fill="white" stroke="#666666" points="389,-74 276,-74 276,-55 389,-55 389,-74"/>
<text text-anchor="middle" x="332.5" y="-62" font-family="Helvetica,sans-Serif" font-size="10.00">vidre/core/config.hh</text>
</a>
</g>
</g>
<!-- Node1&#45;&gt;Node2 -->
<g id="edge1_Node000001_Node000002" class="edge">
<title>Node1&#45;&gt;Node2</title>
<g id="a_edge1_Node000001_Node000002"><a xlink:title=" ">
<path fill="none" stroke="#63b8ff" d="M296.54,-219.74C302.5,-194.2 319.93,-119.43 328.13,-84.23"/>
<polygon fill="#63b8ff" stroke="#63b8ff" points="331.58,-84.84 330.45,-74.31 324.77,-83.25 331.58,-84.84"/>
</a>
</g>
</g>
<!-- Node5 -->
<g id="Node000005" class="node">
<title>Node5</title>
<g id="a_Node000005"><a xlink:href="filesystem_8hh.html" target="_top" xlink:title=" ">
<polygon fill="white" stroke="#666666" points="252,-129 123,-129 123,-110 252,-110 252,-129"/>
<text text-anchor="middle" x="187.5" y="-117" font-family="Helvetica,sans-Serif" font-size="10.00">vidre/util/filesystem.hh</text>
</a>
</g>
</g>
<!-- Node1&#45;&gt;Node5 -->
<g id="edge4_Node000001_Node000005" class="edge">
<title>Node1&#45;&gt;Node5</title>
<g id="a_edge4_Node000001_Node000005"><a xlink:title=" ">
<path fill="none" stroke="#63b8ff" d="M285.74,-219.66C267.71,-201.46 226.19,-159.55 203.32,-136.47"/>
<polygon fill="#63b8ff" stroke="#63b8ff" points="205.6,-133.8 196.08,-129.16 200.63,-138.73 205.6,-133.8"/>
</a>
</g>
</g>
<!-- Node10 -->
<g id="Node000010" class="node">
<title>Node10</title>
<g id="a_Node000010"><a xlink:href="variant_8hh.html" target="_top" xlink:title=" ">
<polygon fill="white" stroke="#666666" points="453,-184 340,-184 340,-165 453,-165 453,-184"/>
<text text-anchor="middle" x="396.5" y="-172" font-family="Helvetica,sans-Serif" font-size="10.00">vidre/util/variant.hh</text>
</a>
</g>
</g>
<!-- Node1&#45;&gt;Node10 -->
<g id="edge10_Node000001_Node000010" class="edge">
<title>Node1&#45;&gt;Node10</title>
<g id="a_edge10_Node000001_Node000010"><a xlink:title=" ">
<path fill="none" stroke="#63b8ff" d="M310.89,-219.98C327.07,-211.57 352.07,-198.59 370.88,-188.81"/>
<polygon fill="#63b8ff" stroke="#63b8ff" points="372.55,-191.89 379.81,-184.17 369.33,-185.68 372.55,-191.89"/>
</a>
</g>
</g>
<!-- Node3 -->
<g id="Node000003" class="node">
<title>Node3</title>
<g id="a_Node000003"><a xlink:href="vidre_2config_8hh.html" target="_top" xlink:title=" ">
<polygon fill="white" stroke="#666666" points="333,-19 244,-19 244,0 333,0 333,-19"/>
<text text-anchor="middle" x="288.5" y="-7" font-family="Helvetica,sans-Serif" font-size="10.00">vidre/config.hh</text>
</a>
</g>
</g>
<!-- Node2&#45;&gt;Node3 -->
<g id="edge2_Node000002_Node000003" class="edge">
<title>Node2&#45;&gt;Node3</title>
<g id="a_edge2_Node000002_Node000003"><a xlink:title=" ">
<path fill="none" stroke="#63b8ff" d="M325.23,-54.75C318.96,-47.18 309.71,-36.05 302.07,-26.84"/>
<polygon fill="#63b8ff" stroke="#63b8ff" points="304.71,-24.55 295.63,-19.09 299.33,-29.02 304.71,-24.55"/>
</a>
</g>
</g>
<!-- Node4 -->
<g id="Node000004" class="node">
<title>Node4</title>
<g id="a_Node000004"><a xlink:title=" ">
<polygon fill="#e0e0e0" stroke="#999999" points="401.5,-19 351.5,-19 351.5,0 401.5,0 401.5,-19"/>
<text text-anchor="middle" x="376.5" y="-7" font-family="Helvetica,sans-Serif" font-size="10.00">cstdint</text>
</a>
</g>
</g>
<!-- Node2&#45;&gt;Node4 -->
<g id="edge3_Node000002_Node000004" class="edge">
<title>Node2&#45;&gt;Node4</title>
<g id="a_edge3_Node000002_Node000004"><a xlink:title=" ">
<path fill="none" stroke="#63b8ff" d="M339.77,-54.75C346.04,-47.18 355.29,-36.05 362.93,-26.84"/>
<polygon fill="#63b8ff" stroke="#63b8ff" points="365.67,-29.02 369.37,-19.09 360.29,-24.55 365.67,-29.02"/>
</a>
</g>
</g>
<!-- Node5&#45;&gt;Node2 -->
<g id="edge5_Node000005_Node000002" class="edge">
<title>Node5&#45;&gt;Node2</title>
<g id="a_edge5_Node000005_Node000002"><a xlink:title=" ">
<path fill="none" stroke="#63b8ff" d="M210.8,-109.98C234.75,-101.23 272.28,-87.51 299.33,-77.62"/>
<polygon fill="#63b8ff" stroke="#63b8ff" points="300.59,-80.89 308.78,-74.17 298.19,-74.32 300.59,-80.89"/>
</a>
</g>
</g>
<!-- Node6 -->
<g id="Node000006" class="node">
<title>Node6</title>
<g id="a_Node000006"><a xlink:title=" ">
<polygon fill="#e0e0e0" stroke="#999999" points="133.5,-74 65.5,-74 65.5,-55 133.5,-55 133.5,-74"/>
<text text-anchor="middle" x="99.5" y="-62" font-family="Helvetica,sans-Serif" font-size="10.00">filesystem</text>
</a>
</g>
</g>
<!-- Node5&#45;&gt;Node6 -->
<g id="edge6_Node000005_Node000006" class="edge">
<title>Node5&#45;&gt;Node6</title>
<g id="a_edge6_Node000005_Node000006"><a xlink:title=" ">
<path fill="none" stroke="#63b8ff" d="M173.36,-109.98C159.71,-101.77 138.81,-89.18 122.72,-79.49"/>
<polygon fill="#63b8ff" stroke="#63b8ff" points="124.27,-76.33 113.9,-74.17 120.66,-82.33 124.27,-76.33"/>
</a>
</g>
</g>
<!-- Node7 -->
<g id="Node000007" class="node">
<title>Node7</title>
<g id="a_Node000007"><a xlink:title=" ">
<polygon fill="#e0e0e0" stroke="#999999" points="195.5,-74 151.5,-74 151.5,-55 195.5,-55 195.5,-74"/>
<text text-anchor="middle" x="173.5" y="-62" font-family="Helvetica,sans-Serif" font-size="10.00">regex</text>
</a>
</g>
</g>
<!-- Node5&#45;&gt;Node7 -->
<g id="edge7_Node000005_Node000007" class="edge">
<title>Node5&#45;&gt;Node7</title>
<g id="a_edge7_Node000005_Node000007"><a xlink:title=" ">
<path fill="none" stroke="#63b8ff" d="M185.19,-109.75C183.33,-102.72 180.66,-92.62 178.35,-83.84"/>
<polygon fill="#63b8ff" stroke="#63b8ff" points="181.71,-82.86 175.77,-74.09 174.94,-84.65 181.71,-82.86"/>
</a>
</g>
</g>
<!-- Node8 -->
<g id="Node000008" class="node">
<title>Node8</title>
<g id="a_Node000008"><a xlink:title=" ">
<polygon fill="#e0e0e0" stroke="#999999" points="47,-74 0,-74 0,-55 47,-55 47,-74"/>
<text text-anchor="middle" x="23.5" y="-62" font-family="Helvetica,sans-Serif" font-size="10.00">vector</text>
</a>
</g>
</g>
<!-- Node5&#45;&gt;Node8 -->
<g id="edge8_Node000005_Node000008" class="edge">
<title>Node5&#45;&gt;Node8</title>
<g id="a_edge8_Node000005_Node000008"><a xlink:title=" ">
<path fill="none" stroke="#63b8ff" d="M161.15,-109.98C132.84,-100.84 87.78,-86.27 56.98,-76.32"/>
<polygon fill="#63b8ff" stroke="#63b8ff" points="57.71,-72.88 47.12,-73.13 55.56,-79.54 57.71,-72.88"/>
</a>
</g>
</g>
<!-- Node9 -->
<g id="Node000009" class="node">
<title>Node9</title>
<g id="a_Node000009"><a xlink:title=" ">
<polygon fill="#e0e0e0" stroke="#999999" points="257.5,-74 213.5,-74 213.5,-55 257.5,-55 257.5,-74"/>
<text text-anchor="middle" x="235.5" y="-62" font-family="Helvetica,sans-Serif" font-size="10.00">string</text>
</a>
</g>
</g>
<!-- Node5&#45;&gt;Node9 -->
<g id="edge9_Node000005_Node000009" class="edge">
<title>Node5&#45;&gt;Node9</title>
<g id="a_edge9_Node000005_Node000009"><a xlink:title=" ">
<path fill="none" stroke="#63b8ff" d="M195.43,-109.75C202.35,-102.11 212.57,-90.82 220.95,-81.56"/>
<polygon fill="#63b8ff" stroke="#63b8ff" points="223.6,-83.85 227.72,-74.09 218.41,-79.15 223.6,-83.85"/>
</a>
</g>
</g>
<!-- Node10&#45;&gt;Node2 -->
<g id="edge11_Node000010_Node000002" class="edge">
<title>Node10&#45;&gt;Node2</title>
<g id="a_edge11_Node000010_Node000002"><a xlink:title=" ">
<path fill="none" stroke="#63b8ff" d="M385.22,-164.76C375.31,-156.52 361.14,-143.33 352.5,-129 344.11,-115.08 338.9,-97.29 335.91,-84.09"/>
<polygon fill="#63b8ff" stroke="#63b8ff" points="339.33,-83.35 333.9,-74.26 332.48,-84.75 339.33,-83.35"/>
</a>
</g>
</g>
<!-- Node11 -->
<g id="Node000011" class="node">
<title>Node11</title>
<g id="a_Node000011"><a xlink:href="core_2vidre_2exception_8hh.html" target="_top" xlink:title=" ">
<polygon fill="white" stroke="#666666" points="468,-129 361,-129 361,-110 468,-110 468,-129"/>
<text text-anchor="middle" x="414.5" y="-117" font-family="Helvetica,sans-Serif" font-size="10.00">vidre/exception.hh</text>
</a>
</g>
</g>
<!-- Node10&#45;&gt;Node11 -->
<g id="edge12_Node000010_Node000011" class="edge">
<title>Node10&#45;&gt;Node11</title>
<g id="a_edge12_Node000010_Node000011"><a xlink:title=" ">
<path fill="none" stroke="#63b8ff" d="M399.47,-164.75C401.86,-157.72 405.29,-147.62 408.27,-138.84"/>
<polygon fill="#63b8ff" stroke="#63b8ff" points="411.68,-139.68 411.58,-129.09 405.05,-137.43 411.68,-139.68"/>
</a>
</g>
</g>
<!-- Node14 -->
<g id="Node000014" class="node">
<title>Node14</title>
<g id="a_Node000014"><a xlink:title=" ">
<polygon fill="#e0e0e0" stroke="#999999" points="537,-129 486,-129 486,-110 537,-110 537,-129"/>
<text text-anchor="middle" x="511.5" y="-117" font-family="Helvetica,sans-Serif" font-size="10.00">variant</text>
</a>
</g>
</g>
<!-- Node10&#45;&gt;Node14 -->
<g id="edge17_Node000010_Node000014" class="edge">
<title>Node10&#45;&gt;Node14</title>
<g id="a_edge17_Node000010_Node000014"><a xlink:title=" ">
<path fill="none" stroke="#63b8ff" d="M414.98,-164.98C433.48,-156.46 462.18,-143.23 483.48,-133.41"/>
<polygon fill="#63b8ff" stroke="#63b8ff" points="485.07,-136.53 492.69,-129.17 482.14,-130.18 485.07,-136.53"/>
</a>
</g>
</g>
<!-- Node11&#45;&gt;Node2 -->
<g id="edge13_Node000011_Node000002" class="edge">
<title>Node11&#45;&gt;Node2</title>
<g id="a_edge13_Node000011_Node000002"><a xlink:title=" ">
<path fill="none" stroke="#63b8ff" d="M401.33,-109.98C388.73,-101.84 369.5,-89.41 354.56,-79.76"/>
<polygon fill="#63b8ff" stroke="#63b8ff" points="356.21,-76.66 345.91,-74.17 352.41,-82.54 356.21,-76.66"/>
</a>
</g>
</g>
<!-- Node11&#45;&gt;Node9 -->
<g id="edge15_Node000011_Node000009" class="edge">
<title>Node11&#45;&gt;Node9</title>
<g id="a_edge15_Node000011_Node000009"><a xlink:title=" ">
<path fill="none" stroke="#63b8ff" d="M385.74,-109.98C353.41,-100.41 301.05,-84.91 267.46,-74.96"/>
<polygon fill="#63b8ff" stroke="#63b8ff" points="268.27,-71.55 257.69,-72.07 266.28,-78.26 268.27,-71.55"/>
</a>
</g>
</g>
<!-- Node12 -->
<g id="Node000012" class="node">
<title>Node12</title>
<g id="a_Node000012"><a xlink:title=" ">
<polygon fill="#e0e0e0" stroke="#999999" points="649,-74 518,-74 518,-55 649,-55 649,-74"/>
<text text-anchor="middle" x="583.5" y="-62" font-family="Helvetica,sans-Serif" font-size="10.00">boost/exception/all.hpp</text>
</a>
</g>
</g>
<!-- Node11&#45;&gt;Node12 -->
<g id="edge14_Node000011_Node000012" class="edge">
<title>Node11&#45;&gt;Node12</title>
<g id="a_edge14_Node000011_Node000012"><a xlink:title=" ">
<path fill="none" stroke="#63b8ff" d="M441.65,-109.98C470.03,-101.09 514.73,-87.07 546.36,-77.15"/>
<polygon fill="#63b8ff" stroke="#63b8ff" points="547.64,-80.41 556.13,-74.08 545.55,-73.73 547.64,-80.41"/>
</a>
</g>
</g>
<!-- Node13 -->
<g id="Node000013" class="node">
<title>Node13</title>
<g id="a_Node000013"><a xlink:title=" ">
<polygon fill="#e0e0e0" stroke="#999999" points="500,-74 407,-74 407,-55 500,-55 500,-74"/>
<text text-anchor="middle" x="453.5" y="-62" font-family="Helvetica,sans-Serif" font-size="10.00">source_location</text>
</a>
</g>
</g>
<!-- Node11&#45;&gt;Node13 -->
<g id="edge16_Node000011_Node000013" class="edge">
<title>Node11&#45;&gt;Node13</title>
<g id="a_edge16_Node000011_Node000013"><a xlink:title=" ">
<path fill="none" stroke="#63b8ff" d="M420.94,-109.75C426.39,-102.34 434.36,-91.5 441.06,-82.41"/>
<polygon fill="#63b8ff" stroke="#63b8ff" points="444.07,-84.22 447.18,-74.09 438.43,-80.07 444.07,-84.22"/>
</a>
</g>
</g>
</g>
</svg>
