<?xml version="1.0" encoding="UTF-8" standalone="no"?>
<!DOCTYPE svg PUBLIC "-//W3C//DTD SVG 1.1//EN"
 "http://www.w3.org/Graphics/SVG/1.1/DTD/svg11.dtd">
<!-- Generated by graphviz version 2.43.0 (0)
 -->
<!-- Title: vidre/config.hh Pages: 1 -->
<!--zoomable 225 -->

<svg id="main" version="1.1" xmlns="http://www.w3.org/2000/svg" xmlns:xlink="http://www.w3.org/1999/xlink" xml:space="preserve" onload="init(evt)">
<style type="text/css"><![CDATA[
.node, .edge {opacity: 0.7;}
.node.selected, .edge.selected {opacity: 1;}
.edge:hover path { stroke: red; }
.edge:hover polygon { stroke: red; fill: red; }
]]></style>

<defs>
  <circle id="rim" cx="0" cy="0" r="7"/>
  <circle id="rim2" cx="0" cy="0" r="3.5"/>
  <g id="zoomPlus">
    <use xlink:href="#rim" fill="#404040"><set attributeName="fill" to="#808080" begin="zoomplus.mouseover" end="zoomplus.mouseout"/></use>
    <path d="M-4,0h8M0,-4v8" fill="none" stroke="white" stroke-width="1.5" pointer-events="none"/>
  </g>
  <g id="zoomMin">
    <use xlink:href="#rim" fill="#404040"><set attributeName="fill" to="#808080" begin="zoomminus.mouseover" end="zoomminus.mouseout"/></use>
    <path d="M-4,0h8" fill="none" stroke="white" stroke-width="1.5" pointer-events="none"/>
  </g>
  <g id="arrowUp" transform="translate(30 24)">
    <use xlink:href="#rim"/>
    <path pointer-events="none" fill="none" stroke="white" stroke-width="1.5" d="M0,-3.0v7 M-2.5,-0.5L0,-3.0L2.5,-0.5"/>
  </g>
  <g id="arrowRight" transform="rotate(90) translate(36 -43)">
    <use xlink:href="#rim"/>
    <path pointer-events="none" fill="none" stroke="white" stroke-width="1.5" d="M0,-3.0v7 M-2.5,-0.5L0,-3.0L2.5,-0.5"/>
  </g>
  <g id="arrowDown" transform="rotate(180) translate(-30 -48)">
    <use xlink:href="#rim"/>
    <path pointer-events="none" fill="none" stroke="white" stroke-width="1.5" d="M0,-3.0v7 M-2.5,-0.5L0,-3.0L2.5,-0.5"/>
  </g>
  <g id="arrowLeft" transform="rotate(270) translate(-36 17)">
    <use xlink:href="#rim"/>
    <path pointer-events="none" fill="none" stroke="white" stroke-width="1.5" d="M0,-3.0v7 M-2.5,-0.5L0,-3.0L2.5,-0.5"/>
  </g>
  <g id="resetDef">
    <use xlink:href="#rim2" fill="#404040"><set attributeName="fill" to="#808080" begin="reset.mouseover" end="reset.mouseout"/></use>
  </g>
</defs>
<script type="application/ecmascript">
var viewWidth = 721;
var viewHeight = 225;
var sectionId = 'dynsection-0';
</script>
<script type="application/ecmascript" xlink:href="svg.min.js"/>
<svg id="graph" class="graph">
<g id="viewport">
<title>vidre/config.hh</title>
<!-- Node1 -->
<g id="Node000001" class="node">
<title>Node1</title>
<g id="a_Node000001"><a xlink:title=" ">
<polygon fill="#999999" stroke="#666666" points="397.55,-217 308.55,-217 308.55,-198 397.55,-198 397.55,-217"/>
<text text-anchor="middle" x="353.05" y="-205" font-family="Helvetica,sans-Serif" font-size="10.00">vidre/config.hh</text>
</a>
</g>
</g>
<!-- Node2 -->
<g id="Node000002" class="node">
<title>Node2</title>
<g id="a_Node000002"><a xlink:href="libs_2core_2vidre_2core_2config_8hh.html" target="_top" xlink:title=" ">
<polygon fill="white" stroke="#666666" points="259.05,-162 149.05,-162 149.05,-132 259.05,-132 259.05,-162"/>
<text text-anchor="start" x="157.05" y="-150" font-family="Helvetica,sans-Serif" font-size="10.00">libs/core/vidre/core</text>
<text text-anchor="middle" x="204.05" y="-139" font-family="Helvetica,sans-Serif" font-size="10.00">/config.hh</text>
</a>
</g>
</g>
<!-- Node1&#45;&gt;Node2 -->
<g id="edge1_Node000001_Node000002" class="edge">
<title>Node1&#45;&gt;Node2</title>
<g id="a_edge1_Node000001_Node000002"><a xlink:title=" ">
<path fill="none" stroke="#63b8ff" d="M322.05,-194.33C298.11,-184.93 264.95,-171.91 239.87,-162.06"/>
<polygon fill="#63b8ff" stroke="#63b8ff" points="320.79,-197.6 331.38,-197.99 323.35,-191.08 320.79,-197.6"/>
</a>
</g>
</g>
<!-- Node5 -->
<g id="Node000005" class="node">
<title>Node5</title>
<g id="a_Node000005"><a xlink:href="plugin_8hh.html" target="_top" xlink:title=" ">
<polygon fill="white" stroke="#666666" points="141.05,-24.5 7.05,-24.5 7.05,-5.5 141.05,-5.5 141.05,-24.5"/>
<text text-anchor="middle" x="74.05" y="-12.5" font-family="Helvetica,sans-Serif" font-size="10.00">libs/core/vidre/plugin.hh</text>
</a>
</g>
</g>
<!-- Node1&#45;&gt;Node5 -->
<g id="edge12_Node000001_Node000005" class="edge">
<title>Node1&#45;&gt;Node5</title>
<g id="a_edge12_Node000001_Node000005"><a xlink:title=" ">
<path fill="none" stroke="#63b8ff" d="M298.42,-197.83C208.61,-182.26 36.52,-146.42 5.05,-96 -2.02,-84.69 -1.02,-77.88 5.05,-66 15.06,-46.37 36.8,-32.65 53.21,-24.61"/>
<polygon fill="#63b8ff" stroke="#63b8ff" points="297.98,-201.31 308.43,-199.54 299.16,-194.41 297.98,-201.31"/>
</a>
</g>
</g>
<!-- Node9 -->
<g id="Node000009" class="node">
<title>Node9</title>
<g id="a_Node000009"><a xlink:href="exception_8hh.html" target="_top" xlink:title=" ">
<polygon fill="white" stroke="#666666" points="429.05,-156.5 277.05,-156.5 277.05,-137.5 429.05,-137.5 429.05,-156.5"/>
<text text-anchor="middle" x="353.05" y="-144.5" font-family="Helvetica,sans-Serif" font-size="10.00">libs/core/vidre/exception.hh</text>
</a>
</g>
</g>
<!-- Node1&#45;&gt;Node9 -->
<g id="edge10_Node000001_Node000009" class="edge">
<title>Node1&#45;&gt;Node9</title>
<g id="a_edge10_Node000001_Node000009"><a xlink:title=" ">
<path fill="none" stroke="#63b8ff" d="M353.05,-187.66C353.05,-177.24 353.05,-164.8 353.05,-156.67"/>
<polygon fill="#63b8ff" stroke="#63b8ff" points="349.55,-187.87 353.05,-197.87 356.55,-187.87 349.55,-187.87"/>
</a>
</g>
</g>
<!-- Node10 -->
<g id="Node000010" class="node">
<title>Node10</title>
<g id="a_Node000010"><a xlink:href="memory_8hh.html" target="_top" xlink:title=" ">
<polygon fill="white" stroke="#666666" points="590.55,-156.5 447.55,-156.5 447.55,-137.5 590.55,-137.5 590.55,-156.5"/>
<text text-anchor="middle" x="519.05" y="-144.5" font-family="Helvetica,sans-Serif" font-size="10.00">libs/core/vidre/memory.hh</text>
</a>
</g>
</g>
<!-- Node1&#45;&gt;Node10 -->
<g id="edge11_Node000001_Node000010" class="edge">
<title>Node1&#45;&gt;Node10</title>
<g id="a_edge11_Node000001_Node000010"><a xlink:title=" ">
<path fill="none" stroke="#63b8ff" d="M387.03,-194.52C419.12,-183.21 466.47,-166.53 494.88,-156.52"/>
<polygon fill="#63b8ff" stroke="#63b8ff" points="385.45,-191.37 377.18,-197.99 387.78,-197.97 385.45,-191.37"/>
</a>
</g>
</g>
<!-- Node11 -->
<g id="Node000011" class="node">
<title>Node11</title>
<g id="a_Node000011"><a xlink:href="uuid_8hh.html" target="_top" xlink:title=" ">
<polygon fill="white" stroke="#666666" points="713.05,-162 609.05,-162 609.05,-132 713.05,-132 713.05,-162"/>
<text text-anchor="start" x="617.05" y="-150" font-family="Helvetica,sans-Serif" font-size="10.00">libs/core/vidre/util</text>
<text text-anchor="middle" x="661.05" y="-139" font-family="Helvetica,sans-Serif" font-size="10.00">/uuid.hh</text>
</a>
</g>
</g>
<!-- Node1&#45;&gt;Node11 -->
<g id="edge13_Node000001_Node000011" class="edge">
<title>Node1&#45;&gt;Node11</title>
<g id="a_edge13_Node000001_Node000011"><a xlink:title=" ">
<path fill="none" stroke="#63b8ff" d="M407.77,-197.41C457.92,-188.89 534.15,-175.49 600.05,-162 602.92,-161.41 605.87,-160.79 608.84,-160.15"/>
<polygon fill="#63b8ff" stroke="#63b8ff" points="407.06,-193.98 397.79,-199.09 408.23,-200.88 407.06,-193.98"/>
</a>
</g>
</g>
<!-- Node3 -->
<g id="Node000003" class="node">
<title>Node3</title>
<g id="a_Node000003"><a xlink:href="config_8cc.html" target="_top" xlink:title=" ">
<polygon fill="white" stroke="#666666" points="384.05,-96 274.05,-96 274.05,-66 384.05,-66 384.05,-96"/>
<text text-anchor="start" x="282.05" y="-84" font-family="Helvetica,sans-Serif" font-size="10.00">libs/core/vidre/core</text>
<text text-anchor="middle" x="329.05" y="-73" font-family="Helvetica,sans-Serif" font-size="10.00">/config.cc</text>
</a>
</g>
</g>
<!-- Node2&#45;&gt;Node3 -->
<g id="edge2_Node000002_Node000003" class="edge">
<title>Node2&#45;&gt;Node3</title>
<g id="a_edge2_Node000002_Node000003"><a xlink:title=" ">
<path fill="none" stroke="#63b8ff" d="M240.42,-127.38C259.98,-117.36 283.7,-105.22 301.68,-96.01"/>
<polygon fill="#63b8ff" stroke="#63b8ff" points="238.78,-124.28 231.48,-131.95 241.97,-130.51 238.78,-124.28"/>
</a>
</g>
</g>
<!-- Node4 -->
<g id="Node000004" class="node">
<title>Node4</title>
<g id="a_Node000004"><a xlink:href="dynamic_8hh.html" target="_top" xlink:title=" ">
<polygon fill="white" stroke="#666666" points="521.55,-96 402.55,-96 402.55,-66 521.55,-66 521.55,-96"/>
<text text-anchor="start" x="410.55" y="-84" font-family="Helvetica,sans-Serif" font-size="10.00">libs/core/vidre/plugin</text>
<text text-anchor="middle" x="462.05" y="-73" font-family="Helvetica,sans-Serif" font-size="10.00">/dynamic.hh</text>
</a>
</g>
</g>
<!-- Node2&#45;&gt;Node4 -->
<g id="edge3_Node000002_Node000004" class="edge">
<title>Node2&#45;&gt;Node4</title>
<g id="a_edge3_Node000002_Node000004"><a xlink:title=" ">
<path fill="none" stroke="#63b8ff" d="M268.93,-129.91C310.91,-119.49 365.05,-106.06 405.31,-96.07"/>
<polygon fill="#63b8ff" stroke="#63b8ff" points="267.94,-126.54 259.08,-132.35 269.62,-133.34 267.94,-126.54"/>
</a>
</g>
</g>
<!-- Node7 -->
<g id="Node000007" class="node">
<title>Node7</title>
<g id="a_Node000007"><a xlink:href="information_8hh.html" target="_top" xlink:title=" ">
<polygon fill="white" stroke="#666666" points="133.55,-96 14.55,-96 14.55,-66 133.55,-66 133.55,-96"/>
<text text-anchor="start" x="22.55" y="-84" font-family="Helvetica,sans-Serif" font-size="10.00">libs/core/vidre/plugin</text>
<text text-anchor="middle" x="74.05" y="-73" font-family="Helvetica,sans-Serif" font-size="10.00">/information.hh</text>
</a>
</g>
</g>
<!-- Node2&#45;&gt;Node7 -->
<g id="edge6_Node000002_Node000007" class="edge">
<title>Node2&#45;&gt;Node7</title>
<g id="a_edge6_Node000002_Node000007"><a xlink:title=" ">
<path fill="none" stroke="#63b8ff" d="M166.49,-127.51C146.1,-117.47 121.29,-105.26 102.51,-96.01"/>
<polygon fill="#63b8ff" stroke="#63b8ff" points="165,-130.68 175.52,-131.95 168.09,-124.4 165,-130.68"/>
</a>
</g>
</g>
<!-- Node8 -->
<g id="Node000008" class="node">
<title>Node8</title>
<g id="a_Node000008"><a xlink:href="json_8hh.html" target="_top" xlink:title=" ">
<polygon fill="white" stroke="#666666" points="256.05,-96 152.05,-96 152.05,-66 256.05,-66 256.05,-96"/>
<text text-anchor="start" x="160.05" y="-84" font-family="Helvetica,sans-Serif" font-size="10.00">libs/core/vidre/util</text>
<text text-anchor="middle" x="204.05" y="-73" font-family="Helvetica,sans-Serif" font-size="10.00">/json.hh</text>
</a>
</g>
</g>
<!-- Node2&#45;&gt;Node8 -->
<g id="edge9_Node000002_Node000008" class="edge">
<title>Node2&#45;&gt;Node8</title>
<g id="a_edge9_Node000002_Node000008"><a xlink:title=" ">
<path fill="none" stroke="#63b8ff" d="M204.05,-121.54C204.05,-112.96 204.05,-103.61 204.05,-96.16"/>
<polygon fill="#63b8ff" stroke="#63b8ff" points="200.55,-121.8 204.05,-131.8 207.55,-121.8 200.55,-121.8"/>
</a>
</g>
</g>
<!-- Node4&#45;&gt;Node5 -->
<g id="edge4_Node000004_Node000005" class="edge">
<title>Node4&#45;&gt;Node5</title>
<g id="a_edge4_Node000004_Node000005"><a xlink:title=" ">
<path fill="none" stroke="#63b8ff" d="M392.32,-65.92C295.9,-48.74 195.6,-33.58 133.56,-24.52"/>
<polygon fill="#63b8ff" stroke="#63b8ff" points="391.78,-69.38 402.24,-67.69 393.01,-62.49 391.78,-69.38"/>
</a>
</g>
</g>
<!-- Node6 -->
<g id="Node000006" class="node">
<title>Node6</title>
<g id="a_Node000006"><a xlink:href="dynamic_8cc.html" target="_top" xlink:title=" ">
<polygon fill="white" stroke="#666666" points="399.55,-30 280.55,-30 280.55,0 399.55,0 399.55,-30"/>
<text text-anchor="start" x="288.55" y="-18" font-family="Helvetica,sans-Serif" font-size="10.00">libs/core/vidre/plugin</text>
<text text-anchor="middle" x="340.05" y="-7" font-family="Helvetica,sans-Serif" font-size="10.00">/dynamic.cc</text>
</a>
</g>
</g>
<!-- Node4&#45;&gt;Node6 -->
<g id="edge5_Node000004_Node000006" class="edge">
<title>Node4&#45;&gt;Node6</title>
<g id="a_edge5_Node000004_Node000006"><a xlink:title=" ">
<path fill="none" stroke="#63b8ff" d="M426.29,-61.24C407.25,-51.25 384.22,-39.18 366.76,-30.01"/>
<polygon fill="#63b8ff" stroke="#63b8ff" points="424.79,-64.41 435.27,-65.95 428.04,-58.21 424.79,-64.41"/>
</a>
</g>
</g>
<!-- Node7&#45;&gt;Node5 -->
<g id="edge7_Node000007_Node000005" class="edge">
<title>Node7&#45;&gt;Node5</title>
<g id="a_edge7_Node000007_Node000005"><a xlink:title=" ">
<path fill="none" stroke="#63b8ff" d="M74.05,-55.6C74.05,-44.8 74.05,-32.78 74.05,-24.84"/>
<polygon fill="#63b8ff" stroke="#63b8ff" points="70.55,-55.8 74.05,-65.8 77.55,-55.8 70.55,-55.8"/>
</a>
</g>
</g>
<!-- Node7&#45;&gt;Node6 -->
<g id="edge8_Node000007_Node000006" class="edge">
<title>Node7&#45;&gt;Node6</title>
<g id="a_edge8_Node000007_Node000006"><a xlink:title=" ">
<path fill="none" stroke="#63b8ff" d="M142.28,-63.58C185.46,-53.19 240.69,-39.9 281.81,-30.01"/>
<polygon fill="#63b8ff" stroke="#63b8ff" points="141.32,-60.21 132.42,-65.95 142.96,-67.02 141.32,-60.21"/>
</a>
</g>
</g>
<!-- Node12 -->
<g id="Node000012" class="node">
<title>Node12</title>
<g id="a_Node000012"><a xlink:href="uuid_8cc.html" target="_top" xlink:title=" ">
<polygon fill="white" stroke="#666666" points="713.05,-96 609.05,-96 609.05,-66 713.05,-66 713.05,-96"/>
<text text-anchor="start" x="617.05" y="-84" font-family="Helvetica,sans-Serif" font-size="10.00">libs/core/vidre/util</text>
<text text-anchor="middle" x="661.05" y="-73" font-family="Helvetica,sans-Serif" font-size="10.00">/uuid.cc</text>
</a>
</g>
</g>
<!-- Node11&#45;&gt;Node12 -->
<g id="edge14_Node000011_Node000012" class="edge">
<title>Node11&#45;&gt;Node12</title>
<g id="a_edge14_Node000011_Node000012"><a xlink:title=" ">
<path fill="none" stroke="#63b8ff" d="M661.05,-121.54C661.05,-112.96 661.05,-103.61 661.05,-96.16"/>
<polygon fill="#63b8ff" stroke="#63b8ff" points="657.55,-121.8 661.05,-131.8 664.55,-121.8 657.55,-121.8"/>
</a>
</g>
</g>
</g>
</svg>

<g id="navigator" transform="translate(0 0)" fill="#404254">
  <rect fill="#f2f5e9" fill-opacity="0.5" stroke="#606060" stroke-width=".5" x="0" y="0" width="60" height="60"/>
  <use id="zoomplus" xlink:href="#zoomPlus" x="17" y="9" onmousedown="handleZoom(evt,'in')"/>
  <use id="zoomminus" xlink:href="#zoomMin" x="42" y="9" onmousedown="handleZoom(evt,'out')"/>
  <use id="reset" xlink:href="#resetDef" x="30" y="36" onmousedown="handleReset()"/>
   <use id="arrowup" xlink:href="#arrowUp" x="0" y="0" onmousedown="handlePan(0,-1)"/>
  <use id="arrowright" xlink:href="#arrowRight" x="0" y="0" onmousedown="handlePan(1,0)"/>
  <use id="arrowdown" xlink:href="#arrowDown" x="0" y="0" onmousedown="handlePan(0,1)"/>
  <use id="arrowleft" xlink:href="#arrowLeft" x="0" y="0" onmousedown="handlePan(-1,0)"/>
</g>
<svg viewBox="0 0 15 15" width="100%" height="30px" preserveAspectRatio="xMaxYMin meet">
 <g id="arrow_out" transform="scale(0.3 0.3)">
  <a xlink:href="vidre_2config_8hh__dep__incl_org.svg" target="_base">
   <rect id="button" ry="5" rx="5" y="6" x="6" height="38" width="38"
        fill="#f2f5e9" fill-opacity="0.5" stroke="#606060" stroke-width="1.0"/>
   <path id="arrow"
     d="M 11.500037,31.436501 C 11.940474,20.09759 22.043105,11.32322 32.158766,21.979434 L 37.068811,17.246167 C 37.068811,17.246167 37.088388,32 37.088388,32 L 22.160133,31.978069 C 22.160133,31.978069 26.997745,27.140456 26.997745,27.140456 C 18.528582,18.264221 13.291696,25.230495 11.500037,31.436501 z"
     style="fill:#404040;"/>
  </a>
 </g>
</svg>

<style type='text/css'>
<![CDATA[
[data-mouse-over-selected='false'] { opacity: 0.7; }
[data-mouse-over-selected='true']  { opacity: 1.0; }
]]>
</style>
<script type="application/ecmascript"><![CDATA[
document.addEventListener('DOMContentLoaded', (event) => {
  highlightEdges();
  highlightAdjacentNodes();
});
]]></script>
</svg>
